<?xml version="1.0" encoding="utf-8"?>
<!-- Generator: Adobe Illustrator 19.2.1, SVG Export Plug-In . SVG Version: 6.00 Build 0)  -->
<svg version="1.1" id="Layer_1" xmlns="http://www.w3.org/2000/svg" xmlns:xlink="http://www.w3.org/1999/xlink" x="0px" y="0px"
	 width="251.141px" height="250.698px" viewBox="0 0 251.141 250.698" enable-background="new 0 0 251.141 250.698"
	 xml:space="preserve">
<g id="XMLID_73_">
	<g id="XMLID_74_">
		<path id="XMLID_106_" fill-rule="evenodd" clip-rule="evenodd" fill="#D0B46C" d="M123.321,156.26l-1.89-2.137
			c-8.043-9.079-12.871-21.914-13.396-35.454c-0.052-1.394,1.037-2.571,2.433-2.625c1.396-0.054,2.572,1.036,2.629,2.43
			c0.422,10.961,3.897,21.266,9.563,29.095l0.671,0.885l1.451-1.992c3.138-4.615,5.625-10.149,7.163-16.435
			c0.898-3.659,1.42-7.356,1.595-11.022c0.064-1.396,1.253-2.471,2.65-2.407c1.394,0.067,2.474,1.252,2.407,2.648
			c-0.19,3.983-0.756,8.002-1.731,11.984c-2.233,9.12-6.33,16.919-11.649,22.899L123.321,156.26L123.321,156.26z M108.035,37.588
			c0.525-13.537,5.352-26.375,13.396-35.451L123.321,0l1.896,2.131c5.319,5.981,9.416,13.779,11.649,22.897
			c0.975,3.983,1.541,8.004,1.731,11.987c0.067,1.396-1.013,2.581-2.407,2.648c-1.397,0.067-2.585-1.013-2.65-2.409
			c-0.175-3.667-0.697-7.361-1.595-11.023c-1.538-6.284-4.025-11.817-7.163-16.43l-1.451-1.992l-0.671,0.882
			c-5.666,7.829-9.141,18.134-9.563,29.095c-0.057,1.394-1.232,2.484-2.629,2.43C109.072,40.159,107.984,38.984,108.035,37.588
			L108.035,37.588z"/>
		<path id="XMLID_103_" fill-rule="evenodd" clip-rule="evenodd" fill="#D0B46C" d="M150.796,111.645
			c-1.237-0.65-1.71-2.183-1.06-3.419c0.651-1.237,2.184-1.71,3.418-1.059c9.707,5.114,20.376,7.258,29.991,6.269l1.101-0.139
			l-1.001-2.252c-2.431-5.024-5.977-9.945-10.654-14.422c-2.724-2.602-5.666-4.906-8.756-6.888
			c-1.178-0.756-1.515-2.322-0.761-3.497c0.754-1.178,2.323-1.517,3.498-0.761c3.354,2.157,6.554,4.657,9.517,7.49
			c6.783,6.492,11.495,13.938,14.013,21.534l0.9,2.707l-2.796,0.571C176.319,120.2,162.785,117.963,150.796,111.645L150.796,111.645
			z M80.552,71.106c-11.466-7.225-20.176-17.821-24.018-29.325l-0.906-2.705l2.794-0.576c7.845-1.615,16.647-1.262,25.662,1.365
			c3.94,1.147,7.706,2.666,11.247,4.495c1.245,0.643,1.734,2.168,1.093,3.409c-0.643,1.242-2.168,1.73-3.411,1.088
			c-3.264-1.682-6.729-3.078-10.348-4.132c-6.214-1.81-12.251-2.425-17.82-2.016l-2.449,0.265l0.424,1.021
			c3.953,8.819,11.145,16.98,20.428,22.824c1.183,0.748,1.536,2.311,0.795,3.492C83.299,71.494,81.735,71.849,80.552,71.106
			L80.552,71.106z"/>
		<path id="XMLID_100_" fill-rule="evenodd" clip-rule="evenodd" fill="#D0B46C" d="M162.592,70.311
			c-0.743-1.18-0.391-2.743,0.792-3.492c9.283-5.844,16.477-14.005,20.425-22.824l0.427-1.023l-2.449-0.262
			c-5.569-0.409-11.605,0.203-17.82,2.013c-3.616,1.054-7.084,2.453-10.348,4.134c-1.243,0.64-2.77,0.152-3.411-1.088
			c-0.638-1.244-0.152-2.769,1.09-3.412c3.547-1.825,7.313-3.345,11.25-4.492c9.015-2.627,17.82-2.98,25.662-1.365l2.794,0.576
			l-0.903,2.705c-3.843,11.503-12.552,22.099-24.018,29.325C164.902,71.849,163.338,71.494,162.592,70.311L162.592,70.311z
			 M58.43,117.778l-2.796-0.571l0.898-2.707c2.521-7.596,7.23-15.041,14.013-21.534c2.963-2.833,6.163-5.335,9.517-7.49
			c1.178-0.756,2.744-0.417,3.501,0.761c0.754,1.175,0.412,2.741-0.761,3.497c-3.092,1.982-6.034,4.286-8.755,6.888
			c-4.676,4.476-8.226,9.398-10.654,14.422l-1.003,2.252l1.101,0.139c9.614,0.99,20.284-1.157,29.991-6.269
			c1.237-0.65,2.77-0.177,3.421,1.059c0.651,1.236,0.177,2.766-1.06,3.417C83.85,117.96,70.318,120.2,58.43,117.778L58.43,117.778z"
			/>
		<path id="XMLID_97_" fill-rule="evenodd" clip-rule="evenodd" fill="#D0B46C" d="M149.788,88.461
			c-3.372-0.98-7.531-2.952-10.25-4.798c6.603-6.744,14.339-9.747,23.439-8.253c1.376,0.18,2.716,0.479,4.036,0.908
			c0.414,0.134,0.828,0.291,1.23,0.457c0.203,0.082,0.401,0.19,0.609,0.257c-0.532,0.11-1.181,0.159-1.731,0.234
			c-0.946,0.124-1.911,0.324-2.855,0.501c-3.213,0.612-6.446,1.471-9.527,2.571c-1.057,0.378-2.053,0.826-3.076,1.281
			c-0.769,0.344-1.618,0.797-2.462,1.319c0.651,0.244,1.317,0.465,2.001,0.663c9.064,2.636,18.489,0.527,25.181-4.756l0.841-0.717
			l-0.643-0.558c-2.67-2.157-5.859-3.857-9.475-4.911c-11.245-3.139-21.284,0.524-29.247,8.004h-9.617
			c0.707-1.378,0.836-3.044,0.216-4.594c-0.064-0.162-0.136-0.317-0.214-0.468h8.09c8.035-7.86,20.402-11.223,32.187-7.801
			c5.682,1.653,10.528,4.685,14.229,8.595l1.649,1.743l-1.651,1.738C174.748,88.299,161.957,91.999,149.788,88.461L149.788,88.461z
			 M78.114,88.461c-5.682-1.653-10.528-4.685-14.231-8.595l-1.646-1.741l1.651-1.741c8.002-8.421,20.79-12.123,32.962-8.585
			c3.369,0.98,7.529,2.952,10.247,4.798c-6.6,6.744-14.339,9.747-23.439,8.253c-1.376-0.18-2.716-0.479-4.036-0.905
			c-0.412-0.136-0.828-0.296-1.229-0.46c-0.203-0.082-0.402-0.188-0.61-0.257c0.535-0.108,1.178-0.159,1.729-0.231
			c0.949-0.126,1.916-0.324,2.857-0.504c3.213-0.612,6.446-1.471,9.525-2.571c1.06-0.375,2.055-0.825,3.079-1.28
			c0.772-0.344,1.62-0.797,2.462-1.319c-0.651-0.244-1.317-0.463-1.999-0.663c-9.066-2.635-18.491-0.527-25.183,4.757l-0.843,0.718
			l0.646,0.558c2.67,2.157,5.859,3.857,9.476,4.911c14.137,3.7,22.562-1.473,29.186-8.001h9.679
			c-0.705,1.378-0.836,3.042-0.214,4.59c0.064,0.164,0.136,0.319,0.214,0.473h-8.092C102.268,88.523,89.899,91.888,78.114,88.461
			L78.114,88.461z"/>
		<path id="XMLID_94_" fill-rule="evenodd" clip-rule="evenodd" fill="#D0B46C" d="M92.769,131.006l-0.679-2.299
			c-3.295-11.138-0.111-24.061,9.044-32.829c2.533-2.427,6.32-5.044,9.278-6.471c2.544,9.086,1.278,17.289-4.568,24.418
			c-0.846,1.098-1.772,2.111-2.804,3.042c-0.324,0.288-0.669,0.565-1.011,0.833c-0.175,0.136-0.363,0.252-0.527,0.398
			c0.172-0.517,0.45-1.1,0.663-1.612c0.363-0.887,0.676-1.818,0.99-2.723c1.078-3.09,1.95-6.317,2.539-9.534
			c0.201-1.106,0.311-2.188,0.427-3.304c0.087-0.838,0.118-1.802,0.087-2.792c-0.535,0.442-1.06,0.91-1.571,1.398
			c-6.819,6.534-9.702,15.743-8.473,24.179l0.201,1.088l0.805-0.278c3.205-1.231,6.271-3.142,8.992-5.749
			c10.275-10.387,10.008-20.266,7.66-29.263l4.841-8.379c0.975,1.517,2.629,2.443,4.386,2.528l-4.046,7.007
			c2.791,10.883-0.473,23.271-9.336,31.761c-4.272,4.093-9.321,6.775-14.563,8.025L92.769,131.006L92.769,131.006z M123.589,72.602
			l4.044-7.006c-2.791-10.887,0.476-23.272,9.337-31.762c4.275-4.093,9.321-6.775,14.563-8.025l2.333-0.553l0.679,2.296
			c3.295,11.138,0.111,24.061-9.041,32.826c-2.534,2.43-6.322,5.045-9.28,6.477c-2.541-9.089-1.278-17.288,4.568-24.418
			c0.844-1.103,1.772-2.114,2.801-3.042c0.326-0.291,0.671-0.571,1.013-0.836c0.172-0.134,0.363-0.252,0.527-0.398
			c-0.172,0.516-0.45,1.1-0.663,1.612c-0.365,0.887-0.676,1.818-0.99,2.726c-1.075,3.085-1.95,6.317-2.536,9.531
			c-0.203,1.106-0.311,2.191-0.427,3.304c-0.088,0.838-0.121,1.8-0.09,2.79c0.537-0.439,1.06-0.908,1.571-1.399
			c6.821-6.531,9.702-15.741,8.473-24.176l-0.198-1.088l-0.807,0.28c-3.202,1.229-6.271,3.142-8.992,5.746
			c-8.341,8.166-10.191,18.685-7.691,29.319l-4.807,8.326C126.997,73.613,125.345,72.689,123.589,72.602L123.589,72.602z"/>
		<path id="XMLID_91_" fill-rule="evenodd" clip-rule="evenodd" fill="#D0B46C" d="M153.852,131.014l-2.33-0.563
			c-11.297-2.712-20.901-11.935-23.921-24.241c-0.836-3.406-1.209-7.993-0.967-11.269c9.144,2.345,15.615,7.538,18.869,16.165
			c0.535,1.281,0.944,2.589,1.235,3.947c0.09,0.424,0.159,0.861,0.219,1.293c0.028,0.216,0.036,0.44,0.077,0.656
			c-0.36-0.406-0.725-0.941-1.062-1.381c-0.584-0.758-1.237-1.494-1.865-2.219c-2.135-2.476-4.496-4.847-6.988-6.963
			c-0.859-0.725-1.741-1.363-2.652-2.023c-0.684-0.496-1.5-1.003-2.372-1.471c0.113,0.684,0.257,1.37,0.425,2.06
			c2.251,9.169,8.789,16.27,16.711,19.425l1.042,0.368l0.165-0.836c0.533-3.391,0.412-7.001-0.484-10.66
			c-3.863-14.088-12.56-18.796-21.526-21.264l-4.841-8.379c0.599-0.026,1.206-0.154,1.793-0.391
			c1.106-0.442,1.991-1.203,2.593-2.139l4.049,7.004c10.826,3.026,19.923,12.049,22.848,23.966
			c1.41,5.744,1.209,11.457-0.332,16.617L153.852,131.014L153.852,131.014z M118.663,75.134l-4.049-7.006
			c-10.826-3.027-19.921-12.049-22.848-23.966c-1.41-5.744-1.209-11.457,0.332-16.618l0.684-2.299l2.333,0.563
			c11.294,2.715,20.898,11.936,23.918,24.241c0.836,3.407,1.209,7.994,0.967,11.272c-9.141-2.345-15.615-7.541-18.866-16.167
			c-0.535-1.281-0.949-2.592-1.237-3.947c-0.09-0.424-0.159-0.861-0.216-1.291c-0.031-0.219-0.039-0.442-0.083-0.659
			c0.363,0.409,0.728,0.941,1.065,1.381c0.587,0.759,1.237,1.494,1.865,2.221c2.137,2.474,4.498,4.844,6.988,6.96
			c0.856,0.728,1.744,1.365,2.652,2.023c0.684,0.496,1.5,1.003,2.369,1.474c-0.113-0.684-0.255-1.371-0.422-2.062
			c-2.248-9.169-8.786-16.271-16.711-19.423l-1.042-0.37l-0.165,0.838c-0.532,3.389-0.409,6.999,0.484,10.66
			c2.904,11.3,11.096,18.16,21.557,21.315l4.807,8.323c-0.6,0.031-1.201,0.157-1.788,0.391
			C120.15,73.435,119.262,74.199,118.663,75.134L118.663,75.134z"/>
		<path id="XMLID_88_" fill-rule="evenodd" clip-rule="evenodd" fill="#D0B46C" d="M113.789,81.948
			c-2.109-5.258,0.45-11.239,5.71-13.347c5.26-2.106,11.24,0.45,13.349,5.71c2.109,5.258-0.45,11.236-5.71,13.345
			C121.878,89.765,115.895,87.206,113.789,81.948L113.789,81.948z M125.379,83.267c2.837-1.139,4.218-4.361,3.079-7.199
			c-1.137-2.833-4.362-4.214-7.199-3.078c-2.837,1.137-4.216,4.364-3.079,7.2C119.316,83.023,122.542,84.404,125.379,83.267
			L125.379,83.267z"/>
		<path id="XMLID_87_" fill-rule="evenodd" clip-rule="evenodd" fill="#D0B46C" d="M120.657,64.765
			c-0.589-1.468,0.123-3.134,1.592-3.723c1.469-0.589,3.135,0.123,3.724,1.591c0.589,1.468-0.124,3.134-1.592,3.723
			C122.912,66.946,121.245,66.233,120.657,64.765L120.657,64.765z"/>
		<path id="XMLID_86_" fill-rule="evenodd" clip-rule="evenodd" fill="#D0B46C" d="M120.657,93.629
			c-0.589-1.468,0.123-3.134,1.592-3.723c1.469-0.589,3.135,0.124,3.724,1.591c0.589,1.468-0.124,3.134-1.592,3.723
			C122.912,95.809,121.245,95.097,120.657,93.629L120.657,93.629z"/>
		<path id="XMLID_85_" fill-rule="evenodd" clip-rule="evenodd" fill="#D0B46C" d="M110.407,73.751
			c-1.564-0.224-2.655-1.676-2.428-3.242c0.224-1.563,1.677-2.653,3.244-2.427c1.563,0.224,2.654,1.676,2.428,3.242
			C113.426,72.888,111.973,73.978,110.407,73.751L110.407,73.751z"/>
		<path id="XMLID_84_" fill-rule="evenodd" clip-rule="evenodd" fill="#D0B46C" d="M135.41,88.183
			c-1.564-0.224-2.654-1.676-2.428-3.242c0.224-1.563,1.677-2.653,3.243-2.427c1.564,0.224,2.654,1.676,2.428,3.242
			C138.43,87.32,136.976,88.41,135.41,88.183L135.41,88.183z"/>
		<path id="XMLID_83_" fill-rule="evenodd" clip-rule="evenodd" fill="#D0B46C" d="M109.043,87.602
			c-1.242-0.977-1.458-2.779-0.483-4.024c0.977-1.242,2.781-1.458,4.025-0.483c1.242,0.977,1.458,2.78,0.484,4.024
			C112.091,88.361,110.288,88.577,109.043,87.602L109.043,87.602z"/>
		<path id="XMLID_82_" fill-rule="evenodd" clip-rule="evenodd" fill="#D0B46C" d="M134.047,73.17
			c-1.242-0.977-1.459-2.779-0.484-4.024c0.977-1.242,2.781-1.458,4.025-0.483c1.242,0.977,1.458,2.779,0.484,4.024
			C137.095,73.929,135.292,74.145,134.047,73.17L134.047,73.17z"/>
		<path id="XMLID_81_" fill-rule="evenodd" clip-rule="evenodd" fill="#D0B46C" d="M122.03,74.921
			c1.772-0.712,3.786,0.149,4.496,1.923c0.713,1.771-0.149,3.785-1.924,4.494c-1.772,0.712-3.786-0.149-4.496-1.923
			C119.393,77.644,120.255,75.631,122.03,74.921L122.03,74.921z"/>
		<path id="XMLID_80_" fill-rule="evenodd" clip-rule="evenodd" fill="#D0B46C" d="M125.338,57.8c-1.273-0.422-2.688-0.452-4.041,0
			l0.026-7.276l0.224-8.405l0.599-8.403l1.162-8.403l1.181,8.403l0.599,8.403l0.224,8.405L125.338,57.8L125.338,57.8z"/>
		<path id="XMLID_79_" fill-rule="evenodd" clip-rule="evenodd" fill="#D0B46C" d="M125.338,98.458c-1.273,0.422-2.688,0.45-4.041,0
			l0.026,7.279l0.224,8.403l0.599,8.403l1.162,8.402l1.181-8.402l0.599-8.403l0.224-8.403L125.338,98.458L125.338,98.458z"/>
		<path id="XMLID_78_" fill-rule="evenodd" clip-rule="evenodd" fill="#D0B46C" d="M106.716,66.215
			c-1.003,0.892-1.734,2.101-2.022,3.5l-6.291-3.664l-7.169-4.394l-6.978-4.721l-6.7-5.207l7.871,3.181l7.58,3.682l7.39,4.008
			L106.716,66.215L106.716,66.215z"/>
		<path id="XMLID_77_" fill-rule="evenodd" clip-rule="evenodd" fill="#D0B46C" d="M141.941,86.543
			c-0.273,1.316-0.954,2.553-2.022,3.502l6.32,3.613l7.389,4.011l7.583,3.682l7.858,3.193l-6.69-5.219l-6.978-4.723l-7.169-4.392
			L141.941,86.543L141.941,86.543z"/>
		<path id="XMLID_76_" fill-rule="evenodd" clip-rule="evenodd" fill="#D0B46C" d="M104.686,86.543
			c0.27,1.316,0.949,2.553,2.022,3.5l-6.322,3.615l-7.39,4.011l-7.577,3.682l-7.863,3.193l6.693-5.219l6.975-4.723l7.169-4.392
			L104.686,86.543L104.686,86.543z"/>
		<path id="XMLID_75_" fill-rule="evenodd" clip-rule="evenodd" fill="#D0B46C" d="M139.909,66.215
			c1.003,0.892,1.736,2.101,2.024,3.5l6.286-3.664l7.171-4.394l6.981-4.721l6.698-5.207l-7.868,3.181l-7.583,3.682l-7.387,4.006
			L139.909,66.215L139.909,66.215z"/>
	</g>
</g>
<g>
	<path fill="#FFFFFF" stroke="#FFFFFF" stroke-miterlimit="10" d="M35.289,151.709v16.414h-0.821l-5.745-15.593H13.952v26.261H25.44
		v-7.387h0.821v15.593H25.44v-7.387H13.952v28.724h15.593l5.745-15.593h0.82v16.414H0v-0.821h4.924V152.53H0v-0.821H35.289z"/>
	<path fill="#FFFFFF" stroke="#FFFFFF" stroke-miterlimit="10" d="M93.551,152.53h-6.566l-19.285,56.626h-1.642L45.953,152.53
		h-4.924v-0.821h19.696v0.821H55.8l15.593,43.496l14.773-43.496H79.6v-0.821h13.952V152.53z"/>
	<path fill="#FFFFFF" stroke="#FFFFFF" stroke-miterlimit="10" d="M134.581,208.335v0.821h-19.697v-0.821h4.924l-5.334-14.771H94.45
		l-5.006,14.771h6.565v0.821H82.058v-0.821h6.565l19.286-56.626h1.641l20.106,56.626H134.581z M114.064,192.742l-9.848-27.903
		l-9.437,27.903H114.064z"/>
	<path fill="#FFFFFF" stroke="#FFFFFF" stroke-miterlimit="10" d="M176.43,192.742v16.414H139.5v-0.821h4.924V152.53H139.5v-0.821
		h18.874v0.821h-4.924v55.805h16.414l5.745-15.593H176.43z"/>
	<path fill="#FFFFFF" stroke="#FFFFFF" stroke-miterlimit="10" d="M184.631,152.53v-0.821h18.875v0.821h-4.924v55.805h4.924v0.821
		h-18.875v-0.821h4.924V152.53H184.631z"/>
	<path fill="#FFFFFF" stroke="#FFFFFF" stroke-miterlimit="10" d="M242.895,199.308c0-16.414-29.543-13.132-29.543-33.648
		c0-8.206,7.387-15.593,18.056-15.593c9.027,0,15.593,6.566,15.593,10.669c0,3.282-2.463,5.745-5.745,5.745
		c-3.284,0-5.745-2.463-5.745-5.745s2.461-5.745,5.745-5.745c0.821,0,2.05,0.41,2.05,0.41s-4.513-4.513-11.898-4.513
		c-7.387,0-12.311,4.924-12.311,9.848c0,16.414,29.543,13.129,29.543,33.648c0,9.027-7.385,16.414-18.875,16.414
		c-12.311,0-18.874-11.079-18.874-11.079v-1.15c0.326,0.493,6.81,11.408,18.874,11.408
		C237.971,209.977,242.895,205.053,242.895,199.308z"/>
</g>
<g>
	<path fill="#FFFFFF" stroke="#FFFFFF" stroke-miterlimit="10" d="M12,249.891H2.321v-0.403h2.419v-27.424H2.321v-0.403h7.662
		c7.259,0,10.083,2.823,10.083,6.05c0,5.242-6.453,5.646-6.453,5.646v0.202c0,0,9.275,0.201,9.275,8.065
		C22.889,246.262,19.259,249.891,12,249.891z M9.177,222.064v11.292h0.806c3.227,0,5.283-0.604,5.243-0.604V222.67
		c0,0-2.017-0.605-5.243-0.605H9.177z M18.049,248.278V234.97c0,0-2.419-1.21-6.049-1.21H9.177v15.729H12
		C15.63,249.488,18.049,248.278,18.049,248.278z"/>
	<path fill="#FFFFFF" stroke="#FFFFFF" stroke-miterlimit="10" d="M44.262,221.661v8.066h-0.403l-2.823-7.663h-7.259v12.905h5.646
		v-3.63h0.403v7.663h-0.403v-3.63h-5.646v14.115h7.662l2.823-7.662h0.403v8.065H26.92v-0.403h2.419v-27.424H26.92v-0.403H44.262z"/>
	<path fill="#FFFFFF" stroke="#FFFFFF" stroke-miterlimit="10" d="M72.088,249.488v0.403h-9.679v-0.403h2.42l-2.622-7.259h-9.84
		l-2.46,7.259h3.226v0.403h-6.856v-0.403h3.227l9.477-27.827h0.807l9.88,27.827H72.088z M62.006,241.826l-4.84-13.712l-4.638,13.712
		H62.006z"/>
	<path fill="#FFFFFF" stroke="#FFFFFF" stroke-miterlimit="10" d="M83.984,250.698c-5.444,0-9.477-4.033-9.477-10.485v-18.148h-2.42
		v-0.403h9.275v0.403h-2.42v26.819c0,0,2.017,1.411,5.041,1.411c5.243,0,9.074-3.831,9.074-10.082v-14.075
		c-0.04,0.081-0.887,1.573-2.823,1.573c-1.814,0-3.226-1.412-3.226-3.227s1.411-3.227,3.226-3.227c1.815,0,3.227,1.412,3.227,3.227
		v15.729C93.462,246.665,89.43,250.698,83.984,250.698z"/>
	<path fill="#FFFFFF" stroke="#FFFFFF" stroke-miterlimit="10" d="M118.465,229.727h-0.403l-2.822-7.663h-4.84v27.424h2.42v0.403
		h-9.276v-0.403h2.42v-27.424h-4.839l-2.823,7.663h-0.403v-8.066h20.567V229.727z"/>
	<path fill="#FFFFFF" stroke="#FFFFFF" stroke-miterlimit="10" d="M134.596,249.488h2.42v0.403h-9.276v-0.403h2.42v-12.099
		l-7.662-15.325h-2.42v-0.403h9.679v0.403h-2.42l7.26,14.519l7.259-14.519h-3.226v-0.403h6.855v0.403h-3.227l-7.662,15.325V249.488z
		"/>
	<path fill="#FFFFFF" stroke="#FFFFFF" stroke-miterlimit="10" d="M179.763,243.036v0.806c0,0-4.033,6.856-11.897,6.856
		c-7.461,0-13.913-6.453-13.913-14.922s6.452-14.922,13.913-14.922c6.654,0,10.688,4.033,10.688,6.453
		c0,1.814-1.411,3.227-3.227,3.227c-1.814,0-3.227-1.412-3.227-3.227c0-1.815,1.412-3.227,3.227-3.227
		c0.524,0,0.888,0.161,0.968,0.201c-0.121-0.12-3.105-3.024-8.429-3.024c-5.444,0-8.671,3.428-8.671,3.428v22.182
		c0,0,3.227,3.428,8.671,3.428C175.528,250.295,179.561,243.358,179.763,243.036z"/>
	<path fill="#FFFFFF" stroke="#FFFFFF" stroke-miterlimit="10" d="M205.975,249.488v0.403h-9.679v-0.403h2.42l-2.622-7.259h-9.84
		l-2.46,7.259h3.227v0.403h-6.856v-0.403h3.227l9.478-27.827h0.807l9.88,27.827H205.975z M195.893,241.826l-4.84-13.712
		l-4.638,13.712H195.893z"/>
	<path fill="#FFFFFF" stroke="#FFFFFF" stroke-miterlimit="10" d="M229.768,249.488v0.403h-9.275v-0.403h2.42v-12.905
		c0,0-2.42-1.21-6.05-1.21h-1.613v14.115h2.42v0.403h-9.275v-0.403h2.42v-27.424h-2.42v-0.403h8.065
		c7.663,0,10.889,3.227,10.889,6.856c0,5.767-7.662,6.613-8.429,6.654c0.524,0.04,8.429,0.645,8.429,7.058v7.259H229.768z
		 M215.249,234.97h1.21c3.63,0,6.05-1.008,6.05-1.008v-10.889c0,0-2.42-1.009-6.05-1.009h-1.21V234.97z"/>
	<path fill="#FFFFFF" stroke="#FFFFFF" stroke-miterlimit="10" d="M250.737,221.661v8.066h-0.403l-2.822-7.663h-7.26v12.905h5.646
		v-3.63h0.403v7.663h-0.403v-3.63h-5.646v14.115h7.663l2.822-7.662h0.403v8.065h-17.744v-0.403h2.42v-27.424h-2.42v-0.403H250.737z"
		/>
</g>
</svg>
