<?xml version="1.0" encoding="utf-8"?>
<!-- Generator: Adobe Illustrator 16.0.0, SVG Export Plug-In . SVG Version: 6.00 Build 0)  -->
<!DOCTYPE svg PUBLIC "-//W3C//DTD SVG 1.1//EN" "http://www.w3.org/Graphics/SVG/1.1/DTD/svg11.dtd">
<svg version="1.1" id="Layer_1" xmlns="http://www.w3.org/2000/svg" xmlns:xlink="http://www.w3.org/1999/xlink" x="0px" y="0px"
	 width="254.441px" height="156.26px" viewBox="0 0 254.441 156.26" enable-background="new 0 0 254.441 156.26"
	 xml:space="preserve">
<g id="XMLID_73_">
	<g id="XMLID_74_">
		<path id="XMLID_106_" fill="#CFB467" d="M125.171,156.26l-1.891-2.136c-8.043-9.079-12.871-21.915-13.396-35.454
			c-0.052-1.395,1.037-2.571,2.435-2.625c1.396-0.056,2.571,1.036,2.628,2.43c0.422,10.961,3.896,21.267,9.563,29.095l0.672,0.886
			l1.45-1.992c3.139-4.615,5.625-10.148,7.163-16.437c0.898-3.657,1.42-7.355,1.596-11.021c0.063-1.396,1.253-2.471,2.648-2.406
			c1.396,0.066,2.476,1.252,2.407,2.648c-0.189,3.981-0.756,8.001-1.73,11.982c-2.231,9.12-6.33,16.919-11.648,22.899
			L125.171,156.26L125.171,156.26z M109.885,37.588c0.524-13.537,5.354-26.375,13.396-35.451L125.171,0l1.896,2.131
			c5.319,5.979,9.417,13.779,11.648,22.896c0.976,3.983,1.541,8.004,1.73,11.987c0.067,1.396-1.013,2.582-2.407,2.648
			c-1.396,0.065-2.585-1.014-2.648-2.41c-0.176-3.667-0.696-7.361-1.596-11.022c-1.538-6.284-4.024-11.816-7.163-16.43l-1.45-1.993
			L124.51,8.69c-5.665,7.829-9.142,18.134-9.563,29.097c-0.057,1.394-1.231,2.482-2.628,2.429
			C110.922,40.159,109.833,38.984,109.885,37.588L109.885,37.588z"/>
		<path id="XMLID_103_" fill="#CFB467" d="M152.646,111.646c-1.237-0.649-1.711-2.184-1.061-3.42s2.185-1.71,3.418-1.06
			c9.707,5.113,20.376,7.259,29.99,6.269l1.103-0.139l-1.001-2.252c-2.432-5.024-5.979-9.945-10.653-14.422
			c-2.725-2.604-5.666-4.905-8.756-6.889c-1.179-0.757-1.516-2.321-0.763-3.497c0.755-1.178,2.323-1.518,3.498-0.762
			c3.354,2.157,6.556,4.657,9.519,7.49c6.782,6.492,11.494,13.938,14.013,21.533l0.9,2.708l-2.796,0.569
			C178.169,120.199,164.635,117.963,152.646,111.646L152.646,111.646z M82.401,71.105C70.935,63.88,62.226,53.285,58.383,41.781
			l-0.905-2.704L60.27,38.5c7.845-1.614,16.646-1.263,25.662,1.364c3.939,1.147,7.706,2.667,11.247,4.495
			c1.244,0.644,1.733,2.168,1.094,3.409c-0.645,1.242-2.168,1.73-3.411,1.088c-3.264-1.682-6.729-3.078-10.348-4.132
			c-6.215-1.81-12.251-2.425-17.819-2.016l-2.448,0.265l0.424,1.021c3.953,8.818,11.146,16.979,20.429,22.823
			c1.184,0.748,1.536,2.313,0.795,3.492C85.148,71.494,83.585,71.849,82.401,71.105L82.401,71.105z"/>
		<path id="XMLID_100_" fill="#CFB467" d="M164.442,70.312c-0.744-1.181-0.393-2.744,0.792-3.492
			c9.282-5.844,16.477-14.005,20.425-22.823l0.427-1.023l-2.447-0.262c-5.569-0.409-11.605,0.203-17.82,2.013
			c-3.616,1.055-7.083,2.453-10.347,4.135c-1.243,0.641-2.771,0.151-3.411-1.088c-0.639-1.244-0.151-2.769,1.091-3.412
			c3.547-1.825,7.313-3.345,11.25-4.491c9.016-2.628,17.82-2.979,25.662-1.365l2.794,0.576l-0.903,2.705
			c-3.843,11.504-12.552,22.1-24.019,29.323C166.752,71.849,165.188,71.494,164.442,70.312L164.442,70.312z M60.279,117.777
			l-2.796-0.569l0.897-2.708c2.521-7.596,7.23-15.041,14.014-21.533c2.963-2.833,6.163-5.335,9.517-7.49
			c1.179-0.756,2.745-0.416,3.501,0.762c0.754,1.176,0.412,2.74-0.762,3.497c-3.092,1.982-6.034,4.285-8.755,6.889
			c-4.676,4.477-8.227,9.396-10.653,14.422l-1.004,2.252l1.102,0.139c9.614,0.99,20.283-1.157,29.99-6.269
			c1.237-0.65,2.771-0.178,3.421,1.06c0.651,1.236,0.179,2.768-1.06,3.417C85.699,117.96,72.167,120.199,60.279,117.777
			L60.279,117.777z"/>
		<path id="XMLID_97_" fill="#CFB467" d="M151.638,88.461c-3.372-0.979-7.531-2.951-10.25-4.798
			c6.603-6.744,14.34-9.747,23.438-8.253c1.377,0.18,2.717,0.479,4.036,0.906c0.414,0.135,0.828,0.291,1.229,0.458
			c0.203,0.082,0.401,0.19,0.609,0.258c-0.532,0.109-1.181,0.158-1.729,0.233c-0.947,0.123-1.911,0.323-2.855,0.501
			c-3.213,0.612-6.445,1.471-9.527,2.571c-1.057,0.378-2.053,0.825-3.075,1.28c-0.77,0.345-1.618,0.797-2.462,1.318
			c0.65,0.244,1.316,0.465,2.002,0.663c9.063,2.636,18.487,0.527,25.181-4.757l0.841-0.717l-0.643-0.56
			c-2.67-2.156-5.859-3.855-9.477-4.911c-11.245-3.139-21.284,0.524-29.247,8.005h-9.617c0.707-1.379,0.836-3.044,0.217-4.595
			c-0.064-0.162-0.138-0.315-0.214-0.469h8.09c8.035-7.859,20.4-11.223,32.188-7.801c5.683,1.652,10.527,4.686,14.229,8.596
			l1.647,1.743l-1.65,1.738C176.598,88.299,163.807,91.999,151.638,88.461L151.638,88.461z M79.963,88.461
			c-5.682-1.653-10.526-4.686-14.229-8.597l-1.646-1.739l1.651-1.74c8.001-8.421,20.79-12.124,32.961-8.586
			c3.37,0.979,7.529,2.952,10.248,4.798c-6.601,6.744-14.34,9.747-23.439,8.254c-1.377-0.181-2.717-0.479-4.035-0.905
			c-0.412-0.136-0.828-0.296-1.229-0.46c-0.203-0.082-0.401-0.188-0.609-0.258c0.535-0.106,1.179-0.159,1.729-0.229
			c0.949-0.126,1.916-0.324,2.857-0.505c3.213-0.611,6.444-1.472,9.523-2.571c1.061-0.375,2.055-0.824,3.079-1.28
			c0.771-0.344,1.62-0.797,2.461-1.317c-0.65-0.244-1.316-0.464-1.998-0.664c-9.065-2.636-18.491-0.526-25.184,4.757l-0.845,0.718
			l0.646,0.558c2.67,2.157,5.859,3.856,9.476,4.911c14.138,3.7,22.563-1.474,29.187-8.002h9.679
			c-0.704,1.379-0.836,3.042-0.213,4.59c0.064,0.165,0.136,0.319,0.213,0.474h-8.091C104.118,88.522,91.749,91.889,79.963,88.461
			L79.963,88.461z"/>
		<path id="XMLID_94_" fill="#CFB467" d="M94.619,131.006l-0.679-2.299c-3.295-11.139-0.11-24.062,9.043-32.828
			c2.534-2.427,6.32-5.044,9.278-6.473c2.544,9.088,1.277,17.289-4.568,24.42c-0.847,1.098-1.772,2.109-2.804,3.041
			c-0.324,0.287-0.669,0.564-1.012,0.833c-0.175,0.137-0.361,0.252-0.526,0.397c0.172-0.517,0.449-1.101,0.664-1.612
			c0.361-0.887,0.676-1.816,0.988-2.723c1.078-3.09,1.95-6.317,2.539-9.533c0.201-1.105,0.313-2.188,0.428-3.305
			c0.088-0.838,0.118-1.802,0.088-2.792c-0.535,0.442-1.061,0.91-1.571,1.397c-6.819,6.533-9.702,15.743-8.473,24.181l0.199,1.087
			l0.806-0.277c3.206-1.23,6.271-3.142,8.992-5.749c10.275-10.388,10.009-20.266,7.659-29.263l4.842-8.379
			c0.975,1.517,2.629,2.441,4.386,2.527l-4.047,7.007c2.792,10.883-0.474,23.271-9.336,31.761
			c-4.272,4.094-9.321,6.775-14.563,8.025L94.619,131.006L94.619,131.006z M125.438,72.602l4.043-7.006
			c-2.791-10.887,0.477-23.271,9.337-31.762c4.273-4.093,9.321-6.775,14.563-8.025l2.333-0.552l0.68,2.296
			c3.295,11.138,0.109,24.061-9.041,32.826c-2.533,2.43-6.322,5.044-9.28,6.477c-2.541-9.089-1.278-17.289,4.568-24.418
			c0.844-1.103,1.771-2.112,2.801-3.042c0.327-0.291,0.672-0.57,1.014-0.836c0.172-0.134,0.362-0.251,0.527-0.397
			c-0.173,0.516-0.45,1.1-0.664,1.611c-0.365,0.888-0.676,1.818-0.99,2.727c-1.075,3.085-1.949,6.316-2.536,9.53
			c-0.203,1.105-0.311,2.19-0.427,3.305c-0.088,0.838-0.121,1.8-0.09,2.79c0.537-0.439,1.06-0.908,1.571-1.399
			c6.82-6.53,9.701-15.74,8.473-24.176l-0.198-1.087l-0.808,0.28c-3.202,1.229-6.271,3.142-8.992,5.745
			c-8.341,8.167-10.19,18.686-7.69,29.319l-4.808,8.325C128.847,73.612,127.195,72.689,125.438,72.602L125.438,72.602z"/>
		<path id="XMLID_91_" fill="#CFB467" d="M155.702,131.014l-2.331-0.563c-11.297-2.714-20.899-11.937-23.92-24.241
			c-0.836-3.406-1.209-7.994-0.968-11.271c9.145,2.346,15.615,7.539,18.869,16.165c0.535,1.28,0.943,2.589,1.234,3.946
			c0.091,0.425,0.159,0.862,0.219,1.294c0.027,0.216,0.035,0.439,0.076,0.655c-0.359-0.406-0.726-0.94-1.062-1.381
			c-0.585-0.759-1.237-1.493-1.865-2.22c-2.135-2.476-4.496-4.847-6.988-6.963c-0.858-0.725-1.74-1.361-2.651-2.022
			c-0.685-0.496-1.499-1.003-2.371-1.472c0.113,0.685,0.257,1.37,0.425,2.061c2.25,9.169,8.788,16.271,16.711,19.426l1.041,0.367
			l0.165-0.836c0.532-3.392,0.411-7.001-0.482-10.659c-3.863-14.088-12.561-18.796-21.526-21.264l-4.841-8.381
			c0.6-0.025,1.206-0.153,1.793-0.391c1.105-0.441,1.991-1.203,2.593-2.14l4.049,7.004c10.825,3.025,19.923,12.049,22.849,23.966
			c1.408,5.744,1.209,11.457-0.332,16.618L155.702,131.014L155.702,131.014z M120.513,75.135l-4.05-7.007
			c-10.824-3.026-19.921-12.048-22.848-23.965c-1.41-5.745-1.209-11.458,0.332-16.618l0.684-2.299l2.333,0.563
			c11.295,2.715,20.898,11.937,23.918,24.241c0.837,3.407,1.209,7.994,0.969,11.271c-9.143-2.345-15.615-7.541-18.867-16.167
			c-0.534-1.28-0.948-2.592-1.237-3.946c-0.09-0.424-0.159-0.861-0.216-1.291c-0.03-0.219-0.038-0.442-0.082-0.659
			c0.363,0.409,0.729,0.94,1.064,1.381c0.587,0.758,1.236,1.494,1.864,2.221c2.139,2.475,4.498,4.845,6.988,6.96
			c0.856,0.729,1.744,1.366,2.652,2.023c0.684,0.496,1.499,1.003,2.368,1.474c-0.112-0.684-0.255-1.37-0.423-2.062
			c-2.248-9.169-8.785-16.271-16.711-19.423l-1.041-0.37L98.047,32.3c-0.531,3.389-0.408,6.999,0.483,10.661
			c2.904,11.3,11.097,18.16,21.558,21.313l4.808,8.323c-0.601,0.031-1.201,0.157-1.788,0.391
			C121.999,73.435,121.112,74.199,120.513,75.135L120.513,75.135z"/>
		<path id="XMLID_88_" fill="#CFB467" d="M115.639,81.948c-2.109-5.258,0.449-11.237,5.71-13.347c5.26-2.105,11.239,0.45,13.35,5.71
			c2.108,5.258-0.45,11.236-5.71,13.345C123.728,89.765,117.745,87.206,115.639,81.948L115.639,81.948z M127.229,83.268
			c2.837-1.14,4.218-4.359,3.079-7.199c-1.138-2.834-4.362-4.215-7.2-3.077c-2.837,1.137-4.215,4.362-3.078,7.198
			C121.166,83.023,124.392,84.403,127.229,83.268L127.229,83.268z"/>
		<path id="XMLID_87_" fill="#CFB467" d="M122.506,64.766c-0.589-1.469,0.124-3.135,1.594-3.724
			c1.469-0.589,3.135,0.123,3.724,1.592c0.59,1.468-0.123,3.134-1.592,3.723S123.095,66.233,122.506,64.766L122.506,64.766z"/>
		<path id="XMLID_86_" fill="#CFB467" d="M122.506,93.629c-0.589-1.468,0.124-3.134,1.594-3.724
			c1.469-0.589,3.135,0.123,3.724,1.593c0.59,1.468-0.123,3.134-1.592,3.723S123.095,95.098,122.506,93.629L122.506,93.629z"/>
		<path id="XMLID_85_" fill="#CFB467" d="M112.257,73.751c-1.563-0.225-2.654-1.676-2.429-3.242
			c0.225-1.563,1.677-2.653,3.243-2.427c1.563,0.224,2.654,1.677,2.429,3.242C115.275,72.888,113.823,73.978,112.257,73.751
			L112.257,73.751z"/>
		<path id="XMLID_84_" fill="#CFB467" d="M137.26,88.184c-1.563-0.224-2.653-1.677-2.428-3.242c0.225-1.563,1.677-2.652,3.243-2.428
			c1.563,0.224,2.654,1.677,2.428,3.242C140.279,87.319,138.826,88.409,137.26,88.184L137.26,88.184z"/>
		<path id="XMLID_83_" fill="#CFB467" d="M110.893,87.603c-1.242-0.978-1.458-2.778-0.483-4.023
			c0.979-1.241,2.781-1.458,4.025-0.483c1.241,0.978,1.459,2.78,0.482,4.024C113.94,88.361,112.138,88.577,110.893,87.603
			L110.893,87.603z"/>
		<path id="XMLID_82_" fill="#CFB467" d="M135.896,73.17c-1.242-0.978-1.458-2.779-0.483-4.023c0.979-1.242,2.78-1.458,4.025-0.482
			c1.242,0.977,1.458,2.778,0.482,4.022C138.944,73.929,137.142,74.145,135.896,73.17L135.896,73.17z"/>
		<path id="XMLID_81_" fill="#CFB467" d="M123.88,74.921c1.772-0.712,3.786,0.148,4.496,1.924c0.712,1.771-0.148,3.784-1.924,4.494
			c-1.771,0.712-3.786-0.149-4.497-1.923C121.243,77.645,122.104,75.631,123.88,74.921L123.88,74.921z"/>
		<path id="XMLID_80_" fill="#CFB467" d="M127.188,57.8c-1.273-0.422-2.688-0.452-4.041,0l0.024-7.276l0.226-8.404l0.599-8.403
			l1.163-8.403l1.181,8.403l0.6,8.403l0.224,8.404L127.188,57.8L127.188,57.8z"/>
		<path id="XMLID_79_" fill="#CFB467" d="M127.188,98.458c-1.273,0.421-2.688,0.45-4.041,0l0.024,7.277l0.226,8.403l0.599,8.402
			l1.163,8.401l1.181-8.401l0.6-8.402l0.224-8.403L127.188,98.458L127.188,98.458z"/>
		<path id="XMLID_78_" fill="#CFB467" d="M108.565,66.215c-1.003,0.893-1.733,2.102-2.021,3.5l-6.292-3.664l-7.168-4.396
			l-6.979-4.72l-6.7-5.207l7.87,3.182l7.581,3.682l7.389,4.009L108.565,66.215L108.565,66.215z"/>
		<path id="XMLID_77_" fill="#CFB467" d="M143.79,86.543c-0.271,1.315-0.954,2.554-2.021,3.502l6.319,3.611l7.39,4.013l7.583,3.682
			l7.856,3.193l-6.688-5.22l-6.979-4.724l-7.168-4.392L143.79,86.543L143.79,86.543z"/>
		<path id="XMLID_76_" fill="#CFB467" d="M106.536,86.543c0.271,1.315,0.949,2.554,2.021,3.5l-6.322,3.613l-7.39,4.013l-7.577,3.682
			l-7.863,3.193l6.692-5.22l6.976-4.724l7.169-4.392L106.536,86.543L106.536,86.543z"/>
		<path id="XMLID_75_" fill="#CFB467" d="M141.759,66.215c1.004,0.893,1.735,2.102,2.023,3.5l6.286-3.664l7.171-4.396l6.981-4.72
			l6.696-5.207l-7.867,3.182l-7.583,3.682l-7.387,4.006L141.759,66.215L141.759,66.215z"/>
	</g>
</g>
<g>
	<path fill="#FFFFFF" d="M38.271,115.234c-0.356-0.101-0.571-0.265-0.646-0.492c-0.072-0.229-0.109-0.404-0.109-0.527
		c0-0.279,0.097-0.604,0.29-0.977c0.355-0.618,0.903-1.216,1.643-1.787c0.739-0.572,1.522-1.088,2.351-1.545
		c0.829-0.456,1.557-0.823,2.183-1.103c0.31-0.457,0.465-0.774,0.465-0.952c0-0.154-0.089-0.231-0.267-0.231
		c-0.325,0-0.94,0.252-1.847,0.755c-0.797,0.472-2.128,1.438-3.993,2.901l-0.486,0.384c-0.279,0.217-0.559,0.324-0.836,0.324
		c-0.302,0-0.515-0.213-0.639-0.639c-0.015-0.077-0.022-0.162-0.022-0.255c0-0.999,0.913-2.678,2.74-5.039
		c1.594-2.058,3.347-4.051,5.259-5.979l-0.151,0.013c-0.131,0-0.197-0.034-0.197-0.104c0-0.208,0.427-0.557,1.277-1.045
		c0.201-0.101,0.368-0.149,0.5-0.149c0.069,0,0.131,0.016,0.187,0.047c0.154,0.076,0.235,0.164,0.243,0.261
		c0.009,0.097,0.013,0.152,0.013,0.169c0,0.139-0.042,0.251-0.127,0.336c-0.883,0.828-1.871,2.029-2.967,3.604
		c-1.095,1.574-2.114,3.102-3.059,4.578l-1.219,1.882c1.579-1.185,2.964-2.043,4.156-2.577c0.75-0.332,1.381-0.499,1.892-0.499
		c0.263,0,0.499,0.051,0.708,0.15c0.34,0.162,0.511,0.558,0.511,1.186c1.052-0.396,2.174-0.748,3.366-1.058l0.104-0.012
		c0.218,0,0.356,0.108,0.419,0.325l0.012,0.104c0,0.219-0.109,0.354-0.325,0.407c-1.401,0.364-2.693,0.781-3.877,1.254
		c-0.403,0.819-1.049,1.688-1.938,2.601c-1.446,1.485-2.909,2.646-4.388,3.481c-0.325,0.163-0.627,0.244-0.905,0.244
		C38.476,115.27,38.371,115.258,38.271,115.234z M40.441,112.17c1.238-0.967,1.941-1.536,2.113-1.706
		c-1.486,0.828-2.605,1.602-3.355,2.321c-0.472,0.448-0.708,0.691-0.708,0.73c0.008,0.008,0.015,0.012,0.023,0.012
		C38.638,113.528,39.281,113.076,40.441,112.17z"/>
	<path fill="#FFFFFF" d="M44.052,123.233c-0.187-0.132-0.279-0.358-0.279-0.686c0-0.937,0.589-2.229,1.765-3.877
		c1.316-1.818,3.324-3.846,6.025-6.083c0.759-1.348,1.432-2.654,2.021-3.924c-0.379,0.387-0.921,0.86-1.625,1.423
		c-0.705,0.561-1.366,0.949-1.984,1.166c-0.311,0.085-0.572,0.128-0.789,0.128c-0.427,0-0.686-0.155-0.778-0.465
		c-0.039-0.132-0.058-0.274-0.058-0.431c0-0.874,0.568-2.282,1.707-4.225c0.542-0.921,1.036-1.719,1.485-2.392
		c-0.068,0.021-0.124,0.034-0.162,0.034c-0.077,0-0.115-0.034-0.115-0.104c0-0.192,0.316-0.576,0.951-1.148
		c0.171-0.124,0.321-0.187,0.453-0.187c0.094,0,0.183,0.035,0.268,0.104c0.085,0.069,0.128,0.171,0.128,0.303
		c0,0.115-0.039,0.256-0.117,0.418c-1.369,2.454-2.153,4.066-2.35,4.841c-0.198,0.772-0.297,1.262-0.297,1.463
		c0,0.294,0.094,0.441,0.279,0.441c0.696,0,2.283-1.788,4.76-5.363c0.271-0.371,0.519-0.559,0.743-0.559l0.081,0.013
		c0.248,0.046,0.423,0.178,0.528,0.395c0.104,0.218,0.156,0.402,0.156,0.558c0,0.077-0.013,0.15-0.035,0.222
		c-0.48,1.393-1.165,3.014-2.056,4.864c1.448-1.037,3.081-2.117,4.899-3.239c0.077-0.047,0.155-0.069,0.232-0.069
		c0.146,0,0.268,0.069,0.359,0.209c0.039,0.069,0.059,0.14,0.059,0.208c0,0.163-0.065,0.287-0.197,0.372
		c-2.393,1.479-4.458,2.875-6.199,4.19c-2.036,3.907-4.187,7.043-6.455,9.402c-0.89,0.898-1.566,1.472-2.032,1.72
		c-0.464,0.247-0.813,0.371-1.044,0.371C44.246,123.326,44.137,123.296,44.052,123.233z M46.2,120.088
		c1.408-1.456,2.74-3.189,3.994-5.201c-2.74,2.522-4.458,4.612-5.155,6.269C45.425,120.838,45.813,120.482,46.2,120.088z"/>
	<path fill="#FFFFFF" d="M72.099,114.875c-1.152-0.209-1.87-0.559-2.153-1.045c-0.282-0.488-0.423-0.901-0.423-1.242
		c0-1.587,1.509-3.494,4.525-5.724c1.417-1.015,2.868-2.027,4.354-3.042c2.306-1.578,3.459-2.414,3.459-2.508
		c0-0.029-0.619-0.123-1.857-0.277c-0.897-0.116-1.842-0.26-2.833-0.431c-2.366-0.395-3.769-0.956-4.201-1.684
		c-1.23,0.101-2.194,0.151-2.892,0.151c-0.44,0-0.824-0.027-1.148-0.081c-0.729-0.162-1.098-0.307-1.108-0.431
		s-0.018-0.192-0.018-0.209c0-0.224,0.333-0.353,0.997-0.383c0.944,0.008,1.434,0.034,1.464,0.081l0.047,0.058
		c0,0.07-0.426,0.133-1.277,0.187c0.333-0.008,1.339-0.063,3.02-0.162c0.302-0.023,0.546-0.038,0.73-0.046
		c0.008-0.171,0.039-0.345,0.093-0.522c0.209-0.805,1.22-1.745,3.03-2.82c2.739-1.518,5.738-2.65,8.996-3.401
		c1.486-0.31,2.693-0.464,3.622-0.464c0.55,0,1.002,0.054,1.357,0.162c0.773,0.231,1.161,0.613,1.161,1.148
		c0,0.116-0.02,0.239-0.058,0.371c-0.218,0.735-0.883,1.517-1.997,2.339c-1.114,0.825-2.551,1.522-4.307,2.097
		c-2.47,0.789-5.597,1.374-9.381,1.753c0.324,0.354,0.903,0.635,1.735,0.836c0.831,0.202,1.735,0.378,2.711,0.527
		c0.976,0.15,1.848,0.321,2.617,0.512c0.771,0.189,1.232,0.389,1.387,0.598c0.155,0.209,0.232,0.364,0.232,0.464
		c0,0.535-0.979,1.421-2.938,2.659c-0.781,0.495-1.574,0.976-2.38,1.439c-1.045,0.588-2.071,1.221-3.082,1.897
		s-1.964,1.473-2.86,2.385c-0.931,0.991-1.397,1.633-1.405,1.922c-0.008,0.29-0.012,0.439-0.012,0.446
		c0,0.938,0.866,1.405,2.601,1.405c1.169,0,2.484-0.217,3.947-0.649c1.091-0.325,2.09-0.748,2.995-1.267
		c2.939-1.663,5.839-4.12,8.694-7.371c0.085-0.101,0.192-0.151,0.324-0.151c0.093,0,0.188,0.039,0.279,0.116
		c0.093,0.078,0.139,0.184,0.139,0.313c0,0.102-0.034,0.193-0.104,0.277c-2.896,3.299-5.866,5.816-8.916,7.559
		c-1.748,0.982-3.272,1.618-4.573,1.903c-1.3,0.286-2.36,0.431-3.181,0.431C73.013,115.003,72.541,114.96,72.099,114.875z
		 M87.632,94.814c0.883-0.502,1.406-0.89,1.573-1.161c0.166-0.271,0.249-0.451,0.249-0.545c0-0.231-0.216-0.391-0.648-0.477
		c-0.147-0.03-0.325-0.046-0.534-0.046c-0.674,0-1.676,0.144-3.007,0.43c-3.089,0.712-5.922,1.78-8.498,3.203
		c-1.292,0.759-2.031,1.34-2.218,1.742C80.577,97.411,84.938,96.363,87.632,94.814z"/>
	<path fill="#FFFFFF" d="M88.456,111.683c0-0.588,0.093-1.304,0.278-2.146c0.449-1.835,1.252-3.825,2.409-5.975
		c1.156-2.146,2.425-4.037,3.802-5.67c0.976-1.114,1.895-1.938,2.757-2.468c0.863-0.529,1.554-0.795,2.072-0.795
		c0.542,0,0.813,0.283,0.813,0.848c0,0.836-0.662,2.159-1.984,3.97c-1.054,1.401-2.258,2.831-3.616,4.29s-2.583,2.604-3.675,3.432
		c-0.418,0.99-0.725,1.907-0.917,2.751c-0.146,0.658-0.222,1.199-0.222,1.625c0,0.295,0.035,0.534,0.104,0.72
		c0.171,0.418,0.453,0.627,0.848,0.627c0.457,0,1.019-0.2,1.685-0.604c0.596-0.356,1.188-0.782,1.775-1.277
		c1.369-1.176,2.76-2.519,4.167-4.028c0.085-0.085,0.183-0.127,0.29-0.127c0.116,0,0.217,0.04,0.304,0.122
		c0.084,0.081,0.131,0.176,0.139,0.284c0,0.116-0.039,0.22-0.116,0.313c-2.763,2.955-4.995,4.862-6.698,5.723
		c-0.882,0.44-1.69,0.662-2.426,0.662C89.053,113.958,88.456,113.199,88.456,111.683z M95.137,102.326
		c1.041-1.17,1.968-2.3,2.779-3.392c0.79-1.06,1.226-1.708,1.307-1.943c0.082-0.235,0.123-0.386,0.123-0.446
		c0-0.086-0.035-0.128-0.105-0.128c-0.231,0-0.716,0.328-1.45,0.985c-0.519,0.474-1.033,1.002-1.545,1.592
		c-1.578,1.873-2.956,4.009-4.132,6.407C93.088,104.52,94.096,103.494,95.137,102.326z"/>
	<path fill="#FFFFFF" d="M97.975,111.16c-0.434-0.226-0.649-0.589-0.649-1.093c0-0.758,0.554-1.778,1.659-3.063
		c1.021-1.13,2.141-2.077,3.354-2.844c0.798-0.473,1.437-0.708,1.916-0.708c0.14,0,0.264,0.019,0.371,0.058
		c0.41,0.146,0.615,0.441,0.615,0.883c0,0.734-0.499,1.548-1.498,2.438c-0.627,0.533-1.282,0.971-1.968,1.312
		s-1.282,0.511-1.793,0.511h-0.162c-0.364,0.505-0.546,0.887-0.546,1.149c0,0.063,0.012,0.12,0.034,0.174
		c0.124,0.265,0.312,0.397,0.563,0.401s0.4,0.005,0.447,0.005c0.41,0,0.843-0.054,1.3-0.162c0.526-0.116,0.96-0.244,1.3-0.383
		c0.906-0.349,1.749-0.772,2.531-1.271c0.781-0.499,1.416-0.997,1.904-1.491c0.085-0.084,0.182-0.128,0.29-0.128
		c0.114,0,0.216,0.044,0.302,0.128c0.085,0.086,0.127,0.187,0.127,0.303c0,0.107-0.038,0.208-0.115,0.301
		c-0.519,0.526-1.194,1.057-2.032,1.591c-0.835,0.534-1.732,0.991-2.692,1.37c-1.106,0.426-1.956,0.669-2.548,0.731
		c-0.593,0.062-1,0.093-1.226,0.093C98.857,111.462,98.362,111.361,97.975,111.16z M103.188,106.191
		c0.734-0.643,1.103-1.014,1.103-1.114c0-0.022-0.016-0.033-0.046-0.033c-0.116,0-0.384,0.129-0.802,0.388
		c-0.417,0.26-0.893,0.6-1.422,1.021c-0.53,0.423-1.017,0.864-1.457,1.328C101.354,107.55,102.228,107.02,103.188,106.191z"/>
	<path fill="#FFFFFF" d="M112.092,110.835c-0.101-0.388-0.154-0.82-0.162-1.3c0.008-1.122,0.097-2.18,0.268-3.171
		c-0.674,0.542-1.424,1.23-2.253,2.067c-0.224,0.231-0.468,0.506-0.731,0.824c-0.263,0.315-0.526,0.614-0.795,0.894
		c-0.267,0.278-0.515,0.479-0.743,0.599c-0.228,0.12-0.411,0.18-0.551,0.18c-0.44,0-0.662-0.363-0.662-1.091
		c0-0.265,0.112-0.654,0.337-1.173l2.24-5.179c0.155-0.348,0.41-0.521,0.768-0.521c0.115,0,0.231,0.021,0.348,0.069
		c0.341,0.161,0.512,0.422,0.512,0.776c0,0.108-0.022,0.221-0.069,0.337l-1.812,4.227l0.557-0.546h0.013
		c0.921-0.938,1.684-1.638,2.287-2.102c0.627-0.573,1.148-0.858,1.566-0.858c0.232,0,0.431,0.135,0.592,0.405
		c0.108,0.187,0.163,0.422,0.163,0.708c0,0.141-0.016,0.298-0.047,0.478c-0.192,1.105-0.29,2.064-0.29,2.879
		c0,0.315,0.013,0.576,0.035,0.776c0.03,0.333,0.15,0.499,0.359,0.499c0.362,0,0.968-0.468,1.811-1.403
		c0.743-0.82,1.332-1.544,1.766-2.171c0.094-0.124,0.213-0.187,0.359-0.187c0.085,0,0.17,0.03,0.255,0.093s0.135,0.126,0.146,0.191
		s0.018,0.11,0.018,0.133c0,0.094-0.022,0.18-0.069,0.256c-0.201,0.287-0.544,0.712-1.027,1.277
		c-0.483,0.564-1.026,1.13-1.631,1.694s-1.112,0.952-1.526,1.161s-0.732,0.313-0.957,0.313
		C112.641,111.973,112.285,111.594,112.092,110.835z"/>
	<path fill="#FFFFFF" d="M116.248,110.685c-0.349-0.086-0.521-0.379-0.521-0.883c0-0.674,0.263-1.334,0.789-1.985
		c0.959-1.184,2.79-2.016,5.49-2.495h0.034c0.102,0,0.197,0.036,0.291,0.109c0.093,0.074,0.14,0.173,0.14,0.297
		c0,0.264-0.128,0.41-0.384,0.44c-0.465,0.068-1.069,0.305-1.816,0.702c-0.746,0.398-1.394,0.833-1.938,1.301
		s-0.817,0.865-0.817,1.188c0,0.155,0.065,0.232,0.196,0.232c0.226,0,0.67-0.274,1.335-0.824c0.729-0.588,1.339-1.13,1.834-1.625
		c0.442-0.449,0.824-0.674,1.15-0.674c0.216,0,0.324,0.082,0.324,0.244c0,0.107-0.05,0.248-0.15,0.418
		c-0.101,0.171-0.168,0.36-0.203,0.568c-0.035,0.209-0.053,0.395-0.053,0.558c0,0.101,0.008,0.205,0.023,0.313
		c0.054,0.41,0.141,0.627,0.262,0.65c0.119,0.022,0.198,0.035,0.237,0.035c0.285,0,0.73-0.256,1.335-0.768
		c0.409-0.341,0.99-0.75,1.74-1.229c0.441-0.271,0.807-0.406,1.093-0.406c0.115,0,0.217,0.04,0.302,0.122
		c0.085,0.081,0.128,0.185,0.128,0.307c0,0.116-0.043,0.219-0.128,0.303c-0.085,0.086-0.187,0.128-0.302,0.128
		c-0.218,0-0.849,0.375-1.894,1.126l-0.186,0.14c-1.037,0.774-1.809,1.161-2.312,1.161c-0.131,0-0.259-0.02-0.383-0.058
		c-0.387-0.116-0.635-0.589-0.743-1.417c-0.008-0.123-0.012-0.251-0.012-0.384v-0.196c-0.239,0.23-0.669,0.58-1.288,1.044
		c-1.401,1.062-2.48,1.591-3.239,1.591C116.468,110.719,116.356,110.707,116.248,110.685z"/>
	<path fill="#FFFFFF" d="M148.463,115.757c-0.187-0.131-0.303-0.317-0.349-0.557c-0.194-0.944-1.323-1.416-3.391-1.416
		c-0.742,0-1.481,0.029-2.218,0.093c-1.191,0.107-2.359,0.234-3.506,0.383c-1.54,0.217-2.738,0.325-3.599,0.325
		c-0.108,0-0.219-0.005-0.331-0.013s-0.203-0.053-0.272-0.134s-0.104-0.173-0.104-0.271c0-0.132,0.044-0.236,0.133-0.314
		c0.089-0.076,0.188-0.115,0.297-0.115h0.034c0.132,0.009,0.271,0.013,0.418,0.013c0.875,0,2.368-0.236,4.481-0.708
		c1.113-0.248,2.229-0.465,3.343-0.65c1.494-4.326,3.352-8.233,5.572-11.726c1.779-2.802,3.967-5.511,6.56-8.126
		c-2.856,0.055-5.321,0.345-7.396,0.871c-2.956,0.759-4.977,2.295-6.061,4.607c0.178-0.101,0.311-0.149,0.396-0.149
		c0.063,0,0.093,0.033,0.093,0.104c0,0.216-0.325,0.646-0.976,1.289l-0.047,0.057c-0.077,0.063-0.158,0.095-0.243,0.095
		c-0.063,0-0.111-0.009-0.15-0.023c-0.201-0.054-0.302-0.186-0.302-0.395c0-0.046,0.004-0.09,0.012-0.128
		c0.503-1.603,1.333-2.956,2.49-4.063c1.155-1.106,2.493-1.974,4.011-2.601c2.004-0.835,4.117-1.253,6.339-1.253
		c1.045,0,2.186,0.076,3.424,0.23l0.035,0.013c2.693,0.341,4.833,0.982,6.42,1.928c0.139,0.085,0.209,0.2,0.209,0.348
		c0,0.077-0.027,0.161-0.082,0.25c-0.054,0.089-0.117,0.142-0.19,0.156c-0.073,0.017-0.125,0.022-0.156,0.022
		c-0.077,0-0.151-0.02-0.221-0.058c-1.395-0.805-3.519-1.235-6.373-1.289c-1.882,2.104-4.006,5.069-6.374,8.893
		c-2.508,4.049-4.48,7.654-5.92,10.819c0.426-0.054,0.832-0.081,1.219-0.081c0.852,0,1.608,0.124,2.274,0.371
		c0.977,0.356,1.582,1.143,1.822,2.356l0.012,0.162c0,0.171-0.05,0.329-0.149,0.477c-0.171,0.24-0.402,0.36-0.697,0.36
		C148.771,115.908,148.609,115.857,148.463,115.757z"/>
	<path fill="#FFFFFF" d="M152.63,112.379c-0.448-0.154-0.678-0.541-0.686-1.161c0-0.813,0.372-2.491,1.115-5.038
		c0.362-1.253,0.546-2.009,0.546-2.264c0-0.146-0.018-0.288-0.047-0.424c-0.031-0.136-0.047-0.249-0.047-0.344
		c0-0.062,0.01-0.119,0.028-0.174c0.02-0.054,0.071-0.081,0.156-0.081c0.078,0,0.183,0.023,0.313,0.07
		c0.395,0.162,0.635,0.482,0.72,0.963c0.039,0.225,0.059,0.465,0.059,0.72c0,0.806-0.235,1.993-0.708,3.563
		c-0.24,0.852-0.359,1.382-0.359,1.591c0,0.124,0.026,0.186,0.082,0.186c0.161,0,0.665-0.592,1.509-1.775
		c0.472-0.644,0.973-1.292,1.503-1.949c0.53-0.658,1.031-1.169,1.504-1.532c0.255-0.193,0.476-0.291,0.661-0.291
		c0.248,0,0.563,0.217,0.952,0.65c0.2,0.225,0.482,0.472,0.848,0.743c0.897,0.681,2.275,1.021,4.132,1.021
		c0.117,0,0.215,0.04,0.297,0.122c0.081,0.081,0.122,0.185,0.122,0.307c0,0.116-0.041,0.219-0.122,0.303
		c-0.082,0.086-0.18,0.128-0.297,0.128c-1.624,0-2.921-0.247-3.888-0.742c-0.644-0.318-1.208-0.743-1.695-1.277
		c-0.192-0.217-0.329-0.324-0.406-0.324c-0.039,0-0.073,0.012-0.104,0.034c-0.255,0.201-0.501,0.497-0.737,0.889
		c-0.235,0.391-0.479,0.838-0.726,1.341c-0.333,0.666-0.718,1.349-1.155,2.049c-0.438,0.701-0.981,1.329-1.637,1.887
		c-0.654,0.558-1.221,0.836-1.7,0.836C152.784,112.402,152.707,112.395,152.63,112.379z"/>
	<path fill="#FFFFFF" d="M164.97,112.229c-0.295-0.295-0.441-0.682-0.441-1.161c0-0.563,0.112-1.161,0.337-1.788
		c0.201-0.549,0.398-1.006,0.592-1.369c-0.681-0.627-1.021-1.246-1.021-1.857c0-0.673,0.283-1.284,0.848-1.833
		c0.526-0.512,1.186-0.887,1.974-1.127c0.665-0.193,1.258-0.29,1.776-0.29c0.526,0,0.971,0.104,1.335,0.313
		c0.711,0.418,1.087,0.87,1.126,1.357c0.038,0.487,0.059,0.781,0.059,0.882c0,1.091-0.423,2.219-1.266,3.378
		c1.896-0.054,3.835-0.656,5.815-1.811c0.077-0.047,0.155-0.069,0.231-0.069c0.146,0,0.268,0.069,0.359,0.209
		c0.039,0.069,0.059,0.144,0.059,0.221c0,0.154-0.069,0.274-0.209,0.359c-2.229,1.301-4.368,1.95-6.42,1.95
		c-0.14,0-0.298-0.008-0.476-0.022c-0.644,0.759-1.378,1.45-2.206,2.077c-0.72,0.542-1.323,0.813-1.812,0.813
		C165.384,112.46,165.163,112.384,164.97,112.229z M168.046,104.636c-0.657,0.162-1.152,0.395-1.485,0.697
		c-0.302,0.271-0.452,0.584-0.452,0.938c0,0.141,0.02,0.287,0.058,0.441C166.699,105.94,167.326,105.248,168.046,104.636z
		 M167.46,110.458c0.431-0.329,0.833-0.684,1.213-1.063c-0.571-0.131-1.152-0.325-1.74-0.581c-0.069,0.141-0.17,0.368-0.303,0.687
		c-0.231,0.534-0.349,0.913-0.349,1.138c0,0.209,0.078,0.313,0.232,0.313C166.715,110.951,167.03,110.787,167.46,110.458z
		 M170.055,107.538c0.395-0.721,0.592-1.319,0.592-1.801c0-0.665-0.337-1.066-1.011-1.207c-0.682,0.666-1.446,1.823-2.299,3.473
		c0.588,0.332,1.238,0.557,1.95,0.673C169.574,108.304,169.83,107.925,170.055,107.538z"/>
	<path fill="#FFFFFF" d="M180.77,110.835c-0.102-0.388-0.155-0.82-0.163-1.3c0.008-1.122,0.098-2.18,0.268-3.171
		c-0.673,0.542-1.424,1.23-2.252,2.067c-0.225,0.231-0.469,0.506-0.73,0.824c-0.264,0.315-0.528,0.614-0.795,0.894
		c-0.269,0.278-0.517,0.479-0.743,0.599c-0.229,0.12-0.412,0.18-0.552,0.18c-0.441,0-0.662-0.363-0.662-1.091
		c0-0.265,0.112-0.654,0.338-1.173l2.24-5.179c0.153-0.348,0.408-0.521,0.766-0.521c0.116,0,0.231,0.021,0.349,0.069
		c0.34,0.161,0.512,0.422,0.512,0.776c0,0.108-0.023,0.221-0.07,0.337l-1.812,4.227l0.558-0.546h0.013
		c0.92-0.938,1.683-1.638,2.286-2.102c0.627-0.573,1.149-0.858,1.568-0.858c0.229,0,0.429,0.135,0.592,0.405
		c0.107,0.187,0.162,0.422,0.162,0.708c0,0.141-0.017,0.298-0.046,0.478c-0.194,1.105-0.291,2.064-0.291,2.879
		c0,0.315,0.012,0.576,0.034,0.776c0.03,0.333,0.15,0.499,0.359,0.499c0.364,0,0.968-0.468,1.811-1.403
		c0.744-0.82,1.332-1.544,1.767-2.171c0.092-0.124,0.213-0.187,0.358-0.187c0.086,0,0.171,0.03,0.257,0.093
		c0.085,0.063,0.133,0.126,0.145,0.191s0.019,0.11,0.019,0.133c0,0.094-0.023,0.18-0.069,0.256
		c-0.202,0.287-0.544,0.712-1.027,1.277c-0.483,0.564-1.026,1.13-1.631,1.694c-0.604,0.564-1.113,0.952-1.527,1.161
		c-0.413,0.209-0.732,0.313-0.958,0.313C181.318,111.973,180.963,111.594,180.77,110.835z"/>
	<path fill="#FFFFFF" d="M186.714,111.428c-0.642-0.047-1.014-0.252-1.113-0.616c-0.102-0.362-0.151-0.657-0.151-0.882
		c0-0.395,0.086-0.84,0.255-1.335c0.21-0.611,0.533-1.229,0.97-1.852c0.438-0.623,0.975-1.194,1.608-1.714
		c0.225-0.17,0.422-0.255,0.592-0.255c0.063,0,0.12,0.013,0.174,0.035c0.218,0.076,0.333,0.178,0.35,0.301
		c0.016,0.124,0.022,0.197,0.022,0.223c0,0.208-0.132,0.425-0.395,0.648c-0.35,0.325-0.705,0.836-1.068,1.532
		c-0.525,1.007-0.789,1.737-0.789,2.194c0,0.256,0.088,0.426,0.268,0.511c0.054,0.023,0.12,0.035,0.196,0.035
		c0.303,0,0.763-0.183,1.383-0.546c0.882-0.503,1.941-1.408,3.181-2.717c0.093-0.094,0.201-0.14,0.325-0.14
		c0.101,0,0.192,0.04,0.277,0.122c0.085,0.081,0.128,0.152,0.128,0.214v0.093c0,0.109-0.038,0.205-0.115,0.291
		c-1.292,1.37-2.414,2.325-3.367,2.867c-1.122,0.657-1.996,0.987-2.623,0.987h-0.106V111.428z M191.265,102.859
		c0.085-0.107,0.128-0.221,0.128-0.336c0-0.193-0.074-0.316-0.223-0.372c-0.106-0.046-0.191-0.068-0.255-0.068
		c-0.132,0-0.286,0.042-0.464,0.128c-0.465,0.23-0.697,0.387-0.697,0.464c0,0.039,0.056,0.059,0.163,0.059
		c0.102,0,0.236-0.016,0.406-0.047c-0.534,0.743-0.801,1.229-0.801,1.451c0.007,0.093,0.05,0.14,0.128,0.14
		C189.875,104.276,190.413,103.805,191.265,102.859z"/>
	<path fill="#FFFFFF" d="M196.964,110.835c-0.101-0.388-0.153-0.82-0.161-1.3c0.008-1.122,0.097-2.18,0.267-3.171
		c-0.673,0.542-1.424,1.23-2.252,2.067c-0.226,0.231-0.469,0.506-0.731,0.824c-0.263,0.315-0.526,0.614-0.795,0.894
		c-0.268,0.278-0.515,0.479-0.743,0.599c-0.228,0.12-0.41,0.18-0.552,0.18c-0.439,0-0.661-0.363-0.661-1.091
		c0-0.265,0.112-0.654,0.337-1.173l2.24-5.179c0.154-0.348,0.41-0.521,0.767-0.521c0.115,0,0.231,0.021,0.349,0.069
		c0.341,0.161,0.511,0.422,0.511,0.776c0,0.108-0.022,0.221-0.068,0.337l-1.813,4.227l0.558-0.546h0.013
		c0.921-0.938,1.683-1.638,2.287-2.102c0.627-0.573,1.148-0.858,1.566-0.858c0.231,0,0.43,0.135,0.592,0.405
		c0.108,0.187,0.162,0.422,0.162,0.708c0,0.141-0.015,0.298-0.046,0.478c-0.192,1.105-0.291,2.064-0.291,2.879
		c0,0.315,0.013,0.576,0.035,0.776c0.031,0.333,0.151,0.499,0.36,0.499c0.362,0,0.967-0.468,1.811-1.403
		c0.743-0.82,1.331-1.544,1.766-2.171c0.093-0.124,0.213-0.187,0.358-0.187c0.086,0,0.171,0.03,0.256,0.093s0.135,0.126,0.146,0.191
		c0.013,0.065,0.019,0.11,0.019,0.133c0,0.094-0.022,0.18-0.069,0.256c-0.201,0.287-0.543,0.712-1.027,1.277
		c-0.483,0.564-1.027,1.13-1.631,1.694c-0.604,0.564-1.112,0.952-1.526,1.161c-0.415,0.209-0.732,0.313-0.958,0.313
		C197.514,111.973,197.158,111.594,196.964,110.835z"/>
	<path fill="#FFFFFF" d="M201.119,110.685c-0.348-0.086-0.521-0.379-0.521-0.883c0-0.674,0.264-1.334,0.789-1.985
		c0.96-1.184,2.79-2.016,5.49-2.495h0.035c0.102,0,0.197,0.036,0.29,0.109c0.093,0.074,0.14,0.173,0.14,0.297
		c0,0.264-0.128,0.41-0.384,0.44c-0.464,0.068-1.068,0.305-1.815,0.702c-0.747,0.398-1.395,0.833-1.939,1.301
		s-0.816,0.865-0.816,1.188c0,0.155,0.064,0.232,0.196,0.232c0.226,0,0.669-0.274,1.335-0.824c0.729-0.588,1.339-1.13,1.834-1.625
		c0.441-0.449,0.824-0.674,1.149-0.674c0.216,0,0.325,0.082,0.325,0.244c0,0.107-0.051,0.248-0.151,0.418
		c-0.101,0.171-0.169,0.36-0.203,0.568c-0.034,0.209-0.053,0.395-0.053,0.558c0,0.101,0.008,0.205,0.023,0.313
		c0.055,0.41,0.142,0.627,0.262,0.65c0.12,0.022,0.199,0.035,0.238,0.035c0.284,0,0.729-0.256,1.334-0.768
		c0.409-0.341,0.99-0.75,1.741-1.229c0.44-0.271,0.806-0.406,1.092-0.406c0.115,0,0.217,0.04,0.302,0.122
		c0.086,0.081,0.128,0.185,0.128,0.307c0,0.116-0.042,0.219-0.128,0.303c-0.085,0.086-0.187,0.128-0.302,0.128
		c-0.218,0-0.849,0.375-1.894,1.126l-0.185,0.14c-1.038,0.774-1.809,1.161-2.312,1.161c-0.132,0-0.26-0.02-0.384-0.058
		c-0.387-0.116-0.635-0.589-0.743-1.417c-0.008-0.123-0.011-0.251-0.011-0.384v-0.196c-0.24,0.23-0.67,0.58-1.289,1.044
		c-1.4,1.062-2.48,1.591-3.238,1.591C201.341,110.719,201.229,110.707,201.119,110.685z"/>
</g>
<g>
	<path fill="#FFFFFF" stroke="#FFFFFF" stroke-width="0.5" stroke-miterlimit="10" d="M15.951,53.396v7.419H15.58l-2.597-7.048
		H6.306v11.87h5.192v-3.339h0.371v7.048h-0.371v-3.339H6.306V78.99h7.048l2.597-7.048h0.371v7.419H0V78.99h2.227V53.768H0v-0.371
		L15.951,53.396L15.951,53.396z"/>
	<path fill="#FFFFFF" stroke="#FFFFFF" stroke-width="0.5" stroke-miterlimit="10" d="M42.285,53.768h-2.968L30.6,79.363h-0.742
		L20.77,53.768h-2.227v-0.371h8.902v0.371H25.22l7.048,19.66l6.677-19.66h-2.968v-0.371h6.306v0.371H42.285z"/>
	<path fill="#FFFFFF" stroke="#FFFFFF" stroke-width="0.5" stroke-miterlimit="10" d="M60.831,78.991v0.37h-8.902v-0.37h2.226
		l-2.411-6.678h-9.051l-2.263,6.678h2.967v0.37H37.09v-0.37h2.968l8.717-25.596h0.742l9.088,25.596H60.831z M51.557,71.943
		l-4.451-12.611L42.84,71.943H51.557z"/>
	<path fill="#FFFFFF" stroke="#FFFFFF" stroke-width="0.5" stroke-miterlimit="10" d="M79.746,71.943v7.419H63.054v-0.37h2.226
		V53.768h-2.226v-0.371h8.53v0.371h-2.226v25.225h7.419l2.597-7.049L79.746,71.943L79.746,71.943z"/>
	<path fill="#FFFFFF" stroke="#FFFFFF" stroke-width="0.5" stroke-miterlimit="10" d="M83.453,53.768v-0.371h8.531v0.371h-2.227
		v25.225h2.227v0.37h-8.531v-0.37h2.227V53.768H83.453z"/>
	<path fill="#FFFFFF" stroke="#FFFFFF" stroke-width="0.5" stroke-miterlimit="10" d="M109.788,74.911
		c0-7.419-13.354-5.937-13.354-15.209c0-3.709,3.339-7.049,8.161-7.049c4.079,0,7.048,2.969,7.048,4.822
		c0,1.483-1.113,2.597-2.598,2.597c-1.483,0-2.597-1.112-2.597-2.597c0-1.483,1.112-2.597,2.597-2.597
		c0.371,0,0.928,0.186,0.928,0.186s-2.04-2.04-5.378-2.04c-3.34,0-5.564,2.227-5.564,4.451c0,7.419,13.354,5.936,13.354,15.209
		c0,4.08-3.339,7.419-8.531,7.419c-5.564,0-8.531-5.008-8.531-5.008v-0.52c0.147,0.223,3.078,5.155,8.531,5.155
		C107.563,79.733,109.788,77.508,109.788,74.911z"/>
	<path fill="#FFFFFF" stroke="#FFFFFF" stroke-width="0.5" stroke-miterlimit="10" d="M131.671,79.362h-8.901v-0.37h2.226V53.768
		h-2.226v-0.371h7.048c6.677,0,9.272,2.598,9.272,5.563c0,4.822-5.935,5.192-5.935,5.192v0.187c0,0,8.531,0.186,8.531,7.419
		C141.687,76.023,138.348,79.362,131.671,79.362z M129.074,53.768v10.386h0.742c2.968,0,4.858-0.557,4.822-0.557v-9.272
		c0,0-1.854-0.557-4.822-0.557H129.074z M137.235,77.879V65.638c0,0-2.227-1.113-5.564-1.113h-2.597v14.468h2.597
		C135.01,78.991,137.235,77.879,137.235,77.879z"/>
	<path fill="#FFFFFF" stroke="#FFFFFF" stroke-width="0.5" stroke-miterlimit="10" d="M161.343,53.396v7.419h-0.369l-2.598-7.048
		h-6.678v11.87h5.193v-3.339h0.371v7.048h-0.371v-3.339h-5.193V78.99h7.048l2.598-7.048h0.37v7.419h-16.32V78.99h2.226V53.768
		h-2.226v-0.371L161.343,53.396L161.343,53.396z"/>
	<path fill="#FFFFFF" stroke="#FFFFFF" stroke-width="0.5" stroke-miterlimit="10" d="M186.936,78.991v0.37h-8.902v-0.37h2.226
		l-2.41-6.678h-9.052l-2.263,6.678h2.968v0.37h-6.307v-0.37h2.968l8.717-25.596h0.742l9.088,25.596H186.936z M177.662,71.943
		l-4.451-12.611l-4.266,12.611H177.662z"/>
	<path fill="#FFFFFF" stroke="#FFFFFF" stroke-width="0.5" stroke-miterlimit="10" d="M197.878,80.104
		c-5.008,0-8.718-3.71-8.718-9.645V53.768h-2.226v-0.371h8.531v0.371h-2.226v24.667c0,0,1.854,1.299,4.637,1.299
		c4.822,0,8.347-3.523,8.347-9.272V57.514c-0.037,0.074-0.816,1.446-2.598,1.446c-1.669,0-2.968-1.298-2.968-2.967
		c0-1.671,1.299-2.969,2.968-2.969s2.969,1.298,2.969,2.969V70.46C206.595,76.395,202.885,80.104,197.878,80.104z"/>
	<path fill="#FFFFFF" stroke="#FFFFFF" stroke-width="0.5" stroke-miterlimit="10" d="M229.59,60.815h-0.369l-2.598-7.048h-4.451
		v25.225h2.227v0.37h-8.532v-0.37h2.226V53.768h-4.45l-2.598,7.048h-0.371v-7.419h18.918L229.59,60.815L229.59,60.815z"/>
	<path fill="#FFFFFF" stroke="#FFFFFF" stroke-width="0.5" stroke-miterlimit="10" d="M244.425,78.991h2.227v0.37h-8.531v-0.37
		h2.227V67.863l-7.049-14.096h-2.226v-0.371h8.902v0.371h-2.227l6.677,13.354l6.679-13.354h-2.969v-0.371h6.307v0.371h-2.968
		l-7.049,14.096V78.991L244.425,78.991z"/>
</g>
</svg>
