<?xml version="1.0" encoding="utf-8"?>
<!-- Generator: Adobe Illustrator 16.0.0, SVG Export Plug-In . SVG Version: 6.00 Build 0)  -->
<!DOCTYPE svg PUBLIC "-//W3C//DTD SVG 1.1//EN" "http://www.w3.org/Graphics/SVG/1.1/DTD/svg11.dtd">
<svg version="1.1" id="Layer_1" xmlns="http://www.w3.org/2000/svg" xmlns:xlink="http://www.w3.org/1999/xlink" x="0px" y="0px"
	 width="254.441px" height="156.26px" viewBox="0 0 254.441 156.26" enable-background="new 0 0 254.441 156.26"
	 xml:space="preserve">
<g id="XMLID_73_" opacity="0.29">
	<g id="XMLID_74_">
		<path id="XMLID_106_" fill-rule="evenodd" clip-rule="evenodd" fill="#BEB1A3" d="M125.171,156.26l-1.891-2.136
			c-8.043-9.079-12.871-21.915-13.396-35.454c-0.052-1.394,1.037-2.571,2.434-2.625c1.396-0.055,2.571,1.036,2.628,2.43
			c0.422,10.961,3.897,21.266,9.563,29.095l0.671,0.885l1.451-1.992c3.138-4.615,5.625-10.148,7.163-16.436
			c0.898-3.658,1.42-7.356,1.595-11.022c0.064-1.396,1.253-2.471,2.649-2.406c1.395,0.066,2.475,1.252,2.407,2.648
			c-0.189,3.982-0.756,8.001-1.73,11.983c-2.232,9.12-6.33,16.919-11.649,22.899L125.171,156.26L125.171,156.26z M109.885,37.588
			c0.524-13.537,5.353-26.375,13.396-35.451L125.171,0l1.896,2.131c5.319,5.98,9.417,13.779,11.649,22.896
			c0.975,3.983,1.541,8.004,1.73,11.987c0.067,1.396-1.013,2.582-2.407,2.648c-1.396,0.066-2.585-1.013-2.649-2.41
			c-0.175-3.667-0.696-7.361-1.595-11.022c-1.538-6.284-4.025-11.817-7.163-16.43l-1.451-1.993L124.51,8.69
			c-5.666,7.829-9.142,18.134-9.563,29.096c-0.057,1.394-1.231,2.483-2.628,2.429C110.922,40.159,109.833,38.984,109.885,37.588
			L109.885,37.588z"/>
		<path id="XMLID_103_" fill-rule="evenodd" clip-rule="evenodd" fill="#BEB1A3" d="M152.646,111.646
			c-1.237-0.65-1.711-2.184-1.06-3.42c0.65-1.236,2.184-1.71,3.418-1.06c9.707,5.114,20.376,7.259,29.99,6.269l1.102-0.139
			l-1.001-2.252c-2.431-5.024-5.978-9.945-10.653-14.422c-2.724-2.603-5.666-4.905-8.756-6.888
			c-1.178-0.757-1.515-2.322-0.762-3.497c0.754-1.178,2.323-1.518,3.498-0.762c3.354,2.157,6.555,4.657,9.518,7.49
			c6.782,6.492,11.494,13.938,14.013,21.533l0.9,2.708l-2.796,0.57C178.169,120.199,164.635,117.963,152.646,111.646
			L152.646,111.646z M82.401,71.105c-11.466-7.225-20.175-17.82-24.018-29.324l-0.906-2.705l2.793-0.576
			c7.845-1.614,16.646-1.262,25.662,1.365c3.94,1.147,7.706,2.667,11.247,4.495c1.245,0.643,1.734,2.168,1.094,3.409
			c-0.644,1.242-2.168,1.73-3.411,1.088c-3.264-1.682-6.729-3.078-10.348-4.132c-6.214-1.81-12.251-2.425-17.819-2.016l-2.448,0.265
			l0.424,1.021c3.953,8.819,11.146,16.98,20.428,22.824c1.184,0.748,1.536,2.312,0.795,3.492
			C85.148,71.494,83.585,71.849,82.401,71.105L82.401,71.105z"/>
		<path id="XMLID_100_" fill-rule="evenodd" clip-rule="evenodd" fill="#BEB1A3" d="M164.442,70.312
			c-0.744-1.181-0.392-2.744,0.792-3.492c9.282-5.844,16.477-14.005,20.425-22.824l0.427-1.023l-2.448-0.262
			c-5.569-0.409-11.605,0.203-17.82,2.013c-3.616,1.055-7.083,2.453-10.347,4.135c-1.243,0.64-2.771,0.151-3.411-1.088
			c-0.638-1.244-0.151-2.769,1.091-3.412c3.547-1.826,7.313-3.345,11.25-4.492c9.016-2.627,17.82-2.979,25.662-1.365l2.794,0.576
			l-0.903,2.705c-3.843,11.504-12.552,22.1-24.019,29.324C166.752,71.849,165.188,71.494,164.442,70.312L164.442,70.312z
			 M60.279,117.777l-2.796-0.57l0.898-2.708c2.521-7.595,7.23-15.041,14.013-21.533c2.963-2.833,6.163-5.335,9.517-7.49
			c1.179-0.756,2.745-0.416,3.501,0.762c0.754,1.175,0.412,2.74-0.762,3.497c-3.092,1.982-6.034,4.285-8.755,6.888
			c-4.676,4.477-8.226,9.397-10.653,14.422l-1.004,2.252l1.102,0.139c9.614,0.99,20.283-1.157,29.99-6.269
			c1.237-0.65,2.771-0.177,3.421,1.06c0.651,1.236,0.178,2.767-1.06,3.417C85.699,117.96,72.167,120.199,60.279,117.777
			L60.279,117.777z"/>
		<path id="XMLID_97_" fill-rule="evenodd" clip-rule="evenodd" fill="#BEB1A3" d="M151.638,88.461
			c-3.372-0.979-7.531-2.951-10.25-4.798c6.603-6.744,14.34-9.747,23.439-8.253c1.377,0.18,2.717,0.479,4.036,0.907
			c0.414,0.134,0.828,0.291,1.229,0.458c0.203,0.082,0.401,0.19,0.609,0.257c-0.532,0.11-1.181,0.159-1.73,0.234
			c-0.947,0.123-1.911,0.323-2.855,0.501c-3.213,0.612-6.445,1.471-9.527,2.571c-1.057,0.378-2.053,0.825-3.076,1.28
			c-0.769,0.345-1.618,0.797-2.461,1.319c0.65,0.244,1.316,0.465,2.001,0.663c9.063,2.636,18.488,0.527,25.181-4.757l0.841-0.717
			l-0.643-0.559c-2.67-2.157-5.859-3.856-9.476-4.911c-11.245-3.139-21.284,0.524-29.247,8.004h-9.617
			c0.707-1.378,0.835-3.044,0.216-4.594c-0.064-0.162-0.137-0.316-0.214-0.469h8.09c8.035-7.859,20.401-11.223,32.188-7.801
			c5.682,1.653,10.527,4.686,14.229,8.596l1.648,1.743l-1.651,1.738C176.598,88.299,163.807,91.999,151.638,88.461L151.638,88.461z
			 M79.963,88.461c-5.682-1.653-10.527-4.685-14.23-8.596l-1.646-1.74l1.651-1.74c8.001-8.421,20.79-12.124,32.961-8.586
			c3.37,0.979,7.529,2.952,10.248,4.798c-6.601,6.744-14.34,9.747-23.439,8.254c-1.377-0.181-2.717-0.479-4.036-0.905
			c-0.412-0.136-0.828-0.296-1.229-0.46c-0.203-0.082-0.401-0.188-0.609-0.258c0.535-0.107,1.178-0.159,1.729-0.23
			c0.949-0.126,1.916-0.324,2.857-0.505c3.213-0.611,6.445-1.471,9.524-2.571c1.06-0.375,2.055-0.824,3.079-1.28
			c0.771-0.344,1.62-0.797,2.461-1.318c-0.65-0.244-1.316-0.463-1.998-0.664c-9.066-2.635-18.491-0.526-25.184,4.757l-0.844,0.718
			l0.646,0.558c2.67,2.157,5.859,3.856,9.476,4.911c14.137,3.7,22.563-1.474,29.186-8.002h9.679
			c-0.704,1.379-0.836,3.042-0.213,4.59c0.064,0.165,0.136,0.319,0.213,0.473h-8.091C104.118,88.522,91.749,91.889,79.963,88.461
			L79.963,88.461z"/>
		<path id="XMLID_94_" fill-rule="evenodd" clip-rule="evenodd" fill="#BEB1A3" d="M94.619,131.006l-0.679-2.299
			c-3.295-11.138-0.11-24.061,9.043-32.828c2.534-2.427,6.32-5.044,9.278-6.472c2.544,9.087,1.278,17.289-4.568,24.419
			c-0.847,1.098-1.772,2.11-2.804,3.041c-0.324,0.288-0.669,0.565-1.011,0.833c-0.175,0.137-0.362,0.252-0.527,0.398
			c0.172-0.517,0.45-1.101,0.664-1.612c0.362-0.887,0.676-1.817,0.989-2.723c1.078-3.09,1.95-6.317,2.539-9.533
			c0.201-1.106,0.312-2.188,0.427-3.305c0.088-0.838,0.119-1.802,0.088-2.792c-0.535,0.442-1.06,0.91-1.571,1.398
			c-6.819,6.533-9.702,15.743-8.473,24.18l0.2,1.087l0.805-0.277c3.206-1.231,6.271-3.142,8.992-5.749
			c10.276-10.388,10.009-20.266,7.66-29.263l4.841-8.379c0.975,1.517,2.629,2.442,4.386,2.527l-4.047,7.007
			c2.792,10.883-0.473,23.271-9.336,31.761c-4.272,4.094-9.321,6.775-14.563,8.025L94.619,131.006L94.619,131.006z M125.438,72.602
			l4.043-7.006c-2.791-10.887,0.477-23.271,9.337-31.762c4.274-4.093,9.321-6.775,14.563-8.025l2.333-0.552l0.679,2.296
			c3.295,11.138,0.11,24.061-9.041,32.826c-2.533,2.43-6.322,5.044-9.28,6.477c-2.541-9.089-1.278-17.289,4.568-24.418
			c0.844-1.103,1.772-2.113,2.801-3.042c0.327-0.291,0.672-0.571,1.014-0.836c0.172-0.134,0.362-0.251,0.527-0.398
			c-0.173,0.516-0.45,1.1-0.664,1.612c-0.365,0.887-0.676,1.818-0.99,2.726c-1.075,3.085-1.949,6.317-2.536,9.531
			c-0.203,1.105-0.311,2.19-0.427,3.304c-0.088,0.838-0.121,1.8-0.09,2.79c0.537-0.439,1.06-0.908,1.571-1.399
			c6.821-6.53,9.702-15.74,8.473-24.176l-0.198-1.087l-0.808,0.28c-3.202,1.229-6.271,3.142-8.992,5.746
			c-8.341,8.167-10.19,18.685-7.69,29.319l-4.808,8.325C128.847,73.612,127.195,72.689,125.438,72.602L125.438,72.602z"/>
		<path id="XMLID_91_" fill-rule="evenodd" clip-rule="evenodd" fill="#BEB1A3" d="M155.702,131.014l-2.331-0.563
			c-11.297-2.713-20.9-11.936-23.92-24.241c-0.836-3.406-1.209-7.994-0.968-11.27c9.145,2.345,15.615,7.539,18.869,16.165
			c0.535,1.28,0.944,2.589,1.235,3.946c0.09,0.425,0.159,0.862,0.218,1.294c0.028,0.216,0.036,0.439,0.077,0.655
			c-0.36-0.406-0.726-0.94-1.062-1.381c-0.585-0.758-1.237-1.493-1.865-2.219c-2.135-2.476-4.496-4.847-6.988-6.963
			c-0.859-0.725-1.741-1.362-2.652-2.023c-0.684-0.496-1.499-1.003-2.371-1.471c0.113,0.684,0.257,1.37,0.425,2.06
			c2.25,9.169,8.788,16.271,16.711,19.426l1.041,0.367l0.165-0.836c0.532-3.391,0.411-7.001-0.483-10.659
			c-3.863-14.088-12.56-18.796-21.526-21.264l-4.841-8.38c0.6-0.026,1.206-0.154,1.793-0.391c1.106-0.442,1.991-1.203,2.593-2.14
			l4.049,7.004c10.825,3.026,19.923,12.049,22.848,23.966c1.409,5.744,1.209,11.457-0.332,16.618L155.702,131.014L155.702,131.014z
			 M120.513,75.135l-4.049-7.007c-10.825-3.026-19.921-12.048-22.848-23.965c-1.41-5.745-1.209-11.458,0.332-16.618l0.684-2.299
			l2.333,0.563c11.295,2.715,20.898,11.936,23.918,24.241c0.836,3.407,1.209,7.994,0.968,11.272
			c-9.142-2.345-15.615-7.541-18.867-16.167c-0.534-1.281-0.948-2.592-1.237-3.947c-0.09-0.424-0.159-0.861-0.216-1.291
			c-0.03-0.218-0.038-0.442-0.082-0.659c0.363,0.409,0.729,0.941,1.064,1.381c0.587,0.758,1.237,1.494,1.865,2.221
			c2.138,2.474,4.498,4.844,6.988,6.96c0.856,0.728,1.744,1.366,2.652,2.023c0.684,0.496,1.499,1.003,2.368,1.474
			c-0.112-0.684-0.254-1.37-0.422-2.062c-2.248-9.169-8.786-16.271-16.711-19.423l-1.041-0.37l-0.165,0.838
			c-0.532,3.389-0.409,6.999,0.483,10.661c2.904,11.3,11.097,18.16,21.558,21.314l4.807,8.323c-0.6,0.031-1.201,0.157-1.788,0.391
			C121.999,73.435,121.112,74.199,120.513,75.135L120.513,75.135z"/>
		<path id="XMLID_88_" fill-rule="evenodd" clip-rule="evenodd" fill="#BEB1A3" d="M115.639,81.948
			c-2.109-5.258,0.45-11.238,5.71-13.347c5.26-2.106,11.24,0.45,13.35,5.71c2.108,5.258-0.45,11.236-5.71,13.345
			C123.728,89.765,117.745,87.206,115.639,81.948L115.639,81.948z M127.229,83.268c2.837-1.14,4.218-4.36,3.079-7.199
			c-1.137-2.834-4.362-4.215-7.2-3.078c-2.837,1.137-4.215,4.363-3.078,7.199C121.166,83.023,124.392,84.403,127.229,83.268
			L127.229,83.268z"/>
		<path id="XMLID_87_" fill-rule="evenodd" clip-rule="evenodd" fill="#BEB1A3" d="M122.506,64.766
			c-0.589-1.469,0.124-3.135,1.593-3.724s3.135,0.123,3.724,1.592c0.59,1.468-0.123,3.134-1.592,3.723
			S123.095,66.233,122.506,64.766L122.506,64.766z"/>
		<path id="XMLID_86_" fill-rule="evenodd" clip-rule="evenodd" fill="#BEB1A3" d="M122.506,93.629
			c-0.589-1.468,0.124-3.134,1.593-3.723s3.135,0.123,3.724,1.592c0.59,1.468-0.123,3.134-1.592,3.723
			S123.095,95.098,122.506,93.629L122.506,93.629z"/>
		<path id="XMLID_85_" fill-rule="evenodd" clip-rule="evenodd" fill="#BEB1A3" d="M112.257,73.751
			c-1.564-0.224-2.655-1.676-2.429-3.242c0.224-1.563,1.677-2.653,3.243-2.427c1.563,0.224,2.654,1.677,2.429,3.242
			C115.275,72.888,113.823,73.978,112.257,73.751L112.257,73.751z"/>
		<path id="XMLID_84_" fill-rule="evenodd" clip-rule="evenodd" fill="#BEB1A3" d="M137.26,88.184
			c-1.563-0.224-2.654-1.677-2.428-3.242c0.224-1.563,1.677-2.653,3.243-2.428c1.563,0.224,2.654,1.677,2.428,3.242
			C140.279,87.319,138.826,88.409,137.26,88.184L137.26,88.184z"/>
		<path id="XMLID_83_" fill-rule="evenodd" clip-rule="evenodd" fill="#BEB1A3" d="M110.893,87.603
			c-1.242-0.978-1.458-2.779-0.483-4.024c0.978-1.241,2.781-1.458,4.025-0.483c1.242,0.978,1.459,2.78,0.483,4.024
			C113.94,88.361,112.138,88.577,110.893,87.603L110.893,87.603z"/>
		<path id="XMLID_82_" fill-rule="evenodd" clip-rule="evenodd" fill="#BEB1A3" d="M135.896,73.17
			c-1.242-0.977-1.458-2.779-0.483-4.023c0.978-1.242,2.78-1.458,4.025-0.483c1.242,0.977,1.458,2.779,0.483,4.023
			C138.944,73.929,137.142,74.145,135.896,73.17L135.896,73.17z"/>
		<path id="XMLID_81_" fill-rule="evenodd" clip-rule="evenodd" fill="#BEB1A3" d="M123.88,74.921
			c1.772-0.712,3.786,0.149,4.496,1.924c0.712,1.771-0.149,3.784-1.924,4.494c-1.772,0.712-3.786-0.149-4.497-1.923
			C121.243,77.645,122.104,75.631,123.88,74.921L123.88,74.921z"/>
		<path id="XMLID_80_" fill-rule="evenodd" clip-rule="evenodd" fill="#BEB1A3" d="M127.188,57.8c-1.273-0.422-2.688-0.452-4.041,0
			l0.025-7.276l0.225-8.405l0.599-8.403l1.163-8.403l1.181,8.403l0.599,8.403l0.224,8.405L127.188,57.8L127.188,57.8z"/>
		<path id="XMLID_79_" fill-rule="evenodd" clip-rule="evenodd" fill="#BEB1A3" d="M127.188,98.458c-1.273,0.421-2.688,0.45-4.041,0
			l0.025,7.278l0.225,8.403l0.599,8.402l1.163,8.402l1.181-8.402l0.599-8.402l0.224-8.403L127.188,98.458L127.188,98.458z"/>
		<path id="XMLID_78_" fill-rule="evenodd" clip-rule="evenodd" fill="#BEB1A3" d="M108.565,66.215
			c-1.003,0.893-1.733,2.102-2.021,3.5l-6.292-3.664l-7.168-4.395l-6.979-4.72l-6.7-5.207l7.87,3.181l7.581,3.682l7.389,4.009
			L108.565,66.215L108.565,66.215z"/>
		<path id="XMLID_77_" fill-rule="evenodd" clip-rule="evenodd" fill="#BEB1A3" d="M143.79,86.543
			c-0.272,1.316-0.954,2.554-2.021,3.502l6.32,3.612l7.389,4.012l7.583,3.682l7.857,3.193l-6.689-5.22l-6.979-4.723l-7.168-4.392
			L143.79,86.543L143.79,86.543z"/>
		<path id="XMLID_76_" fill-rule="evenodd" clip-rule="evenodd" fill="#BEB1A3" d="M106.536,86.543
			c0.27,1.316,0.949,2.554,2.021,3.5l-6.322,3.614l-7.39,4.012l-7.577,3.682l-7.863,3.193l6.692-5.22l6.976-4.723l7.169-4.392
			L106.536,86.543L106.536,86.543z"/>
		<path id="XMLID_75_" fill-rule="evenodd" clip-rule="evenodd" fill="#BEB1A3" d="M141.759,66.215
			c1.003,0.893,1.735,2.102,2.023,3.5l6.286-3.664l7.171-4.395l6.981-4.72l6.697-5.207l-7.867,3.181l-7.583,3.682l-7.387,4.006
			L141.759,66.215L141.759,66.215z"/>
	</g>
</g>
<g>
	<path fill="#FFFFFF" d="M38.271,115.234c-0.356-0.101-0.571-0.265-0.645-0.493c-0.073-0.229-0.11-0.404-0.11-0.527
		c0-0.279,0.097-0.604,0.29-0.976c0.356-0.619,0.904-1.216,1.643-1.788c0.739-0.572,1.522-1.087,2.351-1.544
		s1.556-0.824,2.182-1.103c0.31-0.457,0.465-0.774,0.465-0.952c0-0.154-0.089-0.232-0.267-0.232c-0.325,0-0.94,0.252-1.846,0.755
		c-0.797,0.472-2.128,1.439-3.993,2.902l-0.487,0.383c-0.279,0.217-0.558,0.325-0.836,0.325c-0.301,0-0.514-0.213-0.638-0.639
		c-0.015-0.077-0.023-0.162-0.023-0.255c0-0.999,0.913-2.678,2.74-5.039c1.594-2.058,3.347-4.051,5.259-5.979l-0.151,0.012
		c-0.131,0-0.197-0.034-0.197-0.104c0-0.208,0.426-0.557,1.277-1.045c0.201-0.101,0.368-0.15,0.5-0.15
		c0.069,0,0.131,0.016,0.186,0.047c0.155,0.076,0.236,0.164,0.244,0.261c0.008,0.097,0.012,0.152,0.012,0.169
		c0,0.139-0.042,0.251-0.127,0.336c-0.882,0.828-1.871,2.029-2.966,3.604s-2.115,3.102-3.059,4.579l-1.219,1.881
		c1.579-1.184,2.964-2.043,4.156-2.577c0.75-0.332,1.381-0.499,1.892-0.499c0.263,0,0.499,0.051,0.708,0.151
		c0.34,0.162,0.511,0.557,0.511,1.185c1.052-0.396,2.174-0.748,3.366-1.057l0.104-0.012c0.217,0,0.356,0.108,0.418,0.325
		l0.012,0.104c0,0.218-0.109,0.353-0.325,0.407c-1.401,0.364-2.693,0.781-3.877,1.254c-0.403,0.819-1.049,1.687-1.938,2.6
		c-1.447,1.486-2.91,2.647-4.388,3.482c-0.325,0.163-0.627,0.244-0.905,0.244C38.476,115.27,38.371,115.258,38.271,115.234z
		 M40.441,112.17c1.238-0.967,1.942-1.536,2.113-1.706c-1.486,0.828-2.605,1.602-3.355,2.321c-0.472,0.449-0.708,0.692-0.708,0.731
		c0.008,0.008,0.015,0.012,0.023,0.012C38.638,113.528,39.281,113.076,40.441,112.17z"/>
	<path fill="#FFFFFF" d="M44.052,123.233c-0.186-0.132-0.279-0.359-0.279-0.686c0-0.936,0.589-2.229,1.765-3.877
		c1.316-1.818,3.324-3.846,6.025-6.083c0.759-1.347,1.432-2.654,2.021-3.924c-0.379,0.387-0.921,0.861-1.625,1.423
		c-0.705,0.561-1.366,0.949-1.985,1.166c-0.31,0.085-0.572,0.128-0.789,0.128c-0.426,0-0.685-0.155-0.778-0.465
		c-0.039-0.132-0.058-0.274-0.058-0.43c0-0.874,0.569-2.283,1.707-4.225c0.542-0.921,1.037-1.719,1.486-2.392
		c-0.069,0.022-0.124,0.035-0.162,0.035c-0.078,0-0.116-0.035-0.116-0.105c0-0.192,0.317-0.576,0.952-1.148
		c0.17-0.124,0.321-0.187,0.453-0.187c0.093,0,0.182,0.035,0.267,0.104s0.128,0.171,0.128,0.302c0,0.116-0.039,0.256-0.117,0.418
		c-1.369,2.454-2.153,4.067-2.35,4.841c-0.198,0.773-0.296,1.262-0.296,1.463c0,0.294,0.093,0.441,0.279,0.441
		c0.696,0,2.283-1.788,4.76-5.363c0.271-0.371,0.518-0.558,0.743-0.558l0.081,0.012c0.248,0.046,0.423,0.178,0.528,0.395
		c0.104,0.218,0.156,0.402,0.156,0.557c0,0.078-0.012,0.151-0.035,0.222c-0.48,1.393-1.165,3.014-2.055,4.864
		c1.448-1.037,3.081-2.117,4.899-3.239c0.077-0.047,0.155-0.069,0.232-0.069c0.147,0,0.268,0.069,0.36,0.209
		c0.039,0.069,0.058,0.139,0.058,0.208c0,0.163-0.065,0.287-0.197,0.372c-2.392,1.479-4.458,2.875-6.199,4.19
		c-2.036,3.908-4.187,7.043-6.455,9.403c-0.89,0.898-1.567,1.471-2.032,1.719c-0.464,0.247-0.813,0.371-1.044,0.371
		C44.246,123.326,44.137,123.296,44.052,123.233z M46.2,120.088c1.408-1.456,2.74-3.189,3.994-5.201
		c-2.74,2.522-4.458,4.612-5.155,6.269C45.425,120.838,45.813,120.482,46.2,120.088z"/>
	<path fill="#FFFFFF" d="M72.099,114.875c-1.152-0.209-1.87-0.558-2.153-1.045c-0.282-0.488-0.423-0.901-0.423-1.242
		c0-1.587,1.509-3.494,4.526-5.723c1.417-1.015,2.868-2.028,4.354-3.042c2.306-1.579,3.459-2.415,3.459-2.508
		c0-0.03-0.619-0.123-1.857-0.278c-0.898-0.116-1.842-0.259-2.833-0.43c-2.367-0.395-3.769-0.956-4.202-1.684
		c-1.23,0.101-2.194,0.151-2.891,0.151c-0.441,0-0.824-0.027-1.149-0.081c-0.728-0.162-1.097-0.306-1.108-0.43
		s-0.018-0.193-0.018-0.209c0-0.224,0.333-0.353,0.998-0.383c0.944,0.008,1.433,0.034,1.463,0.081l0.047,0.058
		c0,0.07-0.426,0.132-1.277,0.186c0.333-0.008,1.339-0.062,3.019-0.162c0.302-0.023,0.546-0.038,0.731-0.046
		c0.008-0.171,0.039-0.345,0.093-0.522c0.209-0.805,1.219-1.745,3.03-2.821c2.739-1.517,5.738-2.65,8.996-3.401
		c1.486-0.31,2.693-0.464,3.622-0.464c0.55,0,1.002,0.054,1.358,0.162c0.773,0.232,1.161,0.614,1.161,1.149
		c0,0.116-0.02,0.239-0.058,0.371c-0.218,0.735-0.883,1.516-1.997,2.339c-1.114,0.825-2.551,1.522-4.307,2.096
		c-2.469,0.789-5.596,1.374-9.381,1.753c0.325,0.355,0.904,0.635,1.736,0.836c0.831,0.202,1.735,0.378,2.711,0.528
		c0.975,0.15,1.847,0.321,2.617,0.511s1.232,0.389,1.387,0.598c0.155,0.209,0.232,0.364,0.232,0.464
		c0,0.535-0.979,1.421-2.937,2.659c-0.782,0.495-1.575,0.976-2.38,1.439c-1.045,0.588-2.072,1.221-3.082,1.898
		c-1.011,0.677-1.964,1.473-2.861,2.385c-0.93,0.991-1.397,1.632-1.405,1.922s-0.012,0.439-0.012,0.446
		c0,0.938,0.867,1.405,2.601,1.405c1.169,0,2.484-0.217,3.947-0.649c1.091-0.326,2.09-0.748,2.995-1.267
		c2.94-1.663,5.839-4.12,8.695-7.371c0.085-0.101,0.192-0.151,0.324-0.151c0.093,0,0.187,0.039,0.279,0.116
		c0.093,0.078,0.139,0.183,0.139,0.313c0,0.102-0.034,0.194-0.104,0.278c-2.895,3.298-5.866,5.816-8.916,7.558
		c-1.748,0.983-3.272,1.618-4.573,1.904c-1.3,0.286-2.36,0.43-3.181,0.43C73.013,115.003,72.541,114.96,72.099,114.875z
		 M87.632,94.814c0.882-0.502,1.406-0.89,1.573-1.161c0.166-0.271,0.249-0.452,0.249-0.545c0-0.232-0.216-0.391-0.649-0.477
		c-0.147-0.03-0.325-0.046-0.534-0.046c-0.674,0-1.676,0.144-3.007,0.43c-3.088,0.712-5.921,1.78-8.498,3.203
		c-1.292,0.759-2.031,1.34-2.217,1.742C80.577,97.411,84.938,96.363,87.632,94.814z"/>
	<path fill="#FFFFFF" d="M88.456,111.683c0-0.588,0.093-1.304,0.278-2.147c0.449-1.835,1.252-3.825,2.409-5.974
		c1.157-2.147,2.425-4.037,3.802-5.67c0.976-1.114,1.895-1.938,2.757-2.468c0.863-0.529,1.554-0.795,2.072-0.795
		c0.542,0,0.813,0.283,0.813,0.848c0,0.836-0.662,2.159-1.985,3.97c-1.053,1.401-2.258,2.831-3.616,4.29s-2.583,2.603-3.675,3.431
		c-0.418,0.99-0.724,1.907-0.917,2.751c-0.146,0.658-0.221,1.199-0.221,1.625c0,0.295,0.035,0.534,0.104,0.72
		c0.171,0.418,0.453,0.627,0.848,0.627c0.457,0,1.018-0.2,1.684-0.604c0.596-0.356,1.188-0.782,1.776-1.277
		c1.369-1.176,2.759-2.519,4.167-4.028c0.085-0.085,0.182-0.127,0.29-0.127c0.116,0,0.217,0.04,0.303,0.122
		c0.084,0.081,0.131,0.176,0.139,0.284c0,0.116-0.039,0.22-0.116,0.313c-2.763,2.956-4.995,4.863-6.698,5.723
		c-0.882,0.441-1.691,0.662-2.426,0.662C89.053,113.958,88.456,113.199,88.456,111.683z M95.137,102.326
		c1.041-1.169,1.968-2.299,2.78-3.391c0.79-1.06,1.225-1.708,1.306-1.944c0.082-0.235,0.123-0.385,0.123-0.446
		c0-0.086-0.035-0.128-0.105-0.128c-0.231,0-0.716,0.328-1.45,0.986c-0.519,0.473-1.033,1.002-1.545,1.591
		c-1.578,1.873-2.956,4.009-4.132,6.408C93.088,104.52,94.096,103.494,95.137,102.326z"/>
	<path fill="#FFFFFF" d="M97.975,111.16c-0.433-0.225-0.649-0.588-0.649-1.092c0-0.758,0.554-1.779,1.659-3.064
		c1.022-1.13,2.141-2.077,3.355-2.844c0.797-0.472,1.436-0.708,1.916-0.708c0.139,0,0.263,0.019,0.371,0.058
		c0.41,0.147,0.615,0.441,0.615,0.883c0,0.734-0.499,1.548-1.498,2.438c-0.627,0.534-1.282,0.971-1.968,1.312
		c-0.685,0.341-1.282,0.511-1.793,0.511h-0.162c-0.364,0.504-0.546,0.886-0.546,1.149c0,0.063,0.012,0.12,0.034,0.174
		c0.124,0.264,0.312,0.397,0.563,0.401c0.251,0.004,0.4,0.005,0.447,0.005c0.41,0,0.843-0.054,1.3-0.162
		c0.526-0.116,0.96-0.244,1.3-0.383c0.906-0.348,1.749-0.772,2.531-1.271c0.781-0.499,1.416-0.997,1.904-1.492
		c0.085-0.084,0.182-0.127,0.29-0.127c0.115,0,0.216,0.043,0.302,0.127c0.085,0.086,0.127,0.187,0.127,0.303
		c0,0.108-0.038,0.208-0.115,0.301c-0.519,0.526-1.195,1.057-2.032,1.591c-0.835,0.534-1.733,0.991-2.693,1.37
		c-1.106,0.426-1.956,0.669-2.548,0.731c-0.592,0.062-1,0.093-1.225,0.093C98.857,111.462,98.362,111.361,97.975,111.16z
		 M103.188,106.191c0.735-0.643,1.103-1.014,1.103-1.115c0-0.022-0.016-0.033-0.046-0.033c-0.116,0-0.384,0.129-0.802,0.388
		c-0.417,0.26-0.892,0.6-1.422,1.021c-0.53,0.423-1.016,0.865-1.457,1.329C101.354,107.55,102.228,107.02,103.188,106.191z"/>
	<path fill="#FFFFFF" d="M112.092,110.835c-0.101-0.387-0.155-0.82-0.163-1.3c0.008-1.122,0.097-2.179,0.268-3.17
		c-0.674,0.542-1.424,1.23-2.253,2.067c-0.224,0.231-0.468,0.506-0.731,0.824c-0.263,0.316-0.527,0.614-0.795,0.894
		c-0.267,0.278-0.515,0.478-0.743,0.598c-0.228,0.12-0.412,0.18-0.551,0.18c-0.441,0-0.662-0.363-0.662-1.091
		c0-0.264,0.112-0.654,0.337-1.173l2.24-5.178c0.155-0.348,0.41-0.521,0.767-0.521c0.116,0,0.232,0.022,0.348,0.069
		c0.341,0.162,0.512,0.422,0.512,0.777c0,0.108-0.023,0.221-0.07,0.337l-1.811,4.226l0.557-0.546h0.012
		c0.921-0.937,1.684-1.637,2.287-2.101c0.627-0.573,1.149-0.859,1.567-0.859c0.232,0,0.43,0.135,0.592,0.406
		c0.108,0.186,0.163,0.422,0.163,0.708c0,0.14-0.016,0.298-0.047,0.477c-0.193,1.106-0.29,2.065-0.29,2.879
		c0,0.316,0.012,0.576,0.035,0.777c0.03,0.333,0.15,0.499,0.359,0.499c0.363,0,0.968-0.468,1.811-1.404
		c0.743-0.82,1.332-1.544,1.765-2.171c0.094-0.124,0.213-0.186,0.36-0.186c0.085,0,0.17,0.03,0.255,0.093
		c0.085,0.062,0.134,0.126,0.146,0.191s0.018,0.11,0.018,0.133c0,0.094-0.023,0.179-0.07,0.256
		c-0.201,0.287-0.544,0.712-1.027,1.277c-0.483,0.564-1.026,1.13-1.631,1.694c-0.604,0.565-1.112,0.952-1.526,1.161
		s-0.733,0.313-0.957,0.313C112.641,111.973,112.285,111.594,112.092,110.835z"/>
	<path fill="#FFFFFF" d="M116.248,110.685c-0.349-0.086-0.522-0.379-0.522-0.883c0-0.674,0.263-1.334,0.789-1.985
		c0.959-1.184,2.79-2.016,5.491-2.495h0.034c0.101,0,0.197,0.036,0.291,0.109c0.093,0.074,0.139,0.173,0.139,0.297
		c0,0.263-0.127,0.41-0.383,0.44c-0.465,0.069-1.07,0.305-1.817,0.702c-0.746,0.399-1.393,0.833-1.938,1.301
		c-0.545,0.468-0.818,0.865-0.818,1.189c0,0.155,0.066,0.232,0.197,0.232c0.225,0,0.67-0.274,1.335-0.824
		c0.728-0.588,1.339-1.13,1.834-1.625c0.442-0.449,0.824-0.674,1.15-0.674c0.216,0,0.324,0.082,0.324,0.244
		c0,0.108-0.05,0.248-0.15,0.418c-0.101,0.171-0.168,0.36-0.203,0.568c-0.035,0.209-0.053,0.395-0.053,0.558
		c0,0.101,0.008,0.205,0.023,0.313c0.054,0.41,0.141,0.627,0.262,0.65c0.119,0.022,0.198,0.035,0.237,0.035
		c0.286,0,0.731-0.256,1.335-0.767c0.41-0.341,0.991-0.75,1.741-1.23c0.441-0.271,0.806-0.406,1.092-0.406
		c0.116,0,0.217,0.04,0.302,0.122c0.085,0.081,0.128,0.184,0.128,0.307c0,0.116-0.043,0.218-0.128,0.302
		c-0.085,0.086-0.186,0.128-0.302,0.128c-0.217,0-0.848,0.375-1.893,1.126l-0.186,0.14c-1.037,0.774-1.808,1.161-2.311,1.161
		c-0.131,0-0.259-0.02-0.383-0.058c-0.387-0.116-0.635-0.589-0.743-1.417c-0.008-0.123-0.012-0.251-0.012-0.383v-0.197
		c-0.239,0.231-0.669,0.58-1.288,1.044c-1.401,1.062-2.48,1.591-3.239,1.591C116.468,110.719,116.356,110.707,116.248,110.685z"/>
	<path fill="#FFFFFF" d="M148.463,115.757c-0.187-0.131-0.303-0.317-0.349-0.557c-0.194-0.944-1.323-1.416-3.391-1.416
		c-0.742,0-1.481,0.03-2.217,0.093c-1.192,0.108-2.36,0.235-3.506,0.383c-1.54,0.217-2.739,0.325-3.599,0.325
		c-0.108,0-0.219-0.005-0.331-0.012c-0.112-0.008-0.203-0.053-0.272-0.134c-0.07-0.081-0.104-0.173-0.104-0.272
		c0-0.132,0.044-0.236,0.133-0.314c0.089-0.076,0.188-0.115,0.297-0.115h0.034c0.132,0.008,0.271,0.012,0.418,0.012
		c0.875,0,2.368-0.236,4.481-0.708c1.114-0.248,2.229-0.465,3.343-0.65c1.494-4.326,3.352-8.234,5.572-11.726
		c1.78-2.801,3.967-5.51,6.56-8.126c-2.856,0.055-5.321,0.345-7.396,0.871c-2.956,0.759-4.976,2.295-6.06,4.608
		c0.178-0.101,0.31-0.15,0.395-0.15c0.063,0,0.093,0.034,0.093,0.104c0,0.216-0.325,0.646-0.975,1.289l-0.047,0.057
		c-0.077,0.063-0.158,0.094-0.243,0.094c-0.063,0-0.112-0.008-0.151-0.023c-0.201-0.054-0.302-0.186-0.302-0.395
		c0-0.046,0.004-0.089,0.012-0.128c0.503-1.602,1.333-2.956,2.49-4.063c1.156-1.106,2.494-1.974,4.011-2.601
		c2.004-0.835,4.117-1.253,6.339-1.253c1.045,0,2.186,0.077,3.424,0.231l0.035,0.013c2.693,0.34,4.833,0.982,6.42,1.927
		c0.139,0.085,0.209,0.201,0.209,0.348c0,0.077-0.027,0.161-0.082,0.25c-0.054,0.089-0.117,0.142-0.191,0.156
		c-0.073,0.017-0.125,0.023-0.156,0.023c-0.077,0-0.151-0.02-0.221-0.058c-1.394-0.805-3.518-1.235-6.373-1.289
		c-1.881,2.105-4.005,5.069-6.374,8.893c-2.507,4.048-4.48,7.654-5.92,10.819c0.426-0.054,0.832-0.081,1.219-0.081
		c0.852,0,1.609,0.124,2.275,0.371c0.976,0.356,1.582,1.143,1.822,2.356l0.012,0.163c0,0.17-0.05,0.329-0.15,0.476
		c-0.171,0.24-0.402,0.36-0.697,0.36C148.771,115.908,148.609,115.857,148.463,115.757z"/>
	<path fill="#FFFFFF" d="M152.63,112.379c-0.449-0.154-0.678-0.541-0.686-1.161c0-0.813,0.372-2.491,1.115-5.038
		c0.363-1.253,0.546-2.009,0.546-2.264c0-0.146-0.017-0.288-0.047-0.424c-0.031-0.135-0.047-0.249-0.047-0.343
		c0-0.062,0.01-0.119,0.029-0.174c0.019-0.054,0.071-0.081,0.156-0.081c0.078,0,0.183,0.023,0.313,0.07
		c0.395,0.162,0.635,0.483,0.72,0.963c0.039,0.225,0.059,0.465,0.059,0.72c0,0.805-0.236,1.993-0.708,3.563
		c-0.24,0.852-0.36,1.382-0.36,1.591c0,0.124,0.027,0.186,0.082,0.186c0.162,0,0.665-0.592,1.509-1.776
		c0.472-0.643,0.973-1.292,1.503-1.949c0.53-0.658,1.031-1.169,1.504-1.532c0.255-0.194,0.476-0.291,0.661-0.291
		c0.248,0,0.564,0.217,0.952,0.65c0.201,0.225,0.483,0.472,0.848,0.743c0.897,0.681,2.275,1.021,4.132,1.021
		c0.117,0,0.215,0.04,0.297,0.122c0.081,0.081,0.122,0.184,0.122,0.307c0,0.116-0.041,0.218-0.122,0.302
		c-0.082,0.086-0.18,0.128-0.297,0.128c-1.624,0-2.921-0.247-3.888-0.742c-0.643-0.318-1.208-0.743-1.695-1.277
		c-0.193-0.217-0.329-0.325-0.406-0.325c-0.039,0-0.074,0.012-0.104,0.035c-0.255,0.201-0.501,0.497-0.737,0.888
		s-0.479,0.838-0.726,1.341c-0.333,0.666-0.718,1.349-1.155,2.049c-0.438,0.701-0.982,1.329-1.637,1.887
		c-0.654,0.557-1.221,0.836-1.7,0.836C152.784,112.402,152.707,112.395,152.63,112.379z"/>
	<path fill="#FFFFFF" d="M164.97,112.229c-0.294-0.295-0.441-0.682-0.441-1.161c0-0.564,0.112-1.161,0.337-1.788
		c0.201-0.549,0.398-1.006,0.592-1.37c-0.681-0.627-1.021-1.246-1.021-1.857c0-0.673,0.283-1.284,0.848-1.833
		c0.526-0.512,1.185-0.887,1.974-1.127c0.665-0.193,1.257-0.29,1.776-0.29c0.526,0,0.971,0.104,1.335,0.313
		c0.711,0.418,1.087,0.871,1.126,1.358c0.038,0.487,0.058,0.781,0.058,0.882c0,1.091-0.422,2.218-1.265,3.378
		c1.896-0.054,3.835-0.657,5.815-1.811c0.077-0.047,0.155-0.069,0.232-0.069c0.146,0,0.267,0.069,0.359,0.209
		c0.039,0.069,0.059,0.143,0.059,0.22c0,0.155-0.07,0.275-0.209,0.36c-2.229,1.301-4.369,1.95-6.42,1.95
		c-0.14,0-0.298-0.008-0.476-0.022c-0.643,0.758-1.378,1.45-2.206,2.077c-0.72,0.542-1.323,0.813-1.811,0.813
		C165.384,112.46,165.163,112.384,164.97,112.229z M168.046,104.636c-0.658,0.162-1.153,0.395-1.486,0.697
		c-0.301,0.271-0.452,0.584-0.452,0.939c0,0.14,0.02,0.287,0.058,0.441C166.699,105.94,167.326,105.248,168.046,104.636z
		 M167.46,110.458c0.43-0.329,0.833-0.683,1.213-1.063c-0.572-0.131-1.153-0.325-1.741-0.581c-0.069,0.14-0.17,0.368-0.302,0.686
		c-0.232,0.534-0.349,0.913-0.349,1.138c0,0.209,0.078,0.313,0.232,0.313C166.715,110.951,167.03,110.787,167.46,110.458z
		 M170.055,107.538c0.395-0.72,0.592-1.319,0.592-1.8c0-0.665-0.337-1.067-1.011-1.207c-0.681,0.666-1.446,1.823-2.298,3.472
		c0.588,0.332,1.238,0.557,1.95,0.673C169.574,108.304,169.83,107.925,170.055,107.538z"/>
	<path fill="#FFFFFF" d="M180.77,110.835c-0.101-0.387-0.155-0.82-0.163-1.3c0.008-1.122,0.098-2.179,0.268-3.17
		c-0.673,0.542-1.424,1.23-2.252,2.067c-0.225,0.231-0.469,0.506-0.731,0.824c-0.263,0.316-0.528,0.614-0.795,0.894
		c-0.268,0.278-0.516,0.478-0.743,0.598c-0.229,0.12-0.412,0.18-0.552,0.18c-0.441,0-0.662-0.363-0.662-1.091
		c0-0.264,0.113-0.654,0.338-1.173l2.24-5.178c0.154-0.348,0.409-0.521,0.766-0.521c0.116,0,0.232,0.022,0.349,0.069
		c0.34,0.162,0.511,0.422,0.511,0.777c0,0.108-0.023,0.221-0.07,0.337l-1.811,4.226l0.557-0.546h0.013
		c0.92-0.937,1.683-1.637,2.286-2.101c0.627-0.573,1.149-0.859,1.568-0.859c0.23,0,0.429,0.135,0.592,0.406
		c0.108,0.186,0.162,0.422,0.162,0.708c0,0.14-0.016,0.298-0.046,0.477c-0.194,1.106-0.291,2.065-0.291,2.879
		c0,0.316,0.012,0.576,0.035,0.777c0.03,0.333,0.15,0.499,0.359,0.499c0.364,0,0.968-0.468,1.811-1.404
		c0.744-0.82,1.332-1.544,1.766-2.171c0.092-0.124,0.213-0.186,0.359-0.186c0.085,0,0.17,0.03,0.256,0.093
		c0.085,0.062,0.133,0.126,0.145,0.191s0.018,0.11,0.018,0.133c0,0.094-0.023,0.179-0.069,0.256
		c-0.202,0.287-0.544,0.712-1.027,1.277c-0.484,0.564-1.027,1.13-1.631,1.694c-0.604,0.565-1.113,0.952-1.527,1.161
		s-0.733,0.313-0.958,0.313C181.318,111.973,180.963,111.594,180.77,110.835z"/>
	<path fill="#FFFFFF" d="M186.714,111.428c-0.642-0.047-1.014-0.252-1.114-0.616c-0.101-0.363-0.151-0.657-0.151-0.882
		c0-0.395,0.086-0.84,0.255-1.335c0.21-0.611,0.533-1.229,0.97-1.852c0.438-0.623,0.974-1.194,1.608-1.713
		c0.225-0.17,0.422-0.255,0.592-0.255c0.062,0,0.12,0.012,0.174,0.035c0.217,0.076,0.333,0.178,0.349,0.301
		c0.016,0.124,0.023,0.197,0.023,0.222c0,0.208-0.132,0.425-0.395,0.649c-0.349,0.325-0.705,0.836-1.068,1.532
		c-0.526,1.007-0.789,1.737-0.789,2.194c0,0.256,0.088,0.426,0.267,0.511c0.054,0.023,0.12,0.035,0.197,0.035
		c0.302,0,0.762-0.182,1.382-0.546c0.882-0.503,1.942-1.408,3.181-2.717c0.093-0.093,0.201-0.139,0.325-0.139
		c0.101,0,0.193,0.04,0.278,0.122c0.085,0.081,0.128,0.152,0.128,0.214v0.093c0,0.109-0.039,0.205-0.116,0.291
		c-1.292,1.37-2.414,2.325-3.367,2.867c-1.122,0.657-1.996,0.987-2.623,0.987H186.714z M191.265,102.859
		c0.085-0.108,0.128-0.221,0.128-0.336c0-0.194-0.074-0.317-0.222-0.372c-0.107-0.046-0.192-0.069-0.255-0.069
		c-0.132,0-0.286,0.042-0.464,0.128c-0.465,0.231-0.697,0.387-0.697,0.464c0,0.039,0.055,0.059,0.163,0.059
		c0.101,0,0.236-0.016,0.406-0.047c-0.534,0.743-0.801,1.228-0.801,1.451c0.007,0.093,0.05,0.14,0.128,0.14
		C189.875,104.276,190.413,103.805,191.265,102.859z"/>
	<path fill="#FFFFFF" d="M196.964,110.835c-0.101-0.387-0.154-0.82-0.162-1.3c0.008-1.122,0.097-2.179,0.267-3.17
		c-0.673,0.542-1.424,1.23-2.252,2.067c-0.225,0.231-0.469,0.506-0.731,0.824c-0.263,0.316-0.527,0.614-0.795,0.894
		c-0.268,0.278-0.515,0.478-0.743,0.598s-0.411,0.18-0.552,0.18c-0.44,0-0.661-0.363-0.661-1.091c0-0.264,0.112-0.654,0.337-1.173
		l2.24-5.178c0.154-0.348,0.41-0.521,0.766-0.521c0.116,0,0.232,0.022,0.349,0.069c0.341,0.162,0.511,0.422,0.511,0.777
		c0,0.108-0.023,0.221-0.069,0.337l-1.812,4.226l0.558-0.546h0.012c0.921-0.937,1.683-1.637,2.287-2.101
		c0.627-0.573,1.149-0.859,1.567-0.859c0.231,0,0.429,0.135,0.592,0.406c0.108,0.186,0.162,0.422,0.162,0.708
		c0,0.14-0.015,0.298-0.046,0.477c-0.193,1.106-0.291,2.065-0.291,2.879c0,0.316,0.012,0.576,0.035,0.777
		c0.031,0.333,0.151,0.499,0.36,0.499c0.363,0,0.967-0.468,1.811-1.404c0.743-0.82,1.331-1.544,1.765-2.171
		c0.093-0.124,0.213-0.186,0.359-0.186c0.086,0,0.171,0.03,0.256,0.093c0.085,0.062,0.134,0.126,0.145,0.191
		c0.013,0.065,0.019,0.11,0.019,0.133c0,0.094-0.023,0.179-0.07,0.256c-0.201,0.287-0.543,0.712-1.027,1.277
		c-0.483,0.564-1.027,1.13-1.631,1.694c-0.604,0.565-1.112,0.952-1.526,1.161c-0.415,0.209-0.733,0.313-0.958,0.313
		C197.514,111.973,197.158,111.594,196.964,110.835z"/>
	<path fill="#FFFFFF" d="M201.119,110.685c-0.348-0.086-0.521-0.379-0.521-0.883c0-0.674,0.264-1.334,0.789-1.985
		c0.96-1.184,2.79-2.016,5.491-2.495h0.035c0.101,0,0.197,0.036,0.29,0.109c0.093,0.074,0.14,0.173,0.14,0.297
		c0,0.263-0.128,0.41-0.384,0.44c-0.464,0.069-1.069,0.305-1.816,0.702c-0.747,0.399-1.394,0.833-1.939,1.301
		c-0.545,0.468-0.817,0.865-0.817,1.189c0,0.155,0.065,0.232,0.197,0.232c0.225,0,0.669-0.274,1.335-0.824
		c0.728-0.588,1.339-1.13,1.834-1.625c0.441-0.449,0.824-0.674,1.149-0.674c0.216,0,0.325,0.082,0.325,0.244
		c0,0.108-0.051,0.248-0.151,0.418c-0.101,0.171-0.169,0.36-0.203,0.568c-0.034,0.209-0.053,0.395-0.053,0.558
		c0,0.101,0.008,0.205,0.023,0.313c0.055,0.41,0.142,0.627,0.262,0.65c0.12,0.022,0.199,0.035,0.238,0.035
		c0.285,0,0.73-0.256,1.334-0.767c0.41-0.341,0.991-0.75,1.742-1.23c0.44-0.271,0.805-0.406,1.091-0.406
		c0.116,0,0.217,0.04,0.302,0.122c0.086,0.081,0.128,0.184,0.128,0.307c0,0.116-0.042,0.218-0.128,0.302
		c-0.085,0.086-0.186,0.128-0.302,0.128c-0.217,0-0.848,0.375-1.893,1.126l-0.185,0.14c-1.038,0.774-1.808,1.161-2.311,1.161
		c-0.132,0-0.26-0.02-0.384-0.058c-0.387-0.116-0.635-0.589-0.743-1.417c-0.008-0.123-0.011-0.251-0.011-0.383v-0.197
		c-0.24,0.231-0.67,0.58-1.289,1.044c-1.4,1.062-2.48,1.591-3.238,1.591C201.341,110.719,201.229,110.707,201.119,110.685z"/>
</g>
<g>
	<path fill="#FFFFFF" stroke="#FFFFFF" stroke-width="0.5" stroke-miterlimit="10" d="M15.951,53.396v7.419H15.58l-2.597-7.048
		H6.306v11.87h5.193v-3.339h0.371v7.048h-0.371v-3.339H6.306v12.983h7.048l2.597-7.048h0.371v7.419H0v-0.371h2.226V53.768H0v-0.371
		H15.951z"/>
	<path fill="#FFFFFF" stroke="#FFFFFF" stroke-width="0.5" stroke-miterlimit="10" d="M42.285,53.768h-2.968l-8.717,25.595h-0.742
		l-9.088-25.595h-2.226v-0.371h8.902v0.371h-2.226l7.048,19.66l6.677-19.66h-2.968v-0.371h6.306V53.768z"/>
	<path fill="#FFFFFF" stroke="#FFFFFF" stroke-width="0.5" stroke-miterlimit="10" d="M60.831,78.991v0.371h-8.903v-0.371h2.226
		l-2.411-6.677h-9.051l-2.263,6.677h2.967v0.371H37.09v-0.371h2.967l8.717-25.595h0.742l9.088,25.595H60.831z M51.557,71.943
		l-4.451-12.612L42.84,71.943H51.557z"/>
	<path fill="#FFFFFF" stroke="#FFFFFF" stroke-width="0.5" stroke-miterlimit="10" d="M79.746,71.943v7.419H63.054v-0.371h2.226
		V53.768h-2.226v-0.371h8.531v0.371h-2.226v25.224h7.419l2.597-7.048H79.746z"/>
	<path fill="#FFFFFF" stroke="#FFFFFF" stroke-width="0.5" stroke-miterlimit="10" d="M83.453,53.768v-0.371h8.531v0.371h-2.226
		v25.224h2.226v0.371h-8.531v-0.371h2.226V53.768H83.453z"/>
	<path fill="#FFFFFF" stroke="#FFFFFF" stroke-width="0.5" stroke-miterlimit="10" d="M109.788,74.911
		c0-7.419-13.354-5.936-13.354-15.209c0-3.709,3.339-7.048,8.161-7.048c4.08,0,7.048,2.968,7.048,4.822
		c0,1.483-1.113,2.597-2.597,2.597c-1.484,0-2.597-1.113-2.597-2.597s1.112-2.597,2.597-2.597c0.371,0,0.927,0.186,0.927,0.186
		s-2.04-2.04-5.378-2.04c-3.339,0-5.564,2.226-5.564,4.451c0,7.419,13.354,5.935,13.354,15.209c0,4.08-3.338,7.419-8.531,7.419
		c-5.564,0-8.531-5.008-8.531-5.008v-0.52c0.147,0.223,3.078,5.156,8.531,5.156C107.563,79.733,109.788,77.508,109.788,74.911z"/>
	<path fill="#FFFFFF" stroke="#FFFFFF" stroke-width="0.5" stroke-miterlimit="10" d="M131.671,79.362h-8.902v-0.371h2.226V53.768
		h-2.226v-0.371h7.048c6.677,0,9.273,2.597,9.273,5.563c0,4.822-5.935,5.193-5.935,5.193v0.186c0,0,8.531,0.186,8.531,7.419
		C141.687,76.023,138.348,79.362,131.671,79.362z M129.074,53.768v10.386h0.742c2.968,0,4.859-0.557,4.822-0.557v-9.273
		c0,0-1.854-0.556-4.822-0.556H129.074z M137.235,77.879V65.638c0,0-2.226-1.113-5.564-1.113h-2.597v14.467h2.597
		C135.01,78.991,137.235,77.879,137.235,77.879z"/>
	<path fill="#FFFFFF" stroke="#FFFFFF" stroke-width="0.5" stroke-miterlimit="10" d="M161.343,53.396v7.419h-0.37l-2.597-7.048
		h-6.678v11.87h5.193v-3.339h0.371v7.048h-0.371v-3.339h-5.193v12.983h7.048l2.597-7.048h0.371v7.419h-16.321v-0.371h2.226V53.768
		h-2.226v-0.371H161.343z"/>
	<path fill="#FFFFFF" stroke="#FFFFFF" stroke-width="0.5" stroke-miterlimit="10" d="M186.936,78.991v0.371h-8.902v-0.371h2.226
		l-2.411-6.677h-9.051l-2.263,6.677h2.968v0.371h-6.307v-0.371h2.968l8.717-25.595h0.742l9.088,25.595H186.936z M177.662,71.943
		l-4.451-12.612l-4.266,12.612H177.662z"/>
	<path fill="#FFFFFF" stroke="#FFFFFF" stroke-width="0.5" stroke-miterlimit="10" d="M197.878,80.104
		c-5.008,0-8.718-3.71-8.718-9.645V53.768h-2.226v-0.371h8.532v0.371h-2.226v24.667c0,0,1.854,1.299,4.637,1.299
		c4.822,0,8.346-3.524,8.346-9.273V57.514c-0.037,0.074-0.816,1.446-2.597,1.446c-1.669,0-2.968-1.298-2.968-2.967
		c0-1.67,1.299-2.968,2.968-2.968s2.968,1.298,2.968,2.968V70.46C206.595,76.395,202.885,80.104,197.878,80.104z"/>
	<path fill="#FFFFFF" stroke="#FFFFFF" stroke-width="0.5" stroke-miterlimit="10" d="M229.59,60.815h-0.37l-2.597-7.048h-4.451
		v25.224h2.226v0.371h-8.532v-0.371h2.226V53.768h-4.451l-2.597,7.048h-0.371v-7.419h18.918V60.815z"/>
	<path fill="#FFFFFF" stroke="#FFFFFF" stroke-width="0.5" stroke-miterlimit="10" d="M244.425,78.991h2.226v0.371h-8.531v-0.371
		h2.226V67.863l-7.048-14.096h-2.226v-0.371h8.902v0.371h-2.226l6.677,13.354l6.678-13.354h-2.968v-0.371h6.306v0.371h-2.968
		l-7.048,14.096V78.991z"/>
</g>
</svg>
