<?xml version="1.0" encoding="utf-8"?>
<!-- Generator: Adobe Illustrator 16.0.0, SVG Export Plug-In . SVG Version: 6.00 Build 0)  -->
<!DOCTYPE svg PUBLIC "-//W3C//DTD SVG 1.1//EN" "http://www.w3.org/Graphics/SVG/1.1/DTD/svg11.dtd">
<svg version="1.1" xmlns="http://www.w3.org/2000/svg" xmlns:xlink="http://www.w3.org/1999/xlink" x="0px" y="0px"
	 width="254.441px" height="156.26px" viewBox="0 0 254.441 156.26" enable-background="new 0 0 254.441 156.26"
	 xml:space="preserve">
<g id="Layer_3_copy">
	<g>
		<path fill="#CFB467" d="M82.175,80.137c-0.138-0.227-0.222-0.49-0.222-0.774v-0.37c0-0.031,0.007-0.061,0.009-0.091
			c-0.2,0.031-0.4,0.07-0.599,0.097c-0.037,0.005-0.079,0.009-0.117,0.014v0.35c0,0.165-0.033,0.32-0.082,0.469
			c0.104,0.036,0.205,0.081,0.309,0.115C81.704,80.021,81.941,80.07,82.175,80.137z"/>
		<path fill="#CFB467" d="M133.138,55.534c-0.623-0.106-1.497-0.216-2.564-0.253v7.359c1.07-0.037,1.945-0.147,2.564-0.251V55.534z"
			/>
		<path fill="#CFB467" d="M78.349,68.324c-2.664,0.928-5.18,2.198-7.49,3.755v5.413h1.155l0.088-0.075
			c1.464-1.155,3.064-2.149,4.757-2.984l1.108-3.008c0.217-0.59,0.779-0.981,1.408-0.981h0.371c0.829,0,1.5,0.671,1.5,1.5v0.77
			c0.96-0.286,1.938-0.524,2.934-0.708v-5.792c-4.759-3.123-8.944-6.854-12.387-10.968c-0.068,0.01-0.136,0.021-0.208,0.021h-0.726
			v6.486C73.147,64.109,75.649,66.316,78.349,68.324z"/>
		<path fill="#CFB467" d="M102.987,69.623c-0.639-0.326-1.307-0.668-1.971-1.04c-0.793-0.299-1.576-0.569-2.316-0.784
			c-2.47-0.718-4.965-1.128-7.441-1.27v5.075c2.005,0.136,4.025,0.474,6.028,1.056c0.682,0.2,1.348,0.42,1.998,0.664
			c-0.744,0.46-1.485,0.854-2.182,1.18c0.877,1.156,2.54,2.882,4.955,3.496c2.077-1.184,4.059-2.684,5.949-4.484
			C107.358,71.949,105.577,70.945,102.987,69.623z"/>
		<path fill="#CFB467" d="M130.574,76.964c0.019,0.082,0.04,0.163,0.054,0.245c0.009,0.056,0.014,0.111,0.021,0.166
			c0.005,0.04,0.008,0.079,0.013,0.118h1.009c1.787,0,3.222-0.359,4.064-0.636v-1.259h-0.627c-0.11-0.432-0.239-0.861-0.409-1.286
			c-0.551-1.373-1.369-2.556-2.365-3.525l2.297-3.978c-0.036-0.155-0.063-0.31-0.098-0.464c-0.784-0.174-1.742-0.319-2.862-0.319
			h-1.097V76.964z"/>
		<path fill="#CFB467" d="M91.984,80.863h-6.39c4.459,0.718,8.59,0.354,12.421-1.002c-2.552-1.635-3.896-3.853-3.983-4
			c-0.008-0.014-0.011-0.03-0.019-0.044c-0.091,0.034-0.177,0.073-0.27,0.106c-0.819,0.292-1.649,0.565-2.486,0.823v0.747h0.727
			c0.829,0,1.5,0.671,1.5,1.5v0.37C93.484,80.191,92.813,80.863,91.984,80.863z"/>
		<path fill="#CFB467" d="M112.261,89.406c-2.958,1.429-6.744,4.046-9.278,6.473c-0.445,0.426-0.874,0.862-1.291,1.308
			c-0.359,0.877-0.969,1.898-1.879,3.145c-0.917,1.219-1.946,2.455-3.064,3.695c-0.57,1.044-1.084,2.111-1.536,3.199
			c-0.941,0.493-1.893,0.949-2.851,1.387c-0.212,0.58-0.392,1.136-0.507,1.64c-0.091,0.409-0.139,0.715-0.163,0.94
			c0.098-0.05,0.211-0.111,0.338-0.188c0.531-0.317,1.062-0.7,1.586-1.142c1.318-1.132,2.68-2.448,4.036-3.903
			c0.21-0.211,0.449-0.36,0.699-0.458c0.991-1.017,2.052-1.893,3.185-2.609c1.078-0.639,1.952-0.93,2.7-0.936
			c0.695-0.842,1.442-1.653,2.248-2.426c0.511-0.487,1.036-0.955,1.571-1.397c0.03,0.99,0,1.954-0.088,2.792
			c-0.063,0.604-0.127,1.199-0.202,1.793c0.424-0.784,1.161-1.253,2.038-1.253c0.316,0,0.625,0.062,0.919,0.183
			c0.852,0.4,1.354,1.105,1.43,1.938c0.249-0.103,0.499-0.159,0.745-0.186C113.89,99.017,113.643,94.344,112.261,89.406z"/>
		<path fill="#CFB467" d="M152.384,102.023c-0.098-0.152-0.203-0.3-0.304-0.45c-0.138,0.22-0.275,0.435-0.415,0.661
			c-0.895,1.444-1.717,2.831-2.477,4.167c0.518,1.022,0.989,2.138,1.432,3.31c0.158-0.842,0.45-2.068,0.999-3.95
			c0.412-1.425,0.478-1.816,0.487-1.897c0.001,0.008-0.006-0.015-0.014-0.054c-0.053-0.229-0.081-0.451-0.081-0.66
			c0-0.225,0.036-0.444,0.107-0.655C152.183,102.315,152.277,102.161,152.384,102.023z"/>
		<path fill="#CFB467" d="M147.237,110.824c-0.06-0.154-0.124-0.303-0.187-0.454c-0.063,0.126-0.136,0.259-0.198,0.384
			C146.985,110.771,147.108,110.801,147.237,110.824z"/>
		<path fill="#CFB467" d="M104.889,116.867c1.031-0.932,1.957-1.943,2.804-3.041c0.815-0.994,1.532-2.012,2.171-3.048
			c-0.122,0.136-0.243,0.283-0.366,0.411c-0.381,0.398-0.75,0.688-1.126,0.887c-0.448,0.236-0.857,0.352-1.249,0.352
			c-0.512,0-1.059-0.19-1.477-0.625c-0.207,0.657-0.418,1.313-0.644,1.96c-0.313,0.906-0.627,1.836-0.988,2.723
			c-0.215,0.512-0.492,1.096-0.664,1.612c0.165-0.146,0.352-0.261,0.526-0.397C104.22,117.432,104.565,117.155,104.889,116.867z"/>
		<path fill="#CFB467" d="M140.324,96.351c0.532-0.975,1.186-1.863,1.987-2.631c0.373-0.357,0.771-0.688,1.181-1.001
			c-2.939-2.065-6.191-3.631-9.621-4.589l-1.535-2.655c1.358-1.326,2.306-3,2.771-4.814h4.603c2.009-1.888,4.15-3.53,6.41-4.883
			v-5.796c-1.01,0.505-1.989,1.061-2.937,1.667c0,0.038,0.004,0.073,0.004,0.11c0.001,2.618-1.084,4.948-3.053,6.561
			c-2.029,1.664-4.956,2.542-8.463,2.542h-1.704c-0.055,0.097-0.103,0.196-0.163,0.289c-0.137,0.211-0.29,0.412-0.455,0.604
			c-0.028,0.032-0.059,0.063-0.087,0.095c-0.157,0.174-0.324,0.338-0.504,0.491c-0.021,0.018-0.039,0.036-0.06,0.054
			c-0.194,0.16-0.402,0.305-0.62,0.439c-0.045,0.028-0.092,0.055-0.139,0.082c-0.226,0.13-0.46,0.251-0.71,0.351
			c-0.266,0.107-0.536,0.186-0.807,0.249c-0.048,0.011-0.097,0.023-0.145,0.033c-0.269,0.055-0.538,0.091-0.806,0.104
			c-0.234,0.013-0.467,0.01-0.698-0.008c-0.138-0.01-0.275-0.024-0.412-0.045c-0.074-0.011-0.147-0.022-0.221-0.036
			c-0.127-0.024-0.253-0.055-0.378-0.088c-0.072-0.019-0.145-0.035-0.216-0.058c-0.143-0.044-0.284-0.096-0.422-0.151
			c-0.086-0.034-0.171-0.07-0.255-0.108c-0.133-0.061-0.264-0.124-0.392-0.194c-0.082-0.045-0.159-0.097-0.238-0.146
			c-0.088-0.055-0.175-0.11-0.26-0.17c-0.083-0.058-0.163-0.118-0.242-0.181c-0.076-0.061-0.15-0.123-0.224-0.188
			c-0.077-0.068-0.155-0.137-0.229-0.209c-0.071-0.07-0.138-0.146-0.206-0.22s-0.138-0.146-0.202-0.224
			c-0.118-0.145-0.229-0.296-0.333-0.454c-0.182-0.276-0.337-0.575-0.47-0.89c-0.013-0.031-0.029-0.06-0.042-0.092
			c-0.076-0.188-0.14-0.378-0.193-0.569c-0.013-0.045-0.02-0.09-0.031-0.135c-0.037-0.145-0.071-0.288-0.096-0.434
			c-0.011-0.063-0.016-0.127-0.024-0.19c-0.017-0.127-0.033-0.255-0.041-0.382c-0.004-0.067-0.004-0.135-0.006-0.202
			c-0.003-0.124-0.004-0.248,0-0.371c0.003-0.066,0.009-0.132,0.014-0.197c0.01-0.125,0.022-0.249,0.041-0.373
			c0.009-0.063,0.02-0.125,0.031-0.187c0.023-0.125,0.05-0.25,0.081-0.373c0.015-0.059,0.03-0.117,0.046-0.175
			c0.036-0.124,0.076-0.245,0.12-0.366c0.021-0.057,0.041-0.114,0.063-0.17c0.047-0.117,0.1-0.231,0.154-0.344
			c0.104-0.214,0.218-0.423,0.349-0.623c0.133-0.205,0.281-0.4,0.44-0.586c0.035-0.04,0.072-0.078,0.107-0.117
			c0.146-0.16,0.301-0.312,0.466-0.455c0.032-0.028,0.062-0.058,0.094-0.085c0.184-0.152,0.383-0.29,0.589-0.419
			c0.063-0.039,0.126-0.076,0.191-0.113c0.188-0.107,0.384-0.205,0.588-0.292c0.032-0.013,0.061-0.03,0.093-0.043
			c0.028-0.011,0.056-0.018,0.084-0.029c0.1-0.038,0.202-0.061,0.303-0.092v-4.85c-0.371,0.061-0.742,0.126-1.111,0.23l-2.296-3.976
			c-3.013-0.908-5.828-2.134-8.392-3.675c-0.711,0.601-1.625,0.973-2.65,0.973c-2.297,0-4.097-1.799-4.097-4.097
			c0-0.687,0.176-1.319,0.462-1.882c-0.325-0.343-0.637-0.699-0.945-1.059c-2.356,0.055-3.935,1.542-3.935,2.941
			c0,0.104,0.024,0.193,0.031,0.293c1.55,1.839,3.281,3.494,5.16,4.938c0.039,0.02,0.072,0.038,0.11,0.057
			c1.687,0.86,3.562,1.825,5.081,3.203c1.781,0.894,3.636,1.626,5.55,2.162l1.535,2.657c-1.357,1.327-2.305,3.002-2.769,4.817h-1.84
			c-1.269,3.602-4.889,6.002-9.536,6.002c-0.327,0-0.642-0.023-0.953-0.051c-5.458,3.079-12.26,4.475-21.522,2.051
			c-2.296-0.67-4.418-1.601-6.346-2.742h-8.297c3.19,3.068,7.125,5.519,11.639,7.081c-2.074,1.541-4.081,3.206-5.981,5.023
			c-1.19,1.139-2.293,2.316-3.354,3.51c0.893,0.008,1.479,0.031,1.89,0.222c0.211-0.013,0.439-0.025,0.683-0.04
			c0.469-1.021,1.612-2.063,3.53-3.202c2.82-1.563,5.905-2.733,9.202-3.514c0.103-0.067,0.203-0.141,0.306-0.207
			c0.11-0.071,0.205-0.155,0.3-0.239c0.368,0.049,0.735,0.077,1.103,0.113c1.913-0.307,3.27-0.308,4.269-0.001
			c0.143,0.043,0.256,0.098,0.381,0.147c8.146-0.33,15.851-3.614,21.452-9.09h3.076c0.11,0.431,0.239,0.859,0.409,1.282
			c0.549,1.372,1.368,2.556,2.364,3.525l-2.333,4.036c1.386,5.309,2.045,10.925,0.244,16.771c1.185-1.099,2.975-1.87,5.42-2.352
			c0.762-4.434,0.619-8.965-0.483-13.264l1.54-2.666c1.773,0.501,3.69,0.537,5.558,0.009l2.328,4.03
			C133.757,92.995,137.192,94.3,140.324,96.351z"/>
		<path fill="#CFB467" d="M169.007,76.37l-0.319,0.941c0.095-0.014,0.19-0.034,0.284-0.046c0.549-0.075,1.197-0.124,1.729-0.233
			c-0.208-0.067-0.406-0.176-0.609-0.258C169.738,76.627,169.372,76.493,169.007,76.37z"/>
		<path fill="#CFB467" d="M187.042,104.139c-2.431-3.915-5.456-7.685-9.102-11.174c-1.899-1.815-3.904-3.479-5.977-5.019
			c4.366-1.517,8.35-3.933,11.636-7.085h-5.565c-0.608,0-1.129-0.364-1.364-0.884c-6.554,4.434-15.237,6.059-23.616,3.622
			c-0.686-0.198-1.352-0.419-2.002-0.663c0.844-0.521,1.692-0.974,2.462-1.318c0.586-0.261,1.165-0.514,1.75-0.758h-9.87
			c-0.25,0-0.482-0.067-0.69-0.176c-1.135,0.896-2.241,1.882-3.314,2.979c2.719,1.847,6.878,3.818,10.25,4.798
			c4.596,1.336,9.279,1.637,13.76,1.044c0.092,0.08,0.183,0.161,0.288,0.229c3.09,1.983,6.031,4.285,8.756,6.889
			c1.649,1.579,3.15,3.217,4.52,4.892c0.149,0.03,0.296,0.073,0.438,0.132c0.857,0.404,1.359,1.11,1.435,1.943
			c1.147-0.473,2.3-0.135,2.929,0.91c0.256,0.443,0.378,0.934,0.378,1.482c0,0.212-0.021,0.448-0.065,0.719
			c-0.055,0.312-0.101,0.608-0.139,0.892c0.446-0.52,0.816-0.99,1.105-1.407c0.17-0.23,0.376-0.411,0.602-0.547
			C186.049,105.103,186.519,104.605,187.042,104.139z"/>
		<path fill="#CFB467" d="M158.579,75.105c-1.855,0.131-3.648,0.472-5.381,1.01v1.375h4.502L158.579,75.105z"/>
		<path fill="#CFB467" d="M86.956,111.683c0-0.29,0.028-0.611,0.067-0.943c-0.249,0.085-0.497,0.171-0.746,0.252
			c-1.408,1.155-2.83,2.16-4.265,2.979c-1.909,1.072-3.54,1.746-4.996,2.065c-1.422,0.313-2.568,0.466-3.502,0.466h-0.017
			c-0.585,0-1.151-0.052-1.682-0.154c-1.604-0.291-2.645-0.868-3.166-1.763c-0.193-0.335-0.335-0.651-0.439-0.957
			c-0.965-0.037-1.924-0.095-2.871-0.192l-1.102-0.139l1.004-2.252c1.748-3.619,4.087-7.18,7.001-10.563
			c-1.684,0.118-2.709,0.132-3.558-0.009c-0.687-0.15-1.644-0.37-2.1-1.048c-1.858,2.391-3.476,4.857-4.839,7.378
			c0.039,0.153,0.062,0.311,0.062,0.467c0,0.676-0.322,1.271-0.885,1.633c-0.129,0.08-0.247,0.156-0.374,0.235
			c-0.841,1.772-1.571,3.562-2.168,5.361l-0.897,2.708l2.796,0.569c9.177,1.87,19.332,0.959,29.004-2.459
			C88.039,114.971,86.956,113.903,86.956,111.683z"/>
		<path fill="#CFB467" d="M146.427,102.014c0.416-0.731,0.838-1.456,1.28-2.152c0.449-0.708,0.936-1.411,1.438-2.111
			c-0.725-0.811-1.49-1.576-2.284-2.308c-1.205,0.532-2.153,1.252-2.831,2.193c0.022,0.108,0.034,0.221,0.034,0.337
			c0,0.37-0.121,0.713-0.331,1.063C144.679,99.922,145.58,100.911,146.427,102.014z"/>
		<path fill="#CFB467" d="M191.119,112.236c-0.28-0.13-0.543-0.328-0.757-0.607c-0.059,0.035-0.12,0.082-0.178,0.114
			c-1.373,0.805-2.447,1.184-3.364,1.184h-0.106c-0.012,0-0.023,0-0.035,0c-0.024,0-0.05,0-0.074-0.002
			c-0.275-0.021-0.512-0.067-0.729-0.127l0.222,0.499l-1.103,0.139c-5.147,0.53-10.598,0.152-16.04-1.09
			c-0.2,0.168-0.396,0.34-0.605,0.499c-0.999,0.752-1.887,1.117-2.717,1.117c-0.002,0-0.004,0-0.006,0
			c-0.59-0.002-1.143-0.197-1.598-0.565c-0.041-0.033-0.081-0.068-0.118-0.106c-0.576-0.576-0.881-1.345-0.881-2.222
			c0-0.134,0.026-0.274,0.038-0.41c-1.562-0.541-3.112-1.152-4.646-1.838c-0.291,0.548-0.602,1.1-0.949,1.656
			c-0.518,0.829-1.169,1.581-1.938,2.234c-0.941,0.803-1.816,1.193-2.672,1.193c-0.013,0-0.024,0-0.037,0
			c-0.167-0.005-0.33-0.021-0.494-0.055c-0.064-0.013-0.128-0.03-0.19-0.052c-0.071-0.024-0.159-0.062-0.253-0.105
			c0.809,3.524,0.911,6.998,0.397,10.269l-0.165,0.836l-1.041-0.367c-4.452-1.773-8.467-4.793-11.529-8.725
			c-0.118,0.015-0.241,0.028-0.358,0.043c-1.607,0.227-2.854,0.338-3.791,0.338c-0.143,0-0.288-0.006-0.436-0.017
			c-0.513-0.035-0.977-0.268-1.308-0.655c-0.299-0.349-0.464-0.792-0.464-1.246c0-0.565,0.229-1.077,0.643-1.441
			c0.404-0.346,0.919-0.516,1.421-0.485c0.101,0.007,0.207,0.01,0.318,0.01c0.291,0,0.786-0.04,1.589-0.168
			c-1.215-2.178-2.174-4.546-2.796-7.079c-0.168-0.69-0.312-1.376-0.425-2.061c0.872,0.469,1.687,0.976,2.371,1.472
			c0.911,0.661,1.793,1.298,2.651,2.022c1.293,1.098,2.549,2.268,3.758,3.481c0.564-1.476,1.168-2.911,1.823-4.293
			c-3.623-5.408-9.055-8.888-16.064-10.686c-0.241,3.276,0.132,7.864,0.968,11.271c1.143,4.653,3.229,8.863,5.989,12.45
			c-0.021,0.113-0.046,0.226-0.051,0.345c-0.176,3.666-0.697,7.364-1.596,11.021c-1.538,6.288-4.024,11.821-7.163,16.437
			l-1.45,1.992l-0.672-0.886c-5.651-7.807-9.121-18.079-9.558-29.007c1.711-2.238,3.097-4.653,4.174-7.168
			c-0.968,0.552-1.8,0.823-2.542,0.823h-0.013c-0.183,0-0.367-0.023-0.548-0.057c-0.447,0.368-0.854,0.649-1.225,0.836
			c-0.64,0.323-1.159,0.474-1.633,0.474h-0.004c-0.17,0-0.415-0.026-0.684-0.104c-1.198,1.785-2.667,3.587-4.465,5.404
			c-2.722,2.607-5.786,4.519-8.992,5.749l-0.806,0.277l-0.199-1.087c-0.518-3.553-0.297-7.241,0.63-10.81
			c-0.504-0.072-0.963-0.204-1.359-0.409c-0.176-0.092-0.323-0.21-0.47-0.329c-1.306,1.139-2.457,1.961-3.47,2.473
			c-0.082,0.041-0.162,0.07-0.243,0.107c-0.748,4.686-0.492,9.469,0.837,13.964l0.679,2.299l2.333-0.556
			c4.742-1.131,9.318-3.444,13.313-6.903c1.363,11.713,5.946,22.597,13.016,30.577l1.891,2.136l1.896-2.131
			c5.318-5.98,9.417-13.779,11.648-22.899c0.624-2.548,1.063-5.11,1.359-7.67c3.854,3.326,8.416,5.719,13.297,6.892l2.331,0.563
			l0.686-2.3c1.392-4.662,1.676-9.775,0.683-14.954c10.823,4.674,22.54,6.146,32.987,4.016l2.796-0.569l-0.9-2.708
			C191.702,113.741,191.413,112.989,191.119,112.236z"/>
		<path fill="#CFB467" d="M63.156,51.897h6.05c-1.795-2.54-3.32-5.189-4.536-7.901l-0.424-1.021l2.448-0.265
			c5.568-0.409,11.604,0.206,17.819,2.016c3.618,1.054,7.084,2.45,10.348,4.132c0.114,0.059,0.233,0.099,0.351,0.139
			c0.686,1.657,1.503,3.233,2.423,4.729c1.212-1.106,2.769-1.909,4.533-2.299c-1.58-2.487-2.824-5.295-3.639-8.465
			c-0.892-3.662-1.015-7.272-0.483-10.661l0.165-0.838l1.041,0.37c7.926,3.151,14.463,10.254,16.711,19.423
			c0.168,0.691,0.311,1.378,0.423,2.062c-0.869-0.471-1.685-0.978-2.368-1.474c-0.908-0.657-1.796-1.295-2.652-2.023
			c-2.49-2.115-4.85-4.485-6.988-6.96c-0.628-0.727-1.277-1.463-1.864-2.221c-0.335-0.44-0.701-0.972-1.064-1.381
			c0.044,0.217,0.052,0.44,0.082,0.659c0.057,0.43,0.126,0.867,0.216,1.291c0.289,1.354,0.703,2.666,1.237,3.946
			c0.862,2.288,1.958,4.327,3.263,6.143c3.939,0.677,6.896,3.657,6.896,6.178c0,0.074-0.018,0.143-0.021,0.216
			c2.556,1.587,5.469,2.793,8.729,3.629c0.139-1.9,0.067-4.239-0.177-6.534c-0.25-0.268-0.405-0.625-0.405-1.02v-0.371
			c0-0.229,0.055-0.443,0.146-0.637c-0.148-0.95-0.326-1.867-0.533-2.71c-1.134-4.621-3.197-8.807-5.929-12.377
			c0.44-10.92,3.911-21.182,9.556-28.983l0.672-0.883l1.45,1.993c3.139,4.613,5.625,10.146,7.163,16.43
			c0.899,3.661,1.42,7.355,1.596,11.022c0.006,0.125,0.03,0.243,0.054,0.362c-3.297,4.285-5.427,9.213-6.368,14.282h0.741
			c1.72,0,3.148,0.168,4.365,0.442c1.067-5.396,3.659-10.464,8.139-14.85c2.721-2.604,5.79-4.517,8.992-5.745l0.808-0.28
			l0.198,1.087c0.949,6.52-0.566,13.497-4.448,19.347h5.892c0.505-0.951,0.966-1.92,1.373-2.906
			c0.113-0.039,0.227-0.076,0.336-0.132c3.264-1.682,6.73-3.08,10.347-4.135c6.215-1.81,12.251-2.422,17.82-2.013l2.447,0.262
			l-0.427,1.023c-1.853,4.138-4.429,8.127-7.591,11.804l1.927,5.427c2.053-2.167,3.919-4.458,5.573-6.846
			c-0.084-0.188-0.134-0.394-0.134-0.613v-0.371c0-0.829,0.672-1.5,1.5-1.5h0.247c1.994-3.244,3.61-6.635,4.772-10.113l0.903-2.705
			l-2.794-0.576c-7.842-1.614-16.646-1.263-25.662,1.365c-2.522,0.734-4.965,1.637-7.333,2.66c0.958-5.005,0.75-10.157-0.675-14.975
			l-0.68-2.296l-2.333,0.552c-4.738,1.13-9.312,3.442-13.305,6.897c-0.297-2.562-0.735-5.128-1.36-7.679
			c-2.231-9.116-6.329-16.916-11.648-22.896L125.171,0l-1.89,2.137c-7.068,7.977-11.652,18.859-13.016,30.568
			c-3.855-3.329-8.418-5.723-13.301-6.896l-2.333-0.563l-0.684,2.299c-1.395,4.67-1.678,9.793-0.677,14.983
			c-2.369-1.024-4.814-1.928-7.339-2.664c-9.017-2.627-17.817-2.979-25.662-1.364l-2.793,0.576l0.905,2.704
			C59.545,45.26,61.162,48.652,63.156,51.897z"/>
		<path fill="#CFB467" d="M172.164,73.814c2.158,0.925,4.126,2.092,5.879,3.454l-1.247-3.454H172.164z"/>
		<path fill="#CFB467" d="M165.09,77.491l0.653-1.919c-0.306-0.052-0.606-0.121-0.916-0.162c-0.543-0.089-1.08-0.16-1.613-0.217
			v2.298H165.09z"/>
		<path fill="#CFB467" d="M173.241,63.924l-2.205,6.519h4.506l-0.271-0.77c-1.058-0.5-2.148-0.955-3.28-1.348
			c0.749-0.557,1.478-1.134,2.197-1.72L173.241,63.924z"/>
		<path fill="#CFB467" d="M158.762,66.564v2.782c0,0.829-0.672,1.5-1.5,1.5h-0.371c-0.828,0-1.5-0.671-1.5-1.5v-1.839h-2.193v5.144
			c2.151-0.631,4.386-0.993,6.685-1.083l0.054-0.145c0.217-0.59,0.779-0.981,1.407-0.981h0.37c0.721,0,1.322,0.509,1.467,1.188
			c1.226,0.097,2.467,0.264,3.726,0.527l2.912-8.55c-1.435,1.108-2.93,2.165-4.488,3.15C163.126,66.47,160.927,66.42,158.762,66.564
			z"/>
		<path fill="#CFB467" d="M145.441,39.396c-1.029,0.93-1.957,1.939-2.801,3.042c-2.827,3.447-4.573,7.147-5.345,11.075
			c2.95,1.731,3.294,4.374,3.294,5.448c0,2.363-1.104,3.961-2.532,5.002c0.866,0.394,1.704,0.909,2.445,1.563
			c1.916-1.152,3.926-2.59,5.616-4.038v-6.22h-0.726c-0.044,0-0.084-0.009-0.127-0.013c-0.454,0.502-0.924,0.996-1.42,1.471
			c-0.512,0.491-1.034,0.96-1.571,1.399c-0.031-0.99,0.002-1.952,0.09-2.79c0.116-1.114,0.224-2.199,0.427-3.305
			c0.587-3.214,1.461-6.445,2.536-9.53c0.314-0.908,0.625-1.839,0.99-2.727c0.214-0.512,0.491-1.096,0.664-1.611
			c-0.165,0.146-0.355,0.264-0.527,0.397C146.113,38.825,145.768,39.105,145.441,39.396z"/>
	</g>
</g>
<g id="Layer_1">
	<g>
		<path fill="#FFFFFF" d="M38.271,115.234c-0.356-0.101-0.571-0.265-0.646-0.492c-0.072-0.229-0.109-0.404-0.109-0.527
			c0-0.279,0.097-0.604,0.29-0.977c0.355-0.618,0.903-1.216,1.643-1.787c0.739-0.572,1.522-1.088,2.351-1.545
			c0.829-0.456,1.557-0.823,2.183-1.103c0.31-0.457,0.465-0.774,0.465-0.952c0-0.154-0.089-0.231-0.267-0.231
			c-0.325,0-0.94,0.252-1.847,0.755c-0.797,0.472-2.128,1.438-3.993,2.901l-0.486,0.384c-0.279,0.217-0.559,0.324-0.836,0.324
			c-0.302,0-0.515-0.213-0.639-0.639c-0.015-0.077-0.022-0.162-0.022-0.255c0-0.999,0.913-2.678,2.74-5.039
			c1.594-2.058,3.347-4.051,5.259-5.979l-0.151,0.013c-0.131,0-0.197-0.034-0.197-0.104c0-0.208,0.427-0.557,1.277-1.045
			c0.201-0.101,0.368-0.149,0.5-0.149c0.069,0,0.131,0.016,0.187,0.047c0.154,0.076,0.235,0.164,0.243,0.261
			c0.009,0.097,0.013,0.152,0.013,0.169c0,0.139-0.042,0.251-0.127,0.336c-0.883,0.828-1.871,2.029-2.967,3.604
			c-1.095,1.574-2.114,3.102-3.059,4.578l-1.219,1.882c1.579-1.185,2.964-2.043,4.156-2.577c0.75-0.332,1.381-0.499,1.892-0.499
			c0.263,0,0.499,0.051,0.708,0.15c0.34,0.162,0.511,0.558,0.511,1.186c1.052-0.396,2.174-0.748,3.366-1.058l0.104-0.012
			c0.218,0,0.356,0.108,0.419,0.325l0.012,0.104c0,0.219-0.109,0.354-0.325,0.407c-1.401,0.364-2.693,0.781-3.877,1.254
			c-0.403,0.819-1.049,1.688-1.938,2.601c-1.446,1.485-2.909,2.646-4.388,3.481c-0.325,0.163-0.627,0.244-0.905,0.244
			C38.476,115.27,38.371,115.258,38.271,115.234z M40.441,112.17c1.238-0.967,1.941-1.536,2.113-1.706
			c-1.486,0.828-2.605,1.602-3.355,2.321c-0.472,0.448-0.708,0.691-0.708,0.73c0.008,0.008,0.015,0.012,0.023,0.012
			C38.638,113.528,39.281,113.076,40.441,112.17z"/>
		<path fill="#FFFFFF" d="M44.052,123.233c-0.187-0.132-0.279-0.358-0.279-0.686c0-0.937,0.589-2.229,1.765-3.877
			c1.316-1.818,3.324-3.846,6.025-6.083c0.759-1.348,1.432-2.654,2.021-3.924c-0.379,0.387-0.921,0.86-1.625,1.423
			c-0.705,0.561-1.366,0.949-1.984,1.166c-0.311,0.085-0.572,0.128-0.789,0.128c-0.427,0-0.686-0.155-0.778-0.465
			c-0.039-0.132-0.058-0.274-0.058-0.431c0-0.874,0.568-2.282,1.707-4.225c0.542-0.921,1.036-1.719,1.485-2.392
			c-0.068,0.021-0.124,0.034-0.162,0.034c-0.077,0-0.115-0.034-0.115-0.104c0-0.192,0.316-0.576,0.951-1.148
			c0.171-0.124,0.321-0.187,0.453-0.187c0.094,0,0.183,0.035,0.268,0.104c0.085,0.069,0.128,0.171,0.128,0.303
			c0,0.115-0.039,0.256-0.117,0.418c-1.369,2.454-2.153,4.066-2.35,4.841c-0.198,0.772-0.297,1.262-0.297,1.463
			c0,0.294,0.094,0.441,0.279,0.441c0.696,0,2.283-1.788,4.76-5.363c0.271-0.371,0.519-0.559,0.743-0.559l0.081,0.013
			c0.248,0.046,0.423,0.178,0.528,0.395c0.104,0.218,0.156,0.402,0.156,0.558c0,0.077-0.013,0.15-0.035,0.222
			c-0.48,1.393-1.165,3.014-2.056,4.864c1.448-1.037,3.081-2.117,4.899-3.239c0.077-0.047,0.155-0.069,0.232-0.069
			c0.146,0,0.268,0.069,0.359,0.209c0.039,0.069,0.059,0.14,0.059,0.208c0,0.163-0.065,0.287-0.197,0.372
			c-2.393,1.479-4.458,2.875-6.199,4.19c-2.036,3.907-4.187,7.043-6.455,9.402c-0.89,0.898-1.566,1.472-2.032,1.72
			c-0.464,0.247-0.813,0.371-1.044,0.371C44.246,123.326,44.137,123.296,44.052,123.233z M46.2,120.088
			c1.408-1.456,2.74-3.189,3.994-5.201c-2.74,2.522-4.458,4.612-5.155,6.269C45.425,120.838,45.813,120.482,46.2,120.088z"/>
		<path fill="#FFFFFF" d="M72.099,114.875c-1.152-0.209-1.87-0.559-2.153-1.045c-0.282-0.488-0.423-0.901-0.423-1.242
			c0-1.587,1.509-3.494,4.525-5.724c1.417-1.015,2.868-2.027,4.354-3.042c2.306-1.578,3.459-2.414,3.459-2.508
			c0-0.029-0.619-0.123-1.857-0.277c-0.897-0.116-1.842-0.26-2.833-0.431c-2.366-0.395-3.769-0.956-4.201-1.684
			c-1.23,0.101-2.194,0.151-2.892,0.151c-0.44,0-0.824-0.027-1.148-0.081c-0.729-0.162-1.098-0.307-1.108-0.431
			s-0.018-0.192-0.018-0.209c0-0.224,0.333-0.353,0.997-0.383c0.944,0.008,1.434,0.034,1.464,0.081l0.047,0.058
			c0,0.07-0.426,0.133-1.277,0.187c0.333-0.008,1.339-0.063,3.02-0.162c0.302-0.023,0.546-0.038,0.73-0.046
			c0.008-0.171,0.039-0.345,0.093-0.522c0.209-0.805,1.22-1.745,3.03-2.82c2.739-1.518,5.738-2.65,8.996-3.401
			c1.486-0.31,2.693-0.464,3.622-0.464c0.55,0,1.002,0.054,1.357,0.162c0.773,0.231,1.161,0.613,1.161,1.148
			c0,0.116-0.02,0.239-0.058,0.371c-0.218,0.735-0.883,1.517-1.997,2.339c-1.114,0.825-2.551,1.522-4.307,2.097
			c-2.47,0.789-5.597,1.374-9.381,1.753c0.324,0.354,0.903,0.635,1.735,0.836c0.831,0.202,1.735,0.378,2.711,0.527
			c0.976,0.15,1.848,0.321,2.617,0.512c0.771,0.189,1.232,0.389,1.387,0.598c0.155,0.209,0.232,0.364,0.232,0.464
			c0,0.535-0.979,1.421-2.938,2.659c-0.781,0.495-1.574,0.976-2.38,1.439c-1.045,0.588-2.071,1.221-3.082,1.897
			s-1.964,1.473-2.86,2.385c-0.931,0.991-1.397,1.633-1.405,1.922c-0.008,0.29-0.012,0.439-0.012,0.446
			c0,0.938,0.866,1.405,2.601,1.405c1.169,0,2.484-0.217,3.947-0.649c1.091-0.325,2.09-0.748,2.995-1.267
			c2.939-1.663,5.839-4.12,8.694-7.371c0.085-0.101,0.192-0.151,0.324-0.151c0.093,0,0.188,0.039,0.279,0.116
			c0.093,0.078,0.139,0.184,0.139,0.313c0,0.102-0.034,0.193-0.104,0.277c-2.896,3.299-5.866,5.816-8.916,7.559
			c-1.748,0.982-3.272,1.618-4.573,1.903c-1.3,0.286-2.36,0.431-3.181,0.431C73.013,115.003,72.541,114.96,72.099,114.875z
			 M87.632,94.814c0.883-0.502,1.406-0.89,1.573-1.161c0.166-0.271,0.249-0.451,0.249-0.545c0-0.231-0.216-0.391-0.648-0.477
			c-0.147-0.03-0.325-0.046-0.534-0.046c-0.674,0-1.676,0.144-3.007,0.43c-3.089,0.712-5.922,1.78-8.498,3.203
			c-1.292,0.759-2.031,1.34-2.218,1.742C80.577,97.411,84.938,96.363,87.632,94.814z"/>
		<path fill="#FFFFFF" d="M88.456,111.683c0-0.588,0.093-1.304,0.278-2.146c0.449-1.835,1.252-3.825,2.409-5.975
			c1.156-2.146,2.425-4.037,3.802-5.67c0.976-1.114,1.895-1.938,2.757-2.468c0.863-0.529,1.554-0.795,2.072-0.795
			c0.542,0,0.813,0.283,0.813,0.848c0,0.836-0.662,2.159-1.984,3.97c-1.054,1.401-2.258,2.831-3.616,4.29s-2.583,2.604-3.675,3.432
			c-0.418,0.99-0.725,1.907-0.917,2.751c-0.146,0.658-0.222,1.199-0.222,1.625c0,0.295,0.035,0.534,0.104,0.72
			c0.171,0.418,0.453,0.627,0.848,0.627c0.457,0,1.019-0.2,1.685-0.604c0.596-0.356,1.188-0.782,1.775-1.277
			c1.369-1.176,2.76-2.519,4.167-4.028c0.085-0.085,0.183-0.127,0.29-0.127c0.116,0,0.217,0.04,0.304,0.122
			c0.084,0.081,0.131,0.176,0.139,0.284c0,0.116-0.039,0.22-0.116,0.313c-2.763,2.955-4.995,4.862-6.698,5.723
			c-0.882,0.44-1.69,0.662-2.426,0.662C89.053,113.958,88.456,113.199,88.456,111.683z M95.137,102.326
			c1.041-1.17,1.968-2.3,2.779-3.392c0.79-1.06,1.226-1.708,1.307-1.943c0.082-0.235,0.123-0.386,0.123-0.446
			c0-0.086-0.035-0.128-0.105-0.128c-0.231,0-0.716,0.328-1.45,0.985c-0.519,0.474-1.033,1.002-1.545,1.592
			c-1.578,1.873-2.956,4.009-4.132,6.407C93.088,104.52,94.096,103.494,95.137,102.326z"/>
		<path fill="#FFFFFF" d="M97.975,111.16c-0.434-0.226-0.649-0.589-0.649-1.093c0-0.758,0.554-1.778,1.659-3.063
			c1.021-1.13,2.141-2.077,3.354-2.844c0.798-0.473,1.437-0.708,1.916-0.708c0.14,0,0.264,0.019,0.371,0.058
			c0.41,0.146,0.615,0.441,0.615,0.883c0,0.734-0.499,1.548-1.498,2.438c-0.627,0.533-1.282,0.971-1.968,1.312
			s-1.282,0.511-1.793,0.511h-0.162c-0.364,0.505-0.546,0.887-0.546,1.149c0,0.063,0.012,0.12,0.034,0.174
			c0.124,0.265,0.312,0.397,0.563,0.401s0.4,0.005,0.447,0.005c0.41,0,0.843-0.054,1.3-0.162c0.526-0.116,0.96-0.244,1.3-0.383
			c0.906-0.349,1.749-0.772,2.531-1.271c0.781-0.499,1.416-0.997,1.904-1.491c0.085-0.084,0.182-0.128,0.29-0.128
			c0.114,0,0.216,0.044,0.302,0.128c0.085,0.086,0.127,0.187,0.127,0.303c0,0.107-0.038,0.208-0.115,0.301
			c-0.519,0.526-1.194,1.057-2.032,1.591c-0.835,0.534-1.732,0.991-2.692,1.37c-1.106,0.426-1.956,0.669-2.548,0.731
			c-0.593,0.062-1,0.093-1.226,0.093C98.857,111.462,98.362,111.361,97.975,111.16z M103.188,106.191
			c0.734-0.643,1.103-1.014,1.103-1.114c0-0.022-0.016-0.033-0.046-0.033c-0.116,0-0.384,0.129-0.802,0.388
			c-0.417,0.26-0.893,0.6-1.422,1.021c-0.53,0.423-1.017,0.864-1.457,1.328C101.354,107.55,102.228,107.02,103.188,106.191z"/>
		<path fill="#FFFFFF" d="M112.092,110.835c-0.101-0.388-0.154-0.82-0.162-1.3c0.008-1.122,0.097-2.18,0.268-3.171
			c-0.674,0.542-1.424,1.23-2.253,2.067c-0.224,0.231-0.468,0.506-0.731,0.824c-0.263,0.315-0.526,0.614-0.795,0.894
			c-0.267,0.278-0.515,0.479-0.743,0.599c-0.228,0.12-0.411,0.18-0.551,0.18c-0.44,0-0.662-0.363-0.662-1.091
			c0-0.265,0.112-0.654,0.337-1.173l2.24-5.179c0.155-0.348,0.41-0.521,0.768-0.521c0.115,0,0.231,0.021,0.348,0.069
			c0.341,0.161,0.512,0.422,0.512,0.776c0,0.108-0.022,0.221-0.069,0.337l-1.812,4.227l0.557-0.546h0.013
			c0.921-0.938,1.684-1.638,2.287-2.102c0.627-0.573,1.148-0.858,1.566-0.858c0.232,0,0.431,0.135,0.592,0.405
			c0.108,0.187,0.163,0.422,0.163,0.708c0,0.141-0.016,0.298-0.047,0.478c-0.192,1.105-0.29,2.064-0.29,2.879
			c0,0.315,0.013,0.576,0.035,0.776c0.03,0.333,0.15,0.499,0.359,0.499c0.362,0,0.968-0.468,1.811-1.403
			c0.743-0.82,1.332-1.544,1.766-2.171c0.094-0.124,0.213-0.187,0.359-0.187c0.085,0,0.17,0.03,0.255,0.093s0.135,0.126,0.146,0.191
			s0.018,0.11,0.018,0.133c0,0.094-0.022,0.18-0.069,0.256c-0.201,0.287-0.544,0.712-1.027,1.277
			c-0.483,0.564-1.026,1.13-1.631,1.694s-1.112,0.952-1.526,1.161s-0.732,0.313-0.957,0.313
			C112.641,111.973,112.285,111.594,112.092,110.835z"/>
		<path fill="#FFFFFF" d="M116.248,110.685c-0.349-0.086-0.521-0.379-0.521-0.883c0-0.674,0.263-1.334,0.789-1.985
			c0.959-1.184,2.79-2.016,5.49-2.495h0.034c0.102,0,0.197,0.036,0.291,0.109c0.093,0.074,0.14,0.173,0.14,0.297
			c0,0.264-0.128,0.41-0.384,0.44c-0.465,0.068-1.069,0.305-1.816,0.702c-0.746,0.398-1.394,0.833-1.938,1.301
			s-0.817,0.865-0.817,1.188c0,0.155,0.065,0.232,0.196,0.232c0.226,0,0.67-0.274,1.335-0.824c0.729-0.588,1.339-1.13,1.834-1.625
			c0.442-0.449,0.824-0.674,1.15-0.674c0.216,0,0.324,0.082,0.324,0.244c0,0.107-0.05,0.248-0.15,0.418
			c-0.101,0.171-0.168,0.36-0.203,0.568c-0.035,0.209-0.053,0.395-0.053,0.558c0,0.101,0.008,0.205,0.023,0.313
			c0.054,0.41,0.141,0.627,0.262,0.65c0.119,0.022,0.198,0.035,0.237,0.035c0.285,0,0.73-0.256,1.335-0.768
			c0.409-0.341,0.99-0.75,1.74-1.229c0.441-0.271,0.807-0.406,1.093-0.406c0.115,0,0.217,0.04,0.302,0.122
			c0.085,0.081,0.128,0.185,0.128,0.307c0,0.116-0.043,0.219-0.128,0.303c-0.085,0.086-0.187,0.128-0.302,0.128
			c-0.218,0-0.849,0.375-1.894,1.126l-0.186,0.14c-1.037,0.774-1.809,1.161-2.312,1.161c-0.131,0-0.259-0.02-0.383-0.058
			c-0.387-0.116-0.635-0.589-0.743-1.417c-0.008-0.123-0.012-0.251-0.012-0.384v-0.196c-0.239,0.23-0.669,0.58-1.288,1.044
			c-1.401,1.062-2.48,1.591-3.239,1.591C116.468,110.719,116.356,110.707,116.248,110.685z"/>
		<path fill="#FFFFFF" d="M148.463,115.757c-0.187-0.131-0.303-0.317-0.349-0.557c-0.194-0.944-1.323-1.416-3.391-1.416
			c-0.742,0-1.481,0.029-2.218,0.093c-1.191,0.107-2.359,0.234-3.506,0.383c-1.54,0.217-2.738,0.325-3.599,0.325
			c-0.108,0-0.219-0.005-0.331-0.013s-0.203-0.053-0.272-0.134s-0.104-0.173-0.104-0.271c0-0.132,0.044-0.236,0.133-0.314
			c0.089-0.076,0.188-0.115,0.297-0.115h0.034c0.132,0.009,0.271,0.013,0.418,0.013c0.875,0,2.368-0.236,4.481-0.708
			c1.113-0.248,2.229-0.465,3.343-0.65c1.494-4.326,3.352-8.233,5.572-11.726c1.779-2.802,3.967-5.511,6.56-8.126
			c-2.856,0.055-5.321,0.345-7.396,0.871c-2.956,0.759-4.977,2.295-6.061,4.607c0.178-0.101,0.311-0.149,0.396-0.149
			c0.063,0,0.093,0.033,0.093,0.104c0,0.216-0.325,0.646-0.976,1.289l-0.047,0.057c-0.077,0.063-0.158,0.095-0.243,0.095
			c-0.063,0-0.111-0.009-0.15-0.023c-0.201-0.054-0.302-0.186-0.302-0.395c0-0.046,0.004-0.09,0.012-0.128
			c0.503-1.603,1.333-2.956,2.49-4.063c1.155-1.106,2.493-1.974,4.011-2.601c2.004-0.835,4.117-1.253,6.339-1.253
			c1.045,0,2.186,0.076,3.424,0.23l0.035,0.013c2.693,0.341,4.833,0.982,6.42,1.928c0.139,0.085,0.209,0.2,0.209,0.348
			c0,0.077-0.027,0.161-0.082,0.25c-0.054,0.089-0.117,0.142-0.19,0.156c-0.073,0.017-0.125,0.022-0.156,0.022
			c-0.077,0-0.151-0.02-0.221-0.058c-1.395-0.805-3.519-1.235-6.373-1.289c-1.882,2.104-4.006,5.069-6.374,8.893
			c-2.508,4.049-4.48,7.654-5.92,10.819c0.426-0.054,0.832-0.081,1.219-0.081c0.852,0,1.608,0.124,2.274,0.371
			c0.977,0.356,1.582,1.143,1.822,2.356l0.012,0.162c0,0.171-0.05,0.329-0.149,0.477c-0.171,0.24-0.402,0.36-0.697,0.36
			C148.771,115.908,148.609,115.857,148.463,115.757z"/>
		<path fill="#FFFFFF" d="M152.63,112.379c-0.448-0.154-0.678-0.541-0.686-1.161c0-0.813,0.372-2.491,1.115-5.038
			c0.362-1.253,0.546-2.009,0.546-2.264c0-0.146-0.018-0.288-0.047-0.424c-0.031-0.136-0.047-0.249-0.047-0.344
			c0-0.062,0.01-0.119,0.028-0.174c0.02-0.054,0.071-0.081,0.156-0.081c0.078,0,0.183,0.023,0.313,0.07
			c0.395,0.162,0.635,0.482,0.72,0.963c0.039,0.225,0.059,0.465,0.059,0.72c0,0.806-0.235,1.993-0.708,3.563
			c-0.24,0.852-0.359,1.382-0.359,1.591c0,0.124,0.026,0.186,0.082,0.186c0.161,0,0.665-0.592,1.509-1.775
			c0.472-0.644,0.973-1.292,1.503-1.949c0.53-0.658,1.031-1.169,1.504-1.532c0.255-0.193,0.476-0.291,0.661-0.291
			c0.248,0,0.563,0.217,0.952,0.65c0.2,0.225,0.482,0.472,0.848,0.743c0.897,0.681,2.275,1.021,4.132,1.021
			c0.117,0,0.215,0.04,0.297,0.122c0.081,0.081,0.122,0.185,0.122,0.307c0,0.116-0.041,0.219-0.122,0.303
			c-0.082,0.086-0.18,0.128-0.297,0.128c-1.624,0-2.921-0.247-3.888-0.742c-0.644-0.318-1.208-0.743-1.695-1.277
			c-0.192-0.217-0.329-0.324-0.406-0.324c-0.039,0-0.073,0.012-0.104,0.034c-0.255,0.201-0.501,0.497-0.737,0.889
			c-0.235,0.391-0.479,0.838-0.726,1.341c-0.333,0.666-0.718,1.349-1.155,2.049c-0.438,0.701-0.981,1.329-1.637,1.887
			c-0.654,0.558-1.221,0.836-1.7,0.836C152.784,112.402,152.707,112.395,152.63,112.379z"/>
		<path fill="#FFFFFF" d="M164.97,112.229c-0.295-0.295-0.441-0.682-0.441-1.161c0-0.563,0.112-1.161,0.337-1.788
			c0.201-0.549,0.398-1.006,0.592-1.369c-0.681-0.627-1.021-1.246-1.021-1.857c0-0.673,0.283-1.284,0.848-1.833
			c0.526-0.512,1.186-0.887,1.974-1.127c0.665-0.193,1.258-0.29,1.776-0.29c0.526,0,0.971,0.104,1.335,0.313
			c0.711,0.418,1.087,0.87,1.126,1.357c0.038,0.487,0.059,0.781,0.059,0.882c0,1.091-0.423,2.219-1.266,3.378
			c1.896-0.054,3.835-0.656,5.815-1.811c0.077-0.047,0.155-0.069,0.231-0.069c0.146,0,0.268,0.069,0.359,0.209
			c0.039,0.069,0.059,0.144,0.059,0.221c0,0.154-0.069,0.274-0.209,0.359c-2.229,1.301-4.368,1.95-6.42,1.95
			c-0.14,0-0.298-0.008-0.476-0.022c-0.644,0.759-1.378,1.45-2.206,2.077c-0.72,0.542-1.323,0.813-1.812,0.813
			C165.384,112.46,165.163,112.384,164.97,112.229z M168.046,104.636c-0.657,0.162-1.152,0.395-1.485,0.697
			c-0.302,0.271-0.452,0.584-0.452,0.938c0,0.141,0.02,0.287,0.058,0.441C166.699,105.94,167.326,105.248,168.046,104.636z
			 M167.46,110.458c0.431-0.329,0.833-0.684,1.213-1.063c-0.571-0.131-1.152-0.325-1.74-0.581c-0.069,0.141-0.17,0.368-0.303,0.687
			c-0.231,0.534-0.349,0.913-0.349,1.138c0,0.209,0.078,0.313,0.232,0.313C166.715,110.951,167.03,110.787,167.46,110.458z
			 M170.055,107.538c0.395-0.721,0.592-1.319,0.592-1.801c0-0.665-0.337-1.066-1.011-1.207c-0.682,0.666-1.446,1.823-2.299,3.473
			c0.588,0.332,1.238,0.557,1.95,0.673C169.574,108.304,169.83,107.925,170.055,107.538z"/>
		<path fill="#FFFFFF" d="M180.77,110.835c-0.102-0.388-0.155-0.82-0.163-1.3c0.008-1.122,0.098-2.18,0.268-3.171
			c-0.673,0.542-1.424,1.23-2.252,2.067c-0.225,0.231-0.469,0.506-0.73,0.824c-0.264,0.315-0.528,0.614-0.795,0.894
			c-0.269,0.278-0.517,0.479-0.743,0.599c-0.229,0.12-0.412,0.18-0.552,0.18c-0.441,0-0.662-0.363-0.662-1.091
			c0-0.265,0.112-0.654,0.338-1.173l2.24-5.179c0.153-0.348,0.408-0.521,0.766-0.521c0.116,0,0.231,0.021,0.349,0.069
			c0.34,0.161,0.512,0.422,0.512,0.776c0,0.108-0.023,0.221-0.07,0.337l-1.812,4.227l0.558-0.546h0.013
			c0.92-0.938,1.683-1.638,2.286-2.102c0.627-0.573,1.149-0.858,1.568-0.858c0.229,0,0.429,0.135,0.592,0.405
			c0.107,0.187,0.162,0.422,0.162,0.708c0,0.141-0.017,0.298-0.046,0.478c-0.194,1.105-0.291,2.064-0.291,2.879
			c0,0.315,0.012,0.576,0.034,0.776c0.03,0.333,0.15,0.499,0.359,0.499c0.364,0,0.968-0.468,1.811-1.403
			c0.744-0.82,1.332-1.544,1.767-2.171c0.092-0.124,0.213-0.187,0.358-0.187c0.086,0,0.171,0.03,0.257,0.093
			c0.085,0.063,0.133,0.126,0.145,0.191s0.019,0.11,0.019,0.133c0,0.094-0.023,0.18-0.069,0.256
			c-0.202,0.287-0.544,0.712-1.027,1.277c-0.483,0.564-1.026,1.13-1.631,1.694c-0.604,0.564-1.113,0.952-1.527,1.161
			c-0.413,0.209-0.732,0.313-0.958,0.313C181.318,111.973,180.963,111.594,180.77,110.835z"/>
		<path fill="#FFFFFF" d="M186.714,111.428c-0.642-0.047-1.014-0.252-1.113-0.616c-0.102-0.362-0.151-0.657-0.151-0.882
			c0-0.395,0.086-0.84,0.255-1.335c0.21-0.611,0.533-1.229,0.97-1.852c0.438-0.623,0.975-1.194,1.608-1.714
			c0.225-0.17,0.422-0.255,0.592-0.255c0.063,0,0.12,0.013,0.174,0.035c0.218,0.076,0.333,0.178,0.35,0.301
			c0.016,0.124,0.022,0.197,0.022,0.223c0,0.208-0.132,0.425-0.395,0.648c-0.35,0.325-0.705,0.836-1.068,1.532
			c-0.525,1.007-0.789,1.737-0.789,2.194c0,0.256,0.088,0.426,0.268,0.511c0.054,0.023,0.12,0.035,0.196,0.035
			c0.303,0,0.763-0.183,1.383-0.546c0.882-0.503,1.941-1.408,3.181-2.717c0.093-0.094,0.201-0.14,0.325-0.14
			c0.101,0,0.192,0.04,0.277,0.122c0.085,0.081,0.128,0.152,0.128,0.214v0.093c0,0.109-0.038,0.205-0.115,0.291
			c-1.292,1.37-2.414,2.325-3.367,2.867c-1.122,0.657-1.996,0.987-2.623,0.987h-0.106V111.428z M191.265,102.859
			c0.085-0.107,0.128-0.221,0.128-0.336c0-0.193-0.074-0.316-0.223-0.372c-0.106-0.046-0.191-0.068-0.255-0.068
			c-0.132,0-0.286,0.042-0.464,0.128c-0.465,0.23-0.697,0.387-0.697,0.464c0,0.039,0.056,0.059,0.163,0.059
			c0.102,0,0.236-0.016,0.406-0.047c-0.534,0.743-0.801,1.229-0.801,1.451c0.007,0.093,0.05,0.14,0.128,0.14
			C189.875,104.276,190.413,103.805,191.265,102.859z"/>
		<path fill="#FFFFFF" d="M196.964,110.835c-0.101-0.388-0.153-0.82-0.161-1.3c0.008-1.122,0.097-2.18,0.267-3.171
			c-0.673,0.542-1.424,1.23-2.252,2.067c-0.226,0.231-0.469,0.506-0.731,0.824c-0.263,0.315-0.526,0.614-0.795,0.894
			c-0.268,0.278-0.515,0.479-0.743,0.599c-0.228,0.12-0.41,0.18-0.552,0.18c-0.439,0-0.661-0.363-0.661-1.091
			c0-0.265,0.112-0.654,0.337-1.173l2.24-5.179c0.154-0.348,0.41-0.521,0.767-0.521c0.115,0,0.231,0.021,0.349,0.069
			c0.341,0.161,0.511,0.422,0.511,0.776c0,0.108-0.022,0.221-0.068,0.337l-1.813,4.227l0.558-0.546h0.013
			c0.921-0.938,1.683-1.638,2.287-2.102c0.627-0.573,1.148-0.858,1.566-0.858c0.231,0,0.43,0.135,0.592,0.405
			c0.108,0.187,0.162,0.422,0.162,0.708c0,0.141-0.015,0.298-0.046,0.478c-0.192,1.105-0.291,2.064-0.291,2.879
			c0,0.315,0.013,0.576,0.035,0.776c0.031,0.333,0.151,0.499,0.36,0.499c0.362,0,0.967-0.468,1.811-1.403
			c0.743-0.82,1.331-1.544,1.766-2.171c0.093-0.124,0.213-0.187,0.358-0.187c0.086,0,0.171,0.03,0.256,0.093
			s0.135,0.126,0.146,0.191c0.013,0.065,0.019,0.11,0.019,0.133c0,0.094-0.022,0.18-0.069,0.256
			c-0.201,0.287-0.543,0.712-1.027,1.277c-0.483,0.564-1.027,1.13-1.631,1.694c-0.604,0.564-1.112,0.952-1.526,1.161
			c-0.415,0.209-0.732,0.313-0.958,0.313C197.514,111.973,197.158,111.594,196.964,110.835z"/>
		<path fill="#FFFFFF" d="M201.119,110.685c-0.348-0.086-0.521-0.379-0.521-0.883c0-0.674,0.264-1.334,0.789-1.985
			c0.96-1.184,2.79-2.016,5.49-2.495h0.035c0.102,0,0.197,0.036,0.29,0.109c0.093,0.074,0.14,0.173,0.14,0.297
			c0,0.264-0.128,0.41-0.384,0.44c-0.464,0.068-1.068,0.305-1.815,0.702c-0.747,0.398-1.395,0.833-1.939,1.301
			s-0.816,0.865-0.816,1.188c0,0.155,0.064,0.232,0.196,0.232c0.226,0,0.669-0.274,1.335-0.824c0.729-0.588,1.339-1.13,1.834-1.625
			c0.441-0.449,0.824-0.674,1.149-0.674c0.216,0,0.325,0.082,0.325,0.244c0,0.107-0.051,0.248-0.151,0.418
			c-0.101,0.171-0.169,0.36-0.203,0.568c-0.034,0.209-0.053,0.395-0.053,0.558c0,0.101,0.008,0.205,0.023,0.313
			c0.055,0.41,0.142,0.627,0.262,0.65c0.12,0.022,0.199,0.035,0.238,0.035c0.284,0,0.729-0.256,1.334-0.768
			c0.409-0.341,0.99-0.75,1.741-1.229c0.44-0.271,0.806-0.406,1.092-0.406c0.115,0,0.217,0.04,0.302,0.122
			c0.086,0.081,0.128,0.185,0.128,0.307c0,0.116-0.042,0.219-0.128,0.303c-0.085,0.086-0.187,0.128-0.302,0.128
			c-0.218,0-0.849,0.375-1.894,1.126l-0.185,0.14c-1.038,0.774-1.809,1.161-2.312,1.161c-0.132,0-0.26-0.02-0.384-0.058
			c-0.387-0.116-0.635-0.589-0.743-1.417c-0.008-0.123-0.011-0.251-0.011-0.384v-0.196c-0.24,0.23-0.67,0.58-1.289,1.044
			c-1.4,1.062-2.48,1.591-3.238,1.591C201.341,110.719,201.229,110.707,201.119,110.685z"/>
	</g>
	<g>
		<path fill="#FFFFFF" stroke="#FFFFFF" stroke-width="0.5" stroke-miterlimit="10" d="M15.951,53.396v7.419H15.58l-2.597-7.048
			H6.306v11.87h5.192v-3.339h0.371v7.048h-0.371v-3.339H6.306V78.99h7.048l2.597-7.048h0.371v7.419H0V78.99h2.227V53.768H0v-0.371
			L15.951,53.396L15.951,53.396z"/>
		<path fill="#FFFFFF" stroke="#FFFFFF" stroke-width="0.5" stroke-miterlimit="10" d="M42.285,53.768h-2.968L30.6,79.363h-0.742
			L20.77,53.768h-2.227v-0.371h8.902v0.371H25.22l7.048,19.66l6.677-19.66h-2.968v-0.371h6.306v0.371H42.285z"/>
		<path fill="#FFFFFF" stroke="#FFFFFF" stroke-width="0.5" stroke-miterlimit="10" d="M60.831,78.991v0.37h-8.902v-0.37h2.226
			l-2.411-6.678h-9.051l-2.263,6.678h2.967v0.37H37.09v-0.37h2.968l8.717-25.596h0.742l9.088,25.596H60.831z M51.557,71.943
			l-4.451-12.611L42.84,71.943H51.557z"/>
		<path fill="#FFFFFF" stroke="#FFFFFF" stroke-width="0.5" stroke-miterlimit="10" d="M79.746,71.943v7.419H63.054v-0.37h2.226
			V53.768h-2.226v-0.371h8.53v0.371h-2.226v25.225h7.419l2.597-7.049L79.746,71.943L79.746,71.943z"/>
		<path fill="#FFFFFF" stroke="#FFFFFF" stroke-width="0.5" stroke-miterlimit="10" d="M83.453,53.768v-0.371h8.531v0.371h-2.227
			v25.225h2.227v0.37h-8.531v-0.37h2.227V53.768H83.453z"/>
		<path fill="#FFFFFF" stroke="#FFFFFF" stroke-width="0.5" stroke-miterlimit="10" d="M109.788,74.911
			c0-7.419-13.354-5.937-13.354-15.209c0-3.709,3.339-7.049,8.161-7.049c4.079,0,7.048,2.969,7.048,4.822
			c0,1.483-1.113,2.597-2.598,2.597c-1.483,0-2.597-1.112-2.597-2.597c0-1.483,1.112-2.597,2.597-2.597
			c0.371,0,0.928,0.186,0.928,0.186s-2.04-2.04-5.378-2.04c-3.34,0-5.564,2.227-5.564,4.451c0,7.419,13.354,5.936,13.354,15.209
			c0,4.08-3.339,7.419-8.531,7.419c-5.564,0-8.531-5.008-8.531-5.008v-0.52c0.147,0.223,3.078,5.155,8.531,5.155
			C107.563,79.733,109.788,77.508,109.788,74.911z"/>
		<path fill="#FFFFFF" stroke="#FFFFFF" stroke-width="0.5" stroke-miterlimit="10" d="M131.671,79.362h-8.901v-0.37h2.226V53.768
			h-2.226v-0.371h7.048c6.677,0,9.272,2.598,9.272,5.563c0,4.822-5.935,5.192-5.935,5.192v0.187c0,0,8.531,0.186,8.531,7.419
			C141.687,76.023,138.348,79.362,131.671,79.362z M129.074,53.768v10.386h0.742c2.968,0,4.858-0.557,4.822-0.557v-9.272
			c0,0-1.854-0.557-4.822-0.557H129.074z M137.235,77.879V65.638c0,0-2.227-1.113-5.564-1.113h-2.597v14.468h2.597
			C135.01,78.991,137.235,77.879,137.235,77.879z"/>
		<path fill="#FFFFFF" stroke="#FFFFFF" stroke-width="0.5" stroke-miterlimit="10" d="M161.343,53.396v7.419h-0.369l-2.598-7.048
			h-6.678v11.87h5.193v-3.339h0.371v7.048h-0.371v-3.339h-5.193V78.99h7.048l2.598-7.048h0.37v7.419h-16.32V78.99h2.226V53.768
			h-2.226v-0.371L161.343,53.396L161.343,53.396z"/>
		<path fill="#FFFFFF" stroke="#FFFFFF" stroke-width="0.5" stroke-miterlimit="10" d="M186.936,78.991v0.37h-8.902v-0.37h2.226
			l-2.41-6.678h-9.052l-2.263,6.678h2.968v0.37h-6.307v-0.37h2.968l8.717-25.596h0.742l9.088,25.596H186.936z M177.662,71.943
			l-4.451-12.611l-4.266,12.611H177.662z"/>
		<path fill="#FFFFFF" stroke="#FFFFFF" stroke-width="0.5" stroke-miterlimit="10" d="M197.878,80.104
			c-5.008,0-8.718-3.71-8.718-9.645V53.768h-2.226v-0.371h8.531v0.371h-2.226v24.667c0,0,1.854,1.299,4.637,1.299
			c4.822,0,8.347-3.523,8.347-9.272V57.514c-0.037,0.074-0.816,1.446-2.598,1.446c-1.669,0-2.968-1.298-2.968-2.967
			c0-1.671,1.299-2.969,2.968-2.969s2.969,1.298,2.969,2.969V70.46C206.595,76.395,202.885,80.104,197.878,80.104z"/>
		<path fill="#FFFFFF" stroke="#FFFFFF" stroke-width="0.5" stroke-miterlimit="10" d="M229.59,60.815h-0.369l-2.598-7.048h-4.451
			v25.225h2.227v0.37h-8.532v-0.37h2.226V53.768h-4.45l-2.598,7.048h-0.371v-7.419h18.918L229.59,60.815L229.59,60.815z"/>
		<path fill="#FFFFFF" stroke="#FFFFFF" stroke-width="0.5" stroke-miterlimit="10" d="M244.425,78.991h2.227v0.37h-8.531v-0.37
			h2.227V67.863l-7.049-14.096h-2.226v-0.371h8.902v0.371h-2.227l6.677,13.354l6.679-13.354h-2.969v-0.371h6.307v0.371h-2.968
			l-7.049,14.096V78.991L244.425,78.991z"/>
	</g>
</g>
</svg>
