<?xml version="1.0" encoding="utf-8"?>
<!-- Generator: Adobe Illustrator 19.2.1, SVG Export Plug-In . SVG Version: 6.00 Build 0)  -->
<svg version="1.1" id="Layer_1" xmlns="http://www.w3.org/2000/svg" xmlns:xlink="http://www.w3.org/1999/xlink" x="0px" y="0px"
	 width="254.941px" height="70.921px" viewBox="0 0 254.941 70.921" enable-background="new 0 0 254.941 70.921"
	 xml:space="preserve">
<g>
	<path fill="#FFFFFF" d="M38.521,62.83c-0.356-0.101-0.571-0.265-0.645-0.493c-0.073-0.229-0.11-0.404-0.11-0.527
		c0-0.279,0.097-0.604,0.29-0.976c0.356-0.619,0.904-1.216,1.643-1.788c0.739-0.572,1.522-1.087,2.351-1.544
		s1.556-0.824,2.182-1.103c0.31-0.457,0.465-0.774,0.465-0.952c0-0.154-0.089-0.232-0.267-0.232c-0.325,0-0.94,0.252-1.846,0.755
		c-0.797,0.472-2.128,1.439-3.993,2.902l-0.487,0.383c-0.279,0.217-0.558,0.325-0.836,0.325c-0.301,0-0.514-0.213-0.638-0.639
		c-0.015-0.077-0.023-0.162-0.023-0.255c0-0.999,0.913-2.678,2.74-5.039c1.594-2.058,3.347-4.051,5.259-5.979l-0.151,0.012
		c-0.131,0-0.197-0.034-0.197-0.104c0-0.208,0.426-0.557,1.277-1.045c0.201-0.101,0.368-0.15,0.5-0.15
		c0.069,0,0.131,0.016,0.186,0.047c0.155,0.076,0.236,0.164,0.244,0.261s0.012,0.152,0.012,0.169c0,0.139-0.042,0.251-0.127,0.336
		c-0.882,0.828-1.871,2.029-2.966,3.604s-2.115,3.102-3.059,4.579l-1.219,1.881c1.579-1.184,2.964-2.043,4.156-2.577
		c0.75-0.332,1.381-0.499,1.892-0.499c0.263,0,0.499,0.051,0.708,0.151c0.34,0.162,0.511,0.557,0.511,1.185
		c1.052-0.396,2.174-0.748,3.366-1.057l0.104-0.012c0.217,0,0.356,0.108,0.418,0.325l0.012,0.104c0,0.218-0.109,0.353-0.325,0.407
		c-1.401,0.364-2.693,0.781-3.877,1.254c-0.403,0.819-1.049,1.687-1.938,2.6c-1.447,1.486-2.91,2.647-4.388,3.482
		c-0.325,0.163-0.627,0.244-0.905,0.244C38.726,62.866,38.621,62.854,38.521,62.83z M40.691,59.766
		c1.238-0.967,1.942-1.536,2.113-1.706c-1.486,0.828-2.605,1.602-3.355,2.321c-0.472,0.449-0.708,0.692-0.708,0.731
		c0.008,0.008,0.015,0.012,0.023,0.012C38.888,61.124,39.531,60.672,40.691,59.766z"/>
	<path fill="#FFFFFF" d="M44.302,70.829c-0.186-0.132-0.279-0.359-0.279-0.686c0-0.936,0.589-2.229,1.765-3.877
		c1.316-1.818,3.324-3.846,6.025-6.083c0.759-1.347,1.432-2.654,2.021-3.924c-0.379,0.387-0.921,0.861-1.625,1.423
		c-0.705,0.561-1.366,0.949-1.985,1.166c-0.31,0.085-0.572,0.128-0.789,0.128c-0.426,0-0.685-0.155-0.778-0.465
		c-0.039-0.132-0.058-0.274-0.058-0.43c0-0.874,0.569-2.283,1.707-4.225c0.542-0.921,1.037-1.719,1.486-2.392
		c-0.069,0.022-0.124,0.035-0.162,0.035c-0.078,0-0.116-0.035-0.116-0.105c0-0.192,0.317-0.576,0.952-1.148
		c0.17-0.124,0.321-0.187,0.453-0.187c0.093,0,0.182,0.035,0.267,0.104s0.128,0.171,0.128,0.302c0,0.116-0.039,0.256-0.117,0.418
		c-1.369,2.454-2.153,4.067-2.35,4.841c-0.198,0.773-0.296,1.262-0.296,1.463c0,0.294,0.093,0.441,0.279,0.441
		c0.696,0,2.283-1.788,4.76-5.363c0.271-0.371,0.518-0.558,0.743-0.558l0.081,0.012c0.248,0.046,0.423,0.178,0.528,0.395
		c0.104,0.218,0.156,0.402,0.156,0.557c0,0.078-0.012,0.151-0.035,0.222c-0.48,1.393-1.165,3.014-2.055,4.864
		c1.448-1.037,3.081-2.117,4.899-3.239c0.077-0.047,0.155-0.069,0.232-0.069c0.147,0,0.268,0.069,0.36,0.209
		c0.039,0.069,0.058,0.139,0.058,0.208c0,0.163-0.065,0.287-0.197,0.372c-2.392,1.479-4.458,2.875-6.199,4.19
		c-2.036,3.908-4.187,7.043-6.455,9.403c-0.89,0.898-1.567,1.471-2.032,1.719c-0.464,0.247-0.813,0.371-1.044,0.371
		C44.496,70.922,44.387,70.892,44.302,70.829z M46.45,67.684c1.408-1.456,2.74-3.189,3.994-5.201
		c-2.74,2.522-4.458,4.612-5.155,6.269C45.675,68.434,46.063,68.078,46.45,67.684z"/>
	<path fill="#FFFFFF" d="M72.349,62.471c-1.152-0.209-1.87-0.558-2.153-1.045c-0.282-0.488-0.423-0.901-0.423-1.242
		c0-1.587,1.509-3.494,4.526-5.723c1.417-1.015,2.868-2.028,4.354-3.042c2.306-1.579,3.459-2.415,3.459-2.508
		c0-0.03-0.619-0.123-1.857-0.278c-0.898-0.116-1.842-0.259-2.833-0.43c-2.367-0.395-3.769-0.956-4.202-1.684
		c-1.23,0.101-2.194,0.151-2.891,0.151c-0.441,0-0.824-0.027-1.149-0.081c-0.728-0.162-1.097-0.306-1.108-0.43
		s-0.018-0.193-0.018-0.209c0-0.224,0.333-0.353,0.998-0.383c0.944,0.008,1.433,0.034,1.463,0.081l0.047,0.058
		c0,0.07-0.426,0.132-1.277,0.186c0.333-0.008,1.339-0.062,3.019-0.162c0.302-0.023,0.546-0.038,0.731-0.046
		c0.008-0.171,0.039-0.345,0.093-0.522c0.209-0.805,1.219-1.745,3.03-2.821c2.739-1.517,5.738-2.65,8.996-3.401
		c1.486-0.31,2.693-0.464,3.622-0.464c0.55,0,1.002,0.054,1.358,0.162c0.773,0.232,1.161,0.614,1.161,1.149
		c0,0.116-0.02,0.239-0.058,0.371c-0.218,0.735-0.883,1.516-1.997,2.339c-1.114,0.825-2.551,1.522-4.307,2.096
		c-2.469,0.789-5.596,1.374-9.381,1.753c0.325,0.355,0.904,0.635,1.736,0.836c0.831,0.202,1.735,0.378,2.711,0.528
		c0.975,0.15,1.847,0.321,2.617,0.511s1.232,0.389,1.387,0.598s0.232,0.364,0.232,0.464c0,0.535-0.979,1.421-2.937,2.659
		c-0.782,0.495-1.575,0.976-2.38,1.439c-1.045,0.588-2.072,1.221-3.082,1.898c-1.011,0.677-1.964,1.473-2.861,2.385
		c-0.93,0.991-1.397,1.632-1.405,1.922s-0.012,0.439-0.012,0.446c0,0.938,0.867,1.405,2.601,1.405c1.169,0,2.484-0.217,3.947-0.649
		c1.091-0.326,2.09-0.748,2.995-1.267c2.94-1.663,5.839-4.12,8.695-7.371c0.085-0.101,0.192-0.151,0.324-0.151
		c0.093,0,0.187,0.039,0.279,0.116c0.093,0.078,0.139,0.183,0.139,0.313c0,0.102-0.034,0.194-0.104,0.278
		c-2.895,3.298-5.866,5.816-8.916,7.558c-1.748,0.983-3.272,1.618-4.573,1.904c-1.3,0.286-2.36,0.43-3.181,0.43
		C73.263,62.599,72.791,62.556,72.349,62.471z M87.882,42.41c0.882-0.502,1.406-0.89,1.573-1.161
		c0.166-0.271,0.249-0.452,0.249-0.545c0-0.232-0.216-0.391-0.649-0.477c-0.147-0.03-0.325-0.046-0.534-0.046
		c-0.674,0-1.676,0.144-3.007,0.43c-3.088,0.712-5.921,1.78-8.498,3.203c-1.292,0.759-2.031,1.34-2.217,1.742
		C80.827,45.007,85.188,43.959,87.882,42.41z"/>
	<path fill="#FFFFFF" d="M88.706,59.279c0-0.588,0.093-1.304,0.278-2.147c0.449-1.835,1.252-3.825,2.409-5.974
		c1.157-2.147,2.425-4.037,3.802-5.67c0.976-1.114,1.895-1.938,2.757-2.468c0.863-0.529,1.554-0.795,2.072-0.795
		c0.542,0,0.813,0.283,0.813,0.848c0,0.836-0.662,2.159-1.985,3.97c-1.053,1.401-2.258,2.831-3.616,4.29s-2.583,2.603-3.675,3.431
		c-0.418,0.99-0.724,1.907-0.917,2.751c-0.146,0.658-0.221,1.199-0.221,1.625c0,0.295,0.035,0.534,0.104,0.72
		c0.171,0.418,0.453,0.627,0.848,0.627c0.457,0,1.018-0.2,1.684-0.604c0.596-0.356,1.188-0.782,1.776-1.277
		c1.369-1.176,2.759-2.519,4.167-4.028c0.085-0.085,0.182-0.127,0.29-0.127c0.116,0,0.217,0.04,0.303,0.122
		c0.084,0.081,0.131,0.176,0.139,0.284c0,0.116-0.039,0.22-0.116,0.313c-2.763,2.956-4.995,4.863-6.698,5.723
		c-0.882,0.441-1.691,0.662-2.426,0.662C89.303,61.554,88.706,60.795,88.706,59.279z M95.387,49.922
		c1.041-1.169,1.968-2.299,2.78-3.391c0.79-1.06,1.225-1.708,1.306-1.944c0.082-0.235,0.123-0.385,0.123-0.446
		c0-0.086-0.035-0.128-0.105-0.128c-0.231,0-0.716,0.328-1.45,0.986c-0.519,0.473-1.033,1.002-1.545,1.591
		c-1.578,1.873-2.956,4.009-4.132,6.408C93.338,52.116,94.346,51.09,95.387,49.922z"/>
	<path fill="#FFFFFF" d="M98.225,58.756c-0.433-0.225-0.649-0.588-0.649-1.092c0-0.758,0.554-1.779,1.659-3.064
		c1.022-1.13,2.141-2.077,3.355-2.844c0.797-0.472,1.436-0.708,1.916-0.708c0.139,0,0.263,0.019,0.371,0.058
		c0.41,0.147,0.615,0.441,0.615,0.883c0,0.734-0.499,1.548-1.498,2.438c-0.627,0.534-1.282,0.971-1.968,1.312
		c-0.685,0.341-1.282,0.511-1.793,0.511h-0.162c-0.364,0.504-0.546,0.886-0.546,1.149c0,0.063,0.012,0.12,0.034,0.174
		c0.124,0.264,0.312,0.397,0.563,0.401c0.251,0.004,0.4,0.005,0.447,0.005c0.41,0,0.843-0.054,1.3-0.162
		c0.526-0.116,0.96-0.244,1.3-0.383c0.906-0.348,1.749-0.772,2.531-1.271c0.781-0.499,1.416-0.997,1.904-1.492
		c0.085-0.084,0.182-0.127,0.29-0.127c0.115,0,0.216,0.043,0.302,0.127c0.085,0.086,0.127,0.187,0.127,0.303
		c0,0.108-0.038,0.208-0.115,0.301c-0.519,0.526-1.195,1.057-2.032,1.591c-0.835,0.534-1.733,0.991-2.693,1.37
		c-1.106,0.426-1.956,0.669-2.548,0.731c-0.592,0.062-1,0.093-1.225,0.093C99.107,59.058,98.612,58.957,98.225,58.756z
		 M103.438,53.787c0.735-0.643,1.103-1.014,1.103-1.115c0-0.022-0.016-0.033-0.046-0.033c-0.116,0-0.384,0.129-0.802,0.388
		c-0.417,0.26-0.892,0.6-1.422,1.021c-0.53,0.423-1.016,0.865-1.457,1.329C101.604,55.146,102.478,54.616,103.438,53.787z"/>
	<path fill="#FFFFFF" d="M112.342,58.431c-0.101-0.387-0.155-0.82-0.163-1.3c0.008-1.122,0.097-2.179,0.268-3.17
		c-0.674,0.542-1.424,1.23-2.253,2.067c-0.224,0.231-0.468,0.506-0.731,0.824c-0.263,0.316-0.527,0.614-0.795,0.894
		c-0.267,0.278-0.515,0.478-0.743,0.598s-0.412,0.18-0.551,0.18c-0.441,0-0.662-0.363-0.662-1.091c0-0.264,0.112-0.654,0.337-1.173
		l2.24-5.178c0.155-0.348,0.41-0.521,0.767-0.521c0.116,0,0.232,0.022,0.348,0.069c0.341,0.162,0.512,0.422,0.512,0.777
		c0,0.108-0.023,0.221-0.07,0.337l-1.811,4.226l0.557-0.546h0.012c0.921-0.937,1.684-1.637,2.287-2.101
		c0.627-0.573,1.149-0.859,1.567-0.859c0.232,0,0.43,0.135,0.592,0.406c0.108,0.186,0.163,0.422,0.163,0.708
		c0,0.14-0.016,0.298-0.047,0.477c-0.193,1.106-0.29,2.065-0.29,2.879c0,0.316,0.012,0.576,0.035,0.777
		c0.03,0.333,0.15,0.499,0.359,0.499c0.363,0,0.968-0.468,1.811-1.404c0.743-0.82,1.332-1.544,1.765-2.171
		c0.094-0.124,0.213-0.186,0.36-0.186c0.085,0,0.17,0.03,0.255,0.093c0.085,0.062,0.134,0.126,0.146,0.191s0.018,0.11,0.018,0.133
		c0,0.094-0.023,0.179-0.07,0.256c-0.201,0.287-0.544,0.712-1.027,1.277c-0.483,0.564-1.026,1.13-1.631,1.694
		c-0.604,0.565-1.112,0.952-1.526,1.161s-0.733,0.313-0.957,0.313C112.891,59.569,112.535,59.19,112.342,58.431z"/>
	<path fill="#FFFFFF" d="M116.498,58.281c-0.349-0.086-0.522-0.379-0.522-0.883c0-0.674,0.263-1.334,0.789-1.985
		c0.959-1.184,2.79-2.016,5.491-2.495h0.034c0.101,0,0.197,0.036,0.291,0.109c0.093,0.074,0.139,0.173,0.139,0.297
		c0,0.263-0.127,0.41-0.383,0.44c-0.465,0.069-1.07,0.305-1.817,0.702c-0.746,0.399-1.393,0.833-1.938,1.301
		c-0.545,0.468-0.818,0.865-0.818,1.189c0,0.155,0.066,0.232,0.197,0.232c0.225,0,0.67-0.274,1.335-0.824
		c0.728-0.588,1.339-1.13,1.834-1.625c0.442-0.449,0.824-0.674,1.15-0.674c0.216,0,0.324,0.082,0.324,0.244
		c0,0.108-0.05,0.248-0.15,0.418c-0.101,0.171-0.168,0.36-0.203,0.568c-0.035,0.209-0.053,0.395-0.053,0.558
		c0,0.101,0.008,0.205,0.023,0.313c0.054,0.41,0.141,0.627,0.262,0.65c0.119,0.022,0.198,0.035,0.237,0.035
		c0.286,0,0.731-0.256,1.335-0.767c0.41-0.341,0.991-0.75,1.741-1.23c0.441-0.271,0.806-0.406,1.092-0.406
		c0.116,0,0.217,0.04,0.302,0.122c0.085,0.081,0.128,0.184,0.128,0.307c0,0.116-0.043,0.218-0.128,0.302
		c-0.085,0.086-0.186,0.128-0.302,0.128c-0.217,0-0.848,0.375-1.893,1.126l-0.186,0.14c-1.037,0.774-1.808,1.161-2.311,1.161
		c-0.131,0-0.259-0.02-0.383-0.058c-0.387-0.116-0.635-0.589-0.743-1.417c-0.008-0.123-0.012-0.251-0.012-0.383v-0.197
		c-0.239,0.231-0.669,0.58-1.288,1.044c-1.401,1.062-2.48,1.591-3.239,1.591C116.718,58.315,116.606,58.303,116.498,58.281z"/>
	<path fill="#FFFFFF" d="M148.713,63.353c-0.187-0.131-0.303-0.317-0.349-0.557c-0.194-0.944-1.323-1.416-3.391-1.416
		c-0.742,0-1.481,0.03-2.217,0.093c-1.192,0.108-2.36,0.235-3.506,0.383c-1.54,0.217-2.739,0.325-3.599,0.325
		c-0.108,0-0.219-0.005-0.331-0.012c-0.112-0.008-0.203-0.053-0.272-0.134c-0.07-0.081-0.104-0.173-0.104-0.272
		c0-0.132,0.044-0.236,0.133-0.314c0.089-0.076,0.188-0.115,0.297-0.115h0.034c0.132,0.008,0.271,0.012,0.418,0.012
		c0.875,0,2.368-0.236,4.481-0.708c1.114-0.248,2.229-0.465,3.343-0.65c1.494-4.326,3.352-8.234,5.572-11.726
		c1.78-2.801,3.967-5.51,6.56-8.126c-2.856,0.055-5.321,0.345-7.396,0.871c-2.956,0.759-4.976,2.295-6.06,4.608
		c0.178-0.101,0.31-0.15,0.395-0.15c0.063,0,0.093,0.034,0.093,0.104c0,0.216-0.325,0.646-0.975,1.289l-0.047,0.057
		c-0.077,0.063-0.158,0.094-0.243,0.094c-0.063,0-0.112-0.008-0.151-0.023c-0.201-0.054-0.302-0.186-0.302-0.395
		c0-0.046,0.004-0.089,0.012-0.128c0.503-1.602,1.333-2.956,2.49-4.063c1.156-1.106,2.494-1.974,4.011-2.601
		c2.004-0.835,4.117-1.253,6.339-1.253c1.045,0,2.186,0.077,3.424,0.231l0.035,0.013c2.693,0.34,4.833,0.982,6.42,1.927
		c0.139,0.085,0.209,0.201,0.209,0.348c0,0.077-0.027,0.161-0.082,0.25c-0.054,0.089-0.117,0.142-0.191,0.156
		c-0.073,0.017-0.125,0.023-0.156,0.023c-0.077,0-0.151-0.02-0.221-0.058c-1.394-0.805-3.518-1.235-6.373-1.289
		c-1.881,2.105-4.005,5.069-6.374,8.893c-2.507,4.048-4.48,7.654-5.92,10.819c0.426-0.054,0.832-0.081,1.219-0.081
		c0.852,0,1.609,0.124,2.275,0.371c0.976,0.356,1.582,1.143,1.822,2.356l0.012,0.163c0,0.17-0.05,0.329-0.15,0.476
		c-0.171,0.24-0.402,0.36-0.697,0.36C149.021,63.504,148.859,63.453,148.713,63.353z"/>
	<path fill="#FFFFFF" d="M152.88,59.975c-0.449-0.154-0.678-0.541-0.686-1.161c0-0.813,0.372-2.491,1.115-5.038
		c0.363-1.253,0.546-2.009,0.546-2.264c0-0.146-0.017-0.288-0.047-0.424c-0.031-0.135-0.047-0.249-0.047-0.343
		c0-0.062,0.01-0.119,0.029-0.174c0.019-0.054,0.071-0.081,0.156-0.081c0.078,0,0.183,0.023,0.313,0.07
		c0.395,0.162,0.635,0.483,0.72,0.963c0.039,0.225,0.059,0.465,0.059,0.72c0,0.805-0.236,1.993-0.708,3.563
		c-0.24,0.852-0.36,1.382-0.36,1.591c0,0.124,0.027,0.186,0.082,0.186c0.162,0,0.665-0.592,1.509-1.776
		c0.472-0.643,0.973-1.292,1.503-1.949c0.53-0.658,1.031-1.169,1.504-1.532c0.255-0.194,0.476-0.291,0.661-0.291
		c0.248,0,0.564,0.217,0.952,0.65c0.201,0.225,0.483,0.472,0.848,0.743c0.897,0.681,2.275,1.021,4.132,1.021
		c0.117,0,0.215,0.04,0.297,0.122c0.081,0.081,0.122,0.184,0.122,0.307c0,0.116-0.041,0.218-0.122,0.302
		c-0.082,0.086-0.18,0.128-0.297,0.128c-1.624,0-2.921-0.247-3.888-0.742c-0.643-0.318-1.208-0.743-1.695-1.277
		c-0.193-0.217-0.329-0.325-0.406-0.325c-0.039,0-0.074,0.012-0.104,0.035c-0.255,0.201-0.501,0.497-0.737,0.888
		s-0.479,0.838-0.726,1.341c-0.333,0.666-0.718,1.349-1.155,2.049c-0.438,0.701-0.982,1.329-1.637,1.887
		c-0.654,0.557-1.221,0.836-1.7,0.836C153.034,59.998,152.957,59.991,152.88,59.975z"/>
	<path fill="#FFFFFF" d="M165.22,59.825c-0.294-0.295-0.441-0.682-0.441-1.161c0-0.564,0.112-1.161,0.337-1.788
		c0.201-0.549,0.398-1.006,0.592-1.37c-0.681-0.627-1.021-1.246-1.021-1.857c0-0.673,0.283-1.284,0.848-1.833
		c0.526-0.512,1.185-0.887,1.974-1.127c0.665-0.193,1.257-0.29,1.776-0.29c0.526,0,0.971,0.104,1.335,0.313
		c0.711,0.418,1.087,0.871,1.126,1.358c0.038,0.487,0.058,0.781,0.058,0.882c0,1.091-0.422,2.218-1.265,3.378
		c1.896-0.054,3.835-0.657,5.815-1.811c0.077-0.047,0.155-0.069,0.232-0.069c0.146,0,0.267,0.069,0.359,0.209
		c0.039,0.069,0.059,0.143,0.059,0.22c0,0.155-0.07,0.275-0.209,0.36c-2.229,1.301-4.369,1.95-6.42,1.95
		c-0.14,0-0.298-0.008-0.476-0.022c-0.643,0.758-1.378,1.45-2.206,2.077c-0.72,0.542-1.323,0.813-1.811,0.813
		C165.634,60.056,165.413,59.98,165.22,59.825z M168.296,52.232c-0.658,0.162-1.153,0.395-1.486,0.697
		c-0.301,0.271-0.452,0.584-0.452,0.939c0,0.14,0.02,0.287,0.058,0.441C166.949,53.536,167.576,52.844,168.296,52.232z
		 M167.71,58.054c0.43-0.329,0.833-0.683,1.213-1.063c-0.572-0.131-1.153-0.325-1.741-0.581c-0.069,0.14-0.17,0.368-0.302,0.686
		c-0.232,0.534-0.349,0.913-0.349,1.138c0,0.209,0.078,0.313,0.232,0.313C166.965,58.547,167.28,58.383,167.71,58.054z
		 M170.305,55.134c0.395-0.72,0.592-1.319,0.592-1.8c0-0.665-0.337-1.067-1.011-1.207c-0.681,0.666-1.446,1.823-2.298,3.472
		c0.588,0.332,1.238,0.557,1.95,0.673C169.824,55.9,170.08,55.521,170.305,55.134z"/>
	<path fill="#FFFFFF" d="M181.02,58.431c-0.101-0.387-0.155-0.82-0.163-1.3c0.008-1.122,0.098-2.179,0.268-3.17
		c-0.673,0.542-1.424,1.23-2.252,2.067c-0.225,0.231-0.469,0.506-0.731,0.824c-0.263,0.316-0.528,0.614-0.795,0.894
		c-0.268,0.278-0.516,0.478-0.743,0.598c-0.229,0.12-0.412,0.18-0.552,0.18c-0.441,0-0.662-0.363-0.662-1.091
		c0-0.264,0.113-0.654,0.338-1.173l2.24-5.178c0.154-0.348,0.409-0.521,0.766-0.521c0.116,0,0.232,0.022,0.349,0.069
		c0.34,0.162,0.511,0.422,0.511,0.777c0,0.108-0.023,0.221-0.07,0.337l-1.811,4.226l0.557-0.546h0.013
		c0.92-0.937,1.683-1.637,2.286-2.101c0.627-0.573,1.149-0.859,1.568-0.859c0.23,0,0.429,0.135,0.592,0.406
		c0.108,0.186,0.162,0.422,0.162,0.708c0,0.14-0.016,0.298-0.046,0.477c-0.194,1.106-0.291,2.065-0.291,2.879
		c0,0.316,0.012,0.576,0.035,0.777c0.03,0.333,0.15,0.499,0.359,0.499c0.364,0,0.968-0.468,1.811-1.404
		c0.744-0.82,1.332-1.544,1.766-2.171c0.092-0.124,0.213-0.186,0.359-0.186c0.085,0,0.17,0.03,0.256,0.093
		c0.085,0.062,0.133,0.126,0.145,0.191s0.018,0.11,0.018,0.133c0,0.094-0.023,0.179-0.069,0.256
		c-0.202,0.287-0.544,0.712-1.027,1.277c-0.484,0.564-1.027,1.13-1.631,1.694c-0.604,0.565-1.113,0.952-1.527,1.161
		s-0.733,0.313-0.958,0.313C181.568,59.569,181.213,59.19,181.02,58.431z"/>
	<path fill="#FFFFFF" d="M186.964,59.024c-0.642-0.047-1.014-0.252-1.114-0.616c-0.101-0.363-0.151-0.657-0.151-0.882
		c0-0.395,0.086-0.84,0.255-1.335c0.21-0.611,0.533-1.229,0.97-1.852c0.438-0.623,0.974-1.194,1.608-1.713
		c0.225-0.17,0.422-0.255,0.592-0.255c0.062,0,0.12,0.012,0.174,0.035c0.217,0.076,0.333,0.178,0.349,0.301
		c0.016,0.124,0.023,0.197,0.023,0.222c0,0.208-0.132,0.425-0.395,0.649c-0.349,0.325-0.705,0.836-1.068,1.532
		c-0.526,1.007-0.789,1.737-0.789,2.194c0,0.256,0.088,0.426,0.267,0.511c0.054,0.023,0.12,0.035,0.197,0.035
		c0.302,0,0.762-0.182,1.382-0.546c0.882-0.503,1.942-1.408,3.181-2.717c0.093-0.093,0.201-0.139,0.325-0.139
		c0.101,0,0.193,0.04,0.278,0.122c0.085,0.081,0.128,0.152,0.128,0.214v0.093c0,0.109-0.039,0.205-0.116,0.291
		c-1.292,1.37-2.414,2.325-3.367,2.867c-1.122,0.657-1.996,0.987-2.623,0.987h-0.106V59.024z M191.515,50.455
		c0.085-0.108,0.128-0.221,0.128-0.336c0-0.194-0.074-0.317-0.222-0.372c-0.107-0.046-0.192-0.069-0.255-0.069
		c-0.132,0-0.286,0.042-0.464,0.128c-0.465,0.231-0.697,0.387-0.697,0.464c0,0.039,0.055,0.059,0.163,0.059
		c0.101,0,0.236-0.016,0.406-0.047c-0.534,0.743-0.801,1.228-0.801,1.451c0.007,0.093,0.05,0.14,0.128,0.14
		C190.125,51.872,190.663,51.401,191.515,50.455z"/>
	<path fill="#FFFFFF" d="M197.214,58.431c-0.101-0.387-0.154-0.82-0.162-1.3c0.008-1.122,0.097-2.179,0.267-3.17
		c-0.673,0.542-1.424,1.23-2.252,2.067c-0.225,0.231-0.469,0.506-0.731,0.824c-0.263,0.316-0.527,0.614-0.795,0.894
		c-0.268,0.278-0.515,0.478-0.743,0.598s-0.411,0.18-0.552,0.18c-0.44,0-0.661-0.363-0.661-1.091c0-0.264,0.112-0.654,0.337-1.173
		l2.24-5.178c0.154-0.348,0.41-0.521,0.766-0.521c0.116,0,0.232,0.022,0.349,0.069c0.341,0.162,0.511,0.422,0.511,0.777
		c0,0.108-0.023,0.221-0.069,0.337l-1.812,4.226l0.558-0.546h0.012c0.921-0.937,1.683-1.637,2.287-2.101
		c0.627-0.573,1.149-0.859,1.567-0.859c0.231,0,0.429,0.135,0.592,0.406c0.108,0.186,0.162,0.422,0.162,0.708
		c0,0.14-0.015,0.298-0.046,0.477c-0.193,1.106-0.291,2.065-0.291,2.879c0,0.316,0.012,0.576,0.035,0.777
		c0.031,0.333,0.151,0.499,0.36,0.499c0.363,0,0.967-0.468,1.811-1.404c0.743-0.82,1.331-1.544,1.765-2.171
		c0.093-0.124,0.213-0.186,0.359-0.186c0.086,0,0.171,0.03,0.256,0.093c0.085,0.062,0.134,0.126,0.145,0.191
		c0.013,0.065,0.019,0.11,0.019,0.133c0,0.094-0.023,0.179-0.07,0.256c-0.201,0.287-0.543,0.712-1.027,1.277
		c-0.483,0.564-1.027,1.13-1.631,1.694c-0.604,0.565-1.112,0.952-1.526,1.161c-0.415,0.209-0.733,0.313-0.958,0.313
		C197.764,59.569,197.408,59.19,197.214,58.431z"/>
	<path fill="#FFFFFF" d="M201.369,58.281c-0.348-0.086-0.521-0.379-0.521-0.883c0-0.674,0.264-1.334,0.789-1.985
		c0.96-1.184,2.79-2.016,5.491-2.495h0.035c0.101,0,0.197,0.036,0.29,0.109c0.093,0.074,0.14,0.173,0.14,0.297
		c0,0.263-0.128,0.41-0.384,0.44c-0.464,0.069-1.069,0.305-1.816,0.702c-0.747,0.399-1.394,0.833-1.939,1.301
		s-0.817,0.865-0.817,1.189c0,0.155,0.065,0.232,0.197,0.232c0.225,0,0.669-0.274,1.335-0.824c0.728-0.588,1.339-1.13,1.834-1.625
		c0.441-0.449,0.824-0.674,1.149-0.674c0.216,0,0.325,0.082,0.325,0.244c0,0.108-0.051,0.248-0.151,0.418
		c-0.101,0.171-0.169,0.36-0.203,0.568c-0.034,0.209-0.053,0.395-0.053,0.558c0,0.101,0.008,0.205,0.023,0.313
		c0.055,0.41,0.142,0.627,0.262,0.65c0.12,0.022,0.199,0.035,0.238,0.035c0.285,0,0.73-0.256,1.334-0.767
		c0.41-0.341,0.991-0.75,1.742-1.23c0.44-0.271,0.805-0.406,1.091-0.406c0.116,0,0.217,0.04,0.302,0.122
		c0.086,0.081,0.128,0.184,0.128,0.307c0,0.116-0.042,0.218-0.128,0.302c-0.085,0.086-0.186,0.128-0.302,0.128
		c-0.217,0-0.848,0.375-1.893,1.126l-0.185,0.14c-1.038,0.774-1.808,1.161-2.311,1.161c-0.132,0-0.26-0.02-0.384-0.058
		c-0.387-0.116-0.635-0.589-0.743-1.417c-0.008-0.123-0.011-0.251-0.011-0.383v-0.197c-0.24,0.231-0.67,0.58-1.289,1.044
		c-1.4,1.062-2.48,1.591-3.238,1.591C201.591,58.315,201.479,58.303,201.369,58.281z"/>
</g>
<g>
	<path fill="#FFFFFF" stroke="#FFFFFF" stroke-width="0.5" stroke-miterlimit="10" d="M16.201,0.992v7.419H15.83l-2.597-7.048H6.556
		v11.87h5.193V9.894h0.371v7.048h-0.371v-3.339H6.556v12.983h7.048l2.597-7.048h0.371v7.419H0.25v-0.371h2.226V1.364H0.25V0.993
		h15.951V0.992z"/>
	<path fill="#FFFFFF" stroke="#FFFFFF" stroke-width="0.5" stroke-miterlimit="10" d="M42.535,1.364h-2.968L30.85,26.959h-0.742
		L21.02,1.364h-2.226V0.993h8.902v0.371H25.47l7.048,19.66l6.677-19.66h-2.968V0.993h6.306v0.371H42.535z"/>
	<path fill="#FFFFFF" stroke="#FFFFFF" stroke-width="0.5" stroke-miterlimit="10" d="M61.081,26.587v0.371h-8.903v-0.371h2.226
		l-2.411-6.677h-9.051l-2.263,6.677h2.967v0.371H37.34v-0.371h2.967l8.717-25.595h0.742l9.088,25.595H61.081z M51.807,19.539
		L47.356,6.927L43.09,19.539H51.807z"/>
	<path fill="#FFFFFF" stroke="#FFFFFF" stroke-width="0.5" stroke-miterlimit="10" d="M79.996,19.539v7.419H63.304v-0.371h2.226
		V1.364h-2.226V0.993h8.531v0.371h-2.226v25.224h7.419l2.597-7.048h0.371V19.539z"/>
	<path fill="#FFFFFF" stroke="#FFFFFF" stroke-width="0.5" stroke-miterlimit="10" d="M83.703,1.364V0.993h8.531v0.371h-2.226
		v25.224h2.226v0.371h-8.531v-0.371h2.226V1.364H83.703z"/>
	<path fill="#FFFFFF" stroke="#FFFFFF" stroke-width="0.5" stroke-miterlimit="10" d="M110.038,22.507
		c0-7.419-13.354-5.936-13.354-15.209c0-3.709,3.339-7.048,8.161-7.048c4.08,0,7.048,2.968,7.048,4.822
		c0,1.483-1.113,2.597-2.597,2.597s-2.597-1.113-2.597-2.597s1.112-2.597,2.597-2.597c0.371,0,0.927,0.186,0.927,0.186
		s-2.04-2.04-5.378-2.04c-3.339,0-5.564,2.226-5.564,4.451c0,7.419,13.354,5.935,13.354,15.209c0,4.08-3.338,7.419-8.531,7.419
		c-5.564,0-8.531-5.008-8.531-5.008v-0.52c0.147,0.223,3.078,5.156,8.531,5.156C107.813,27.329,110.038,25.104,110.038,22.507z"/>
	<path fill="#FFFFFF" stroke="#FFFFFF" stroke-width="0.5" stroke-miterlimit="10" d="M131.921,26.958h-8.902v-0.371h2.226V1.364
		h-2.226V0.993h7.048c6.677,0,9.273,2.597,9.273,5.563c0,4.822-5.935,5.193-5.935,5.193v0.186c0,0,8.531,0.186,8.531,7.419
		C141.937,23.619,138.598,26.958,131.921,26.958z M129.324,1.364V11.75h0.742c2.968,0,4.859-0.557,4.822-0.557V1.92
		c0,0-1.854-0.556-4.822-0.556H129.324z M137.485,25.475V13.234c0,0-2.226-1.113-5.564-1.113h-2.597v14.467h2.597
		C135.26,26.587,137.485,25.475,137.485,25.475z"/>
	<path fill="#FFFFFF" stroke="#FFFFFF" stroke-width="0.5" stroke-miterlimit="10" d="M161.593,0.992v7.419h-0.37l-2.597-7.048
		h-6.678v11.87h5.193V9.894h0.371v7.048h-0.371v-3.339h-5.193v12.983h7.048l2.597-7.048h0.371v7.419h-16.321v-0.371h2.226V1.364
		h-2.226V0.993h15.95V0.992z"/>
	<path fill="#FFFFFF" stroke="#FFFFFF" stroke-width="0.5" stroke-miterlimit="10" d="M187.186,26.587v0.371h-8.902v-0.371h2.226
		l-2.411-6.677h-9.051l-2.263,6.677h2.968v0.371h-6.307v-0.371h2.968l8.717-25.595h0.742l9.088,25.595H187.186z M177.912,19.539
		l-4.451-12.612l-4.266,12.612H177.912z"/>
	<path fill="#FFFFFF" stroke="#FFFFFF" stroke-width="0.5" stroke-miterlimit="10" d="M198.128,27.7
		c-5.008,0-8.718-3.71-8.718-9.645V1.364h-2.226V0.993h8.532v0.371h-2.226v24.667c0,0,1.854,1.299,4.637,1.299
		c4.822,0,8.346-3.524,8.346-9.273V5.11c-0.037,0.074-0.816,1.446-2.597,1.446c-1.669,0-2.968-1.298-2.968-2.967
		c0-1.67,1.299-2.968,2.968-2.968s2.968,1.298,2.968,2.968v14.467C206.845,23.991,203.135,27.7,198.128,27.7z"/>
	<path fill="#FFFFFF" stroke="#FFFFFF" stroke-width="0.5" stroke-miterlimit="10" d="M229.84,8.411h-0.37l-2.597-7.048h-4.451
		v25.224h2.226v0.371h-8.532v-0.371h2.226V1.364h-4.451l-2.597,7.048h-0.371V0.993h18.918L229.84,8.411L229.84,8.411z"/>
	<path fill="#FFFFFF" stroke="#FFFFFF" stroke-width="0.5" stroke-miterlimit="10" d="M244.675,26.587h2.226v0.371h-8.531v-0.371
		h2.226V15.459l-7.048-14.096h-2.226V0.992h8.902v0.371h-2.226l6.677,13.354l6.678-13.354h-2.968V0.992h6.306v0.371h-2.968
		l-7.048,14.096L244.675,26.587L244.675,26.587z"/>
</g>
</svg>
